<svg xmlns="http://www.w3.org/2000/svg" width="519" height="519" viewBox="0 0 519 519" version="1.1"><path d="M 200.500 5.607 C 190.835 6.562, 178.297 9.515, 173.118 12.055 C 170.028 13.571, 164.956 17.101, 161.846 19.900 C 155.374 25.725, 149.745 28.427, 140.784 30.009 C 127.188 32.410, 116.609 36.866, 108.150 43.755 C 105.758 45.703, 100.381 51.618, 96.202 56.899 C 83.376 73.104, 72.310 85.867, 58.105 100.839 C 41.720 118.106, 36.865 125.062, 31.114 139.500 C 28.704 145.550, 23.606 157.450, 19.785 165.944 C 4.799 199.256, 2.397 208.763, 3.479 230.500 C 3.862 238.200, 4.276 252.825, 4.397 263 C 4.586 278.759, 4.927 282.389, 6.697 287.500 C 9.651 296.031, 11.845 300.558, 16.731 308.209 C 23.265 318.440, 23.716 321.769, 21.561 343.908 C 19.298 367.166, 19.705 378.718, 23.008 385 C 25.227 389.218, 25.379 390.595, 25.438 407 C 25.496 423.364, 25.672 424.972, 28.155 431.764 C 33.495 446.376, 43.102 457.438, 57.500 465.551 C 66.566 470.660, 72.784 469.531, 92.500 459.198 L 99.500 455.529 128.500 455.432 C 162.451 455.317, 169.901 454.388, 174.262 449.720 C 175.800 448.073, 177.187 446.900, 177.343 447.113 C 187.648 461.135, 199.578 469.037, 216.517 473.060 C 223.266 474.663, 228.508 475.106, 240.812 475.113 C 264.493 475.127, 278.640 471.520, 291.215 462.263 L 297.279 457.799 308.389 461.796 C 314.500 463.995, 322.650 466.582, 326.500 467.546 C 330.350 468.509, 338.825 472.031, 345.333 475.371 C 355.653 480.668, 358.019 481.492, 363.842 481.821 L 370.517 482.198 375.841 475.903 C 381.982 468.642, 384.855 463.323, 387.944 453.500 C 389.155 449.650, 391.452 443.701, 393.049 440.280 C 401.099 423.034, 397.886 401.964, 384.751 385.855 C 378.917 378.700, 376.529 373.997, 374.074 364.823 C 371.737 356.094, 370.424 345.983, 371.635 346.042 C 372.111 346.066, 373.431 347.528, 374.569 349.292 C 381.792 360.492, 386.647 366.636, 395.500 375.776 C 401 381.454, 406.286 387.628, 407.247 389.497 C 408.207 391.365, 410.214 397.531, 411.706 403.197 C 414.118 412.358, 414.423 415.331, 414.459 430.021 C 414.498 445.814, 414.387 446.762, 411.946 451.511 C 410.177 454.952, 407.792 457.557, 404.186 459.989 C 397.752 464.328, 394.998 469.451, 395.006 477.066 C 395.013 484.593, 396.587 489.529, 399.784 492.052 C 405.796 496.796, 420.153 492.382, 430.814 482.512 C 438.713 475.198, 441 470.292, 441 460.655 C 441 454.557, 441.722 450.874, 444.603 442.265 C 450.975 423.232, 451.346 402.128, 445.580 386.808 C 443.285 380.711, 441.808 377.325, 434.460 361.317 C 430.446 352.574, 424.950 344.972, 415.286 334.797 C 405.527 324.524, 403.700 320.223, 404.110 308.500 C 404.969 283.942, 402.912 267.623, 397.412 255.349 C 396.635 253.616, 396 251.948, 396 251.643 C 396 251.338, 394.730 248.931, 393.179 246.294 C 391.627 243.657, 389.399 237.969, 388.228 233.653 C 386.704 228.033, 385.089 224.628, 382.537 221.653 C 380.577 219.369, 375.648 213.450, 371.583 208.500 C 362.796 197.800, 351.604 186.600, 344 180.897 C 340.975 178.628, 332.650 173.289, 325.500 169.033 C 318.350 164.777, 302.150 154.790, 289.500 146.840 C 276.850 138.889, 262.450 129.992, 257.500 127.068 C 240.118 116.800, 233.659 111.864, 225 102.232 C 220.325 97.032, 214.888 91.693, 212.918 90.367 C 208.770 87.576, 203 85.664, 203 87.081 C 203 88.442, 213.798 108.694, 217.353 114 C 229.040 131.444, 240.195 143.803, 253.021 153.516 C 262.132 160.416, 284.185 180.106, 284.788 181.879 C 284.946 182.345, 283.596 183.318, 281.788 184.042 C 279.979 184.765, 276.879 186.612, 274.898 188.146 C 270.764 191.346, 261.863 203.796, 258.867 210.568 C 256.055 216.925, 256.249 228, 259.173 228 C 259.744 228, 263.570 224.864, 267.674 221.031 C 280.662 208.902, 292.729 202.963, 304.225 203.044 C 315.965 203.126, 324.861 208.085, 340.029 223 C 352.368 235.134, 353.522 237.294, 349.509 240.746 C 347.776 242.237, 345.789 242.997, 344.130 242.805 C 341.882 242.544, 341.532 242.064, 341.722 239.500 C 341.844 237.850, 342.062 234.821, 342.205 232.768 C 342.366 230.460, 341.884 228.456, 340.943 227.514 C 339.579 226.151, 339.132 226.618, 336.668 231.987 C 334.656 236.371, 333.252 238.150, 331.445 238.603 C 328.248 239.405, 326.604 237.959, 325.134 233.054 C 324.480 230.870, 323.548 228.839, 323.063 228.539 C 321.399 227.510, 318.983 229.222, 318.372 231.860 C 317.363 236.224, 315.123 239, 312.609 239 C 310.596 239, 310.025 238.149, 308.580 233 C 306.744 226.457, 305.702 225.873, 301.610 229.092 C 298.364 231.646, 296.005 237.004, 295.985 241.872 C 295.976 243.867, 295.512 246.175, 294.953 247 C 294.112 248.243, 293.275 247.749, 290.081 244.122 C 285.050 238.410, 283.823 239.238, 284.616 247.810 C 285.147 253.553, 284.956 254.844, 283.262 256.931 C 281.435 259.181, 281.055 259.265, 278.144 258.060 C 274.811 256.679, 274.161 254.435, 276.065 250.879 C 278.184 246.919, 276.295 246.739, 272.128 250.503 C 267.915 254.310, 265.948 257.252, 264.514 261.894 C 263.781 264.264, 263.825 264.281, 269.044 263.589 C 272.912 263.075, 274.534 263.237, 275.142 264.195 C 275.597 264.913, 275.976 268.961, 275.985 273.191 C 275.993 277.527, 276.464 281.169, 277.063 281.539 C 278.830 282.631, 281.632 279.236, 283.940 273.205 C 286.362 266.875, 289.450 263, 292.075 263 C 293.324 263, 294.139 264.410, 295.026 268.108 C 296.511 274.298, 300.906 279.604, 305.629 280.908 C 310.790 282.333, 318.180 279.820, 322.999 275.001 C 328.407 269.593, 328.987 265.486, 326.410 250.830 L 325.764 247.160 330.120 248.138 C 336.851 249.651, 342.054 252.283, 347.313 256.836 C 351.439 260.409, 352.420 260.846, 354.190 259.898 C 356.070 258.892, 356.195 258.207, 355.583 252.237 C 354.995 246.499, 355.097 245.836, 356.401 246.918 C 357.220 247.598, 358.656 250.460, 359.592 253.278 C 361.015 257.561, 361.196 260.796, 360.696 272.982 C 360.022 289.406, 361.261 310.040, 363.551 320.500 C 364.996 327.104, 364.972 327.840, 363.115 333.500 C 360.746 340.722, 355.157 356.196, 351.717 365.057 C 350.341 368.601, 347.974 374.875, 346.457 379 C 341.731 391.852, 336.071 402.048, 326.617 414.737 C 321.603 421.468, 315.396 429.847, 312.824 433.358 C 304.002 445.400, 284.576 458.485, 269.500 462.540 C 259.976 465.102, 247.943 465.459, 234.480 463.577 C 208.922 460.006, 197.630 455.918, 190.638 447.704 C 188.362 445.030, 184.020 440.066, 180.990 436.671 C 170.686 425.131, 156.324 407.519, 152.309 401.500 C 147.303 393.995, 127.539 355.535, 122.208 342.926 C 114.052 323.632, 108.069 298.529, 105.535 272.972 C 105.180 269.381, 105.385 256.781, 105.991 244.972 C 107.383 217.863, 107.309 218.041, 124.081 201.500 C 140.520 185.287, 159.595 159.721, 166.410 144.768 C 173.934 128.258, 177.219 112.759, 178.550 87.500 L 179.235 74.500 176.703 76.844 C 175.311 78.133, 170.267 86.683, 165.495 95.844 C 156.294 113.508, 144.536 131.862, 134.989 143.464 C 129.299 150.378, 96.240 183.528, 82.500 196.097 C 70.582 206.999, 66.499 212.346, 61.710 223.327 C 51.465 246.818, 49.606 254.637, 49.547 274.500 L 49.500 290.500 57.149 306.500 C 61.356 315.300, 65.822 325.444, 67.073 329.042 L 69.348 335.584 66.964 340.357 C 64.205 345.882, 59.178 352.025, 54.955 355.032 L 52.011 357.128 52.627 346.814 C 53.023 340.188, 52.829 334.982, 52.084 332.254 C 51.447 329.918, 47.053 322.268, 42.321 315.254 C 32.027 299.995, 28.290 292.409, 26.864 283.876 C 25.560 276.074, 26.376 258.950, 28.556 248.348 C 31.041 236.266, 40.482 212.444, 45.736 205 C 49.196 200.097, 79.624 171.392, 86.500 166.543 C 97.636 158.692, 101.179 155.455, 113.973 141.449 C 128.339 125.722, 131.184 122.080, 138.224 110.406 C 146.523 96.645, 152.127 84.558, 154.057 76.256 C 155.532 69.909, 155.664 67.065, 154.871 58.640 C 154.187 51.368, 154.246 47.821, 155.084 45.797 C 155.721 44.259, 156.526 42.992, 156.871 42.983 C 157.217 42.973, 160.641 42.300, 164.481 41.487 C 169.705 40.380, 173.184 38.821, 178.301 35.293 L 185.139 30.577 189.723 33.009 C 195.060 35.840, 199.112 41.011, 201.961 48.626 C 205.567 58.263, 208.699 63.444, 213.803 68.219 C 218.267 72.395, 221.510 74.298, 230 77.726 C 231.375 78.281, 234.750 80.749, 237.500 83.210 C 244.622 89.584, 281.626 116.759, 300.500 129.477 C 329.636 149.109, 350.376 164.691, 362.355 175.949 C 377.575 190.252, 394.201 211.775, 402.178 227.500 C 408.055 239.086, 410.692 248.718, 413.521 268.924 C 415.500 283.064, 418.193 294.555, 422.165 305.807 C 428.110 322.651, 432.784 331.124, 445.541 348.185 C 454.384 360.011, 458.368 368.180, 460.555 378.973 C 461.984 386.028, 462.066 389.197, 461.142 401.832 C 460.553 409.899, 459.777 425.480, 459.418 436.456 C 458.709 458.165, 457.921 462.005, 452.895 468.273 C 447.281 475.273, 443.996 482.724, 444.044 488.352 C 444.147 500.567, 446.952 506, 453.156 506 C 456.041 506, 459.306 508.519, 461.563 512.487 C 462.544 514.209, 462.840 514.077, 465.346 510.791 C 468.165 507.095, 470.222 500.565, 473.942 483.500 C 475.141 478, 476.325 472.600, 476.574 471.500 C 477.729 466.397, 482.353 438.874, 484.554 424 C 487.403 404.750, 487.801 384.894, 485.550 374.315 C 481.643 355.953, 471.578 335.249, 457.405 316.416 C 454.385 312.405, 450.102 305.832, 447.887 301.811 C 443.930 294.628, 438.791 278.861, 437.519 270 C 437.164 267.525, 436.192 262.350, 435.359 258.500 C 425.291 211.960, 411.126 187.539, 374 152.712 C 360.812 140.341, 353.383 134.862, 327.253 118.235 C 309.643 107.028, 304.782 104.257, 279.500 91.016 C 270.325 86.210, 263 80.789, 263 78.804 C 263 74.404, 295.336 88.378, 309.985 99.109 C 314.652 102.527, 323.427 107.990, 329.485 111.248 C 344.447 119.296, 362.524 130.318, 370.250 136.104 C 380.346 143.665, 410.249 172.216, 415.907 179.698 C 418.737 183.439, 423.557 191.450, 426.618 197.500 C 429.678 203.550, 432.523 208.950, 432.939 209.500 C 435.314 212.641, 443.632 234.971, 446.995 247.236 C 454.631 275.087, 461.571 293.077, 474.462 318.434 C 478.638 326.648, 482.935 336.323, 484.011 339.934 C 486.919 349.688, 493.777 395.198, 495.069 413.310 C 496.736 436.669, 495.056 448.657, 487.590 466.701 C 484.921 473.151, 480.397 487.151, 477.633 497.512 C 476.415 502.082, 476.272 504.402, 477.040 507.182 C 478.420 512.180, 481.241 515.505, 483.398 514.677 C 486.664 513.424, 498.757 485.524, 506.664 461 C 509.616 451.844, 512.878 435.237, 513.440 426.500 C 513.759 421.550, 514.726 407.278, 515.590 394.785 C 517.048 373.689, 517.039 371.088, 515.456 358.285 C 514.228 348.350, 513.785 337.658, 513.871 320 C 514.028 287.598, 513.104 284.213, 499.926 268.915 C 491.273 258.868, 490.148 257.114, 480.664 238.893 C 473.625 225.368, 468.066 209.622, 465.521 196 C 465.162 194.075, 463.508 188, 461.847 182.500 C 453.447 154.691, 451.052 149.854, 440.556 139.500 C 429.576 128.668, 409.983 113.060, 394.378 102.714 C 378.660 92.293, 372.777 87.127, 365.287 77.170 C 348.342 54.644, 334.493 40.738, 315.754 27.432 C 302.496 18.018, 293.198 13.254, 283 10.649 C 266.135 6.342, 260.885 5.807, 232.500 5.507 C 217.100 5.345, 202.700 5.389, 200.500 5.607 M 234.500 27.607 C 227.350 28.390, 219.137 28.794, 216.250 28.506 C 212.855 28.168, 211 28.361, 211 29.055 C 211 30.218, 226.710 37.944, 234 40.366 C 236.475 41.189, 241.425 42.609, 245 43.523 C 252.350 45.401, 265.490 49.545, 268.500 50.933 C 269.600 51.440, 275.225 53.945, 281 56.499 C 291.639 61.204, 295.544 63.206, 313.500 73.164 C 331.821 83.325, 345.188 90.002, 346.092 89.443 C 348.760 87.794, 335.824 71.457, 321.915 58.910 C 305.969 44.526, 298.795 40.107, 281.500 34.016 C 259.958 26.431, 253.409 25.537, 234.500 27.607 M 142.246 55.677 C 135.292 59.727, 127.692 67.351, 118.587 79.413 C 109.734 91.141, 102.720 98.258, 92.442 105.943 C 89.174 108.386, 84.108 112.177, 81.184 114.366 C 70.365 122.465, 61.538 133.593, 52.604 150.399 C 49.729 155.807, 49.220 159.329, 51.385 158.823 C 52.147 158.645, 58.560 153.493, 65.635 147.373 C 72.711 141.254, 82.117 133.154, 86.538 129.373 C 94.478 122.584, 108.251 108.480, 121.117 93.965 C 130.665 83.194, 146.430 60.405, 147.553 55.750 C 148.347 52.460, 147.784 52.452, 142.246 55.677 M 147.212 208.555 C 138.326 210.947, 126.840 218.101, 123.084 223.582 C 119.698 228.524, 117.493 239, 119.840 239 C 120.302 239, 124.593 236.807, 129.375 234.126 C 141.872 227.121, 147.531 225.500, 159.500 225.500 L 169.500 225.500 179.039 230.624 C 191.001 237.050, 194.430 237.934, 196.001 234.998 C 196.985 233.160, 196.583 232.129, 193.064 227.468 C 185.293 217.177, 178.375 211.894, 168.661 208.837 C 161.789 206.675, 154.550 206.580, 147.212 208.555 M 87.199 242.427 C 83.171 247.013, 79.671 253.106, 76.817 260.500 C 74.838 265.625, 74.500 268.324, 74.500 279 C 74.500 288.304, 74.882 292.139, 75.994 294 C 77.413 296.376, 77.518 296.052, 78.103 287.500 C 79.174 271.866, 82.438 258.387, 88.123 246.123 C 89.748 242.615, 90.896 239.563, 90.672 239.339 C 90.449 239.116, 88.886 240.505, 87.199 242.427 M 162.577 241.250 C 162.323 242.488, 161.844 245.188, 161.512 247.250 C 160.835 251.463, 159.636 251.844, 156 249 C 154.625 247.924, 152.994 247.034, 152.375 247.022 C 151.247 247, 150 251.389, 150 255.384 C 150 256.558, 149.093 258.085, 147.985 258.777 C 146.328 259.812, 145.424 259.753, 142.895 258.446 C 138.563 256.206, 137 257.149, 137 262 C 137 266.795, 135.592 267.681, 130.590 266.030 C 128.039 265.188, 126.546 265.173, 125.049 265.974 C 122.261 267.466, 122.463 268.548, 126.145 271.838 L 129.290 274.649 126.603 279.234 C 123.924 283.805, 123.771 288.123, 126.234 289.645 C 126.791 289.989, 130.524 286.864, 134.529 282.700 C 142.032 274.899, 151.664 268.726, 152.437 271.223 C 152.655 271.925, 153.779 275.746, 154.934 279.712 C 158.222 291.001, 164.272 294.453, 172.982 290.009 C 179.611 286.627, 184 278.511, 184 269.634 C 184 265.455, 184.650 265.271, 189.919 267.959 C 194.915 270.508, 201.474 277.049, 204.002 282.004 C 207.146 288.167, 212.158 289.942, 214.139 285.595 C 215.069 283.554, 214.692 282.169, 211.651 276.440 L 208.067 269.691 211.033 265.295 C 212.665 262.878, 214 260.697, 214 260.450 C 214 260.202, 212.907 260, 211.571 260 C 208.376 260, 206.939 258.432, 203.425 251.117 C 201.816 247.767, 200.201 245.020, 199.835 245.013 C 199.468 245.006, 196.658 247.588, 193.588 250.750 C 187.319 257.208, 187.133 257.162, 184.524 248.500 C 182.115 240.501, 181.502 240.096, 179.057 244.889 C 177.881 247.194, 175.804 249.588, 174.442 250.208 C 171.590 251.508, 170.488 250.474, 167.026 243.250 C 164.763 238.527, 163.272 237.857, 162.577 241.250 M 199.097 259.383 C 198.192 260.474, 198.290 261.148, 199.537 262.394 C 202.663 265.520, 204.345 263.356, 201.600 259.739 C 200.466 258.244, 200.087 258.191, 199.097 259.383 M 242.640 298.250 C 239.102 303.910, 235.519 332.702, 236.261 349.500 C 236.827 362.314, 238.314 367.837, 243.331 375.750 C 245.602 379.332, 246.538 380, 249.290 380 C 255.434 380, 263.412 372.832, 265.584 365.360 C 267.235 359.681, 267.287 360.053, 262.296 342 C 258.783 329.291, 258.076 326.831, 253.759 312.285 C 251.478 304.601, 246.792 296, 244.887 296 C 244.425 296, 243.413 297.012, 242.640 298.250 M 100.651 347.750 C 101.076 350.363, 101.399 356.327, 101.368 361.004 C 101.271 375.664, 96.140 383.969, 82.815 391.032 C 68.286 398.734, 53 415.956, 53 424.623 C 53 433.364, 57.196 438.336, 67.088 441.316 C 72.711 443.011, 85 443.649, 85 442.247 C 85 441.833, 84.080 438.345, 82.956 434.497 C 77.370 415.372, 87.198 395.032, 107.966 382.736 C 119.191 376.091, 120.801 368.904, 113.628 357.470 C 108.241 348.883, 103.238 343, 101.323 343 C 100.157 343, 100.027 343.918, 100.651 347.750 M 288 392.720 C 287.175 393.029, 284.367 395.257, 281.759 397.672 C 276.063 402.948, 271.545 404.988, 257.985 408.407 C 246.049 411.417, 238.785 411.662, 230.460 409.332 C 227.182 408.415, 222.925 407.628, 221 407.582 C 217.651 407.504, 217.500 407.651, 217.500 411 C 217.500 414.188, 217.932 414.714, 222.351 416.905 C 226.660 419.041, 228.613 419.320, 239.851 419.402 C 252.016 419.492, 252.921 419.350, 263.500 415.696 C 274.834 411.782, 285.823 406.360, 289.721 402.758 C 292.830 399.885, 294.691 394.052, 292.867 392.896 C 291.343 391.931, 290.215 391.890, 288 392.720" stroke="none" fill="#000000" fill-rule="evenodd"/><path d="M -0 259.502 L -0 519.004 259.750 518.752 L 519.500 518.500 519.752 259.250 L 520.004 0 260.002 0 L 0 0 -0 259.502 M 0.492 260 C 0.492 402.725, 0.608 461.112, 0.750 389.750 C 0.892 318.387, 0.892 201.612, 0.750 130.250 C 0.608 58.887, 0.492 117.275, 0.492 260 M 200.500 5.607 C 190.835 6.562, 178.297 9.515, 173.118 12.055 C 170.028 13.571, 164.956 17.101, 161.846 19.900 C 155.374 25.725, 149.745 28.427, 140.784 30.009 C 127.188 32.410, 116.609 36.866, 108.150 43.755 C 105.758 45.703, 100.381 51.618, 96.202 56.899 C 83.376 73.104, 72.310 85.867, 58.105 100.839 C 41.720 118.106, 36.865 125.062, 31.114 139.500 C 28.704 145.550, 23.606 157.450, 19.785 165.944 C 4.799 199.256, 2.397 208.763, 3.479 230.500 C 3.862 238.200, 4.276 252.825, 4.397 263 C 4.586 278.759, 4.927 282.389, 6.697 287.500 C 9.651 296.031, 11.845 300.558, 16.731 308.209 C 23.265 318.440, 23.716 321.769, 21.561 343.908 C 19.298 367.166, 19.705 378.718, 23.008 385 C 25.227 389.218, 25.379 390.595, 25.438 407 C 25.496 423.364, 25.672 424.972, 28.155 431.764 C 33.495 446.376, 43.102 457.438, 57.500 465.551 C 66.566 470.660, 72.784 469.531, 92.500 459.198 L 99.500 455.529 128.500 455.432 C 162.451 455.317, 169.901 454.388, 174.262 449.720 C 175.800 448.073, 177.187 446.900, 177.343 447.113 C 187.648 461.135, 199.578 469.037, 216.517 473.060 C 223.266 474.663, 228.508 475.106, 240.812 475.113 C 264.493 475.127, 278.640 471.520, 291.215 462.263 L 297.279 457.799 308.389 461.796 C 314.500 463.995, 322.650 466.582, 326.500 467.546 C 330.350 468.509, 338.825 472.031, 345.333 475.371 C 355.653 480.668, 358.019 481.492, 363.842 481.821 L 370.517 482.198 375.841 475.903 C 381.982 468.642, 384.855 463.323, 387.944 453.500 C 389.155 449.650, 391.452 443.701, 393.049 440.280 C 401.099 423.034, 397.886 401.964, 384.751 385.855 C 378.917 378.700, 376.529 373.997, 374.074 364.823 C 371.737 356.094, 370.424 345.983, 371.635 346.042 C 372.111 346.066, 373.431 347.528, 374.569 349.292 C 381.792 360.492, 386.647 366.636, 395.500 375.776 C 401 381.454, 406.286 387.628, 407.247 389.497 C 408.207 391.365, 410.214 397.531, 411.706 403.197 C 414.118 412.358, 414.423 415.331, 414.459 430.021 C 414.498 445.814, 414.387 446.762, 411.946 451.511 C 410.177 454.952, 407.792 457.557, 404.186 459.989 C 397.752 464.328, 394.998 469.451, 395.006 477.066 C 395.013 484.593, 396.587 489.529, 399.784 492.052 C 405.796 496.796, 420.153 492.382, 430.814 482.512 C 438.713 475.198, 441 470.292, 441 460.655 C 441 454.557, 441.722 450.874, 444.603 442.265 C 450.975 423.232, 451.346 402.128, 445.580 386.808 C 443.285 380.711, 441.808 377.325, 434.460 361.317 C 430.446 352.574, 424.950 344.972, 415.286 334.797 C 405.527 324.524, 403.700 320.223, 404.110 308.500 C 404.969 283.942, 402.912 267.623, 397.412 255.349 C 396.635 253.616, 396 251.948, 396 251.643 C 396 251.338, 394.730 248.931, 393.179 246.294 C 391.627 243.657, 389.399 237.969, 388.228 233.653 C 386.704 228.033, 385.089 224.628, 382.537 221.653 C 380.577 219.369, 375.648 213.450, 371.583 208.500 C 362.796 197.800, 351.604 186.600, 344 180.897 C 340.975 178.628, 332.650 173.289, 325.500 169.033 C 318.350 164.777, 302.150 154.790, 289.500 146.840 C 276.850 138.889, 262.450 129.992, 257.500 127.068 C 240.118 116.800, 233.659 111.864, 225 102.232 C 220.325 97.032, 214.888 91.693, 212.918 90.367 C 208.770 87.576, 203 85.664, 203 87.081 C 203 88.442, 213.798 108.694, 217.353 114 C 229.040 131.444, 240.195 143.803, 253.021 153.516 C 262.132 160.416, 284.185 180.106, 284.788 181.879 C 284.946 182.345, 283.596 183.318, 281.788 184.042 C 279.979 184.765, 276.879 186.612, 274.898 188.146 C 270.764 191.346, 261.863 203.796, 258.867 210.568 C 256.055 216.925, 256.249 228, 259.173 228 C 259.744 228, 263.570 224.864, 267.674 221.031 C 280.662 208.902, 292.729 202.963, 304.225 203.044 C 315.965 203.126, 324.861 208.085, 340.029 223 C 352.368 235.134, 353.522 237.294, 349.509 240.746 C 347.776 242.237, 345.789 242.997, 344.130 242.805 C 341.882 242.544, 341.532 242.064, 341.722 239.500 C 341.844 237.850, 342.062 234.821, 342.205 232.768 C 342.366 230.460, 341.884 228.456, 340.943 227.514 C 339.579 226.151, 339.132 226.618, 336.668 231.987 C 334.656 236.371, 333.252 238.150, 331.445 238.603 C 328.248 239.405, 326.604 237.959, 325.134 233.054 C 324.480 230.870, 323.548 228.839, 323.063 228.539 C 321.399 227.510, 318.983 229.222, 318.372 231.860 C 317.363 236.224, 315.123 239, 312.609 239 C 310.596 239, 310.025 238.149, 308.580 233 C 306.744 226.457, 305.702 225.873, 301.610 229.092 C 298.364 231.646, 296.005 237.004, 295.985 241.872 C 295.976 243.867, 295.512 246.175, 294.953 247 C 294.112 248.243, 293.275 247.749, 290.081 244.122 C 285.050 238.410, 283.823 239.238, 284.616 247.810 C 285.147 253.553, 284.956 254.844, 283.262 256.931 C 281.435 259.181, 281.055 259.265, 278.144 258.060 C 274.811 256.679, 274.161 254.435, 276.065 250.879 C 278.184 246.919, 276.295 246.739, 272.128 250.503 C 267.915 254.310, 265.948 257.252, 264.514 261.894 C 263.781 264.264, 263.825 264.281, 269.044 263.589 C 272.912 263.075, 274.534 263.237, 275.142 264.195 C 275.597 264.913, 275.976 268.961, 275.985 273.191 C 275.993 277.527, 276.464 281.169, 277.063 281.539 C 278.830 282.631, 281.632 279.236, 283.940 273.205 C 286.362 266.875, 289.450 263, 292.075 263 C 293.324 263, 294.139 264.410, 295.026 268.108 C 296.511 274.298, 300.906 279.604, 305.629 280.908 C 310.790 282.333, 318.180 279.820, 322.999 275.001 C 328.407 269.593, 328.987 265.486, 326.410 250.830 L 325.764 247.160 330.120 248.138 C 336.851 249.651, 342.054 252.283, 347.313 256.836 C 351.439 260.409, 352.420 260.846, 354.190 259.898 C 356.070 258.892, 356.195 258.207, 355.583 252.237 C 354.995 246.499, 355.097 245.836, 356.401 246.918 C 357.220 247.598, 358.656 250.460, 359.592 253.278 C 361.015 257.561, 361.196 260.796, 360.696 272.982 C 360.022 289.406, 361.261 310.040, 363.551 320.500 C 364.996 327.104, 364.972 327.840, 363.115 333.500 C 360.746 340.722, 355.157 356.196, 351.717 365.057 C 350.341 368.601, 347.974 374.875, 346.457 379 C 341.731 391.852, 336.071 402.048, 326.617 414.737 C 321.603 421.468, 315.396 429.847, 312.824 433.358 C 304.002 445.400, 284.576 458.485, 269.500 462.540 C 259.976 465.102, 247.943 465.459, 234.480 463.577 C 208.922 460.006, 197.630 455.918, 190.638 447.704 C 188.362 445.030, 184.020 440.066, 180.990 436.671 C 170.686 425.131, 156.324 407.519, 152.309 401.500 C 147.303 393.995, 127.539 355.535, 122.208 342.926 C 114.052 323.632, 108.069 298.529, 105.535 272.972 C 105.180 269.381, 105.385 256.781, 105.991 244.972 C 107.383 217.863, 107.309 218.041, 124.081 201.500 C 140.520 185.287, 159.595 159.721, 166.410 144.768 C 173.934 128.258, 177.219 112.759, 178.550 87.500 L 179.235 74.500 176.703 76.844 C 175.311 78.133, 170.267 86.683, 165.495 95.844 C 156.294 113.508, 144.536 131.862, 134.989 143.464 C 129.299 150.378, 96.240 183.528, 82.500 196.097 C 70.582 206.999, 66.499 212.346, 61.710 223.327 C 51.465 246.818, 49.606 254.637, 49.547 274.500 L 49.500 290.500 57.149 306.500 C 61.356 315.300, 65.822 325.444, 67.073 329.042 L 69.348 335.584 66.964 340.357 C 64.205 345.882, 59.178 352.025, 54.955 355.032 L 52.011 357.128 52.627 346.814 C 53.023 340.188, 52.829 334.982, 52.084 332.254 C 51.447 329.918, 47.053 322.268, 42.321 315.254 C 32.027 299.995, 28.290 292.409, 26.864 283.876 C 25.560 276.074, 26.376 258.950, 28.556 248.348 C 31.041 236.266, 40.482 212.444, 45.736 205 C 49.196 200.097, 79.624 171.392, 86.500 166.543 C 97.636 158.692, 101.179 155.455, 113.973 141.449 C 128.339 125.722, 131.184 122.080, 138.224 110.406 C 146.523 96.645, 152.127 84.558, 154.057 76.256 C 155.532 69.909, 155.664 67.065, 154.871 58.640 C 154.187 51.368, 154.246 47.821, 155.084 45.797 C 155.721 44.259, 156.526 42.992, 156.871 42.983 C 157.217 42.973, 160.641 42.300, 164.481 41.487 C 169.705 40.380, 173.184 38.821, 178.301 35.293 L 185.139 30.577 189.723 33.009 C 195.060 35.840, 199.112 41.011, 201.961 48.626 C 205.567 58.263, 208.699 63.444, 213.803 68.219 C 218.267 72.395, 221.510 74.298, 230 77.726 C 231.375 78.281, 234.750 80.749, 237.500 83.210 C 244.622 89.584, 281.626 116.759, 300.500 129.477 C 329.636 149.109, 350.376 164.691, 362.355 175.949 C 377.575 190.252, 394.201 211.775, 402.178 227.500 C 408.055 239.086, 410.692 248.718, 413.521 268.924 C 415.500 283.064, 418.193 294.555, 422.165 305.807 C 428.110 322.651, 432.784 331.124, 445.541 348.185 C 454.384 360.011, 458.368 368.180, 460.555 378.973 C 461.984 386.028, 462.066 389.197, 461.142 401.832 C 460.553 409.899, 459.777 425.480, 459.418 436.456 C 458.709 458.165, 457.921 462.005, 452.895 468.273 C 447.281 475.273, 443.996 482.724, 444.044 488.352 C 444.147 500.567, 446.952 506, 453.156 506 C 456.041 506, 459.306 508.519, 461.563 512.487 C 462.544 514.209, 462.840 514.077, 465.346 510.791 C 468.165 507.095, 470.222 500.565, 473.942 483.500 C 475.141 478, 476.325 472.600, 476.574 471.500 C 477.729 466.397, 482.353 438.874, 484.554 424 C 487.403 404.750, 487.801 384.894, 485.550 374.315 C 481.643 355.953, 471.578 335.249, 457.405 316.416 C 454.385 312.405, 450.102 305.832, 447.887 301.811 C 443.930 294.628, 438.791 278.861, 437.519 270 C 437.164 267.525, 436.192 262.350, 435.359 258.500 C 425.291 211.960, 411.126 187.539, 374 152.712 C 360.812 140.341, 353.383 134.862, 327.253 118.235 C 309.643 107.028, 304.782 104.257, 279.500 91.016 C 270.325 86.210, 263 80.789, 263 78.804 C 263 74.404, 295.336 88.378, 309.985 99.109 C 314.652 102.527, 323.427 107.990, 329.485 111.248 C 344.447 119.296, 362.524 130.318, 370.250 136.104 C 380.346 143.665, 410.249 172.216, 415.907 179.698 C 418.737 183.439, 423.557 191.450, 426.618 197.500 C 429.678 203.550, 432.523 208.950, 432.939 209.500 C 435.314 212.641, 443.632 234.971, 446.995 247.236 C 454.631 275.087, 461.571 293.077, 474.462 318.434 C 478.638 326.648, 482.935 336.323, 484.011 339.934 C 486.919 349.688, 493.777 395.198, 495.069 413.310 C 496.736 436.669, 495.056 448.657, 487.590 466.701 C 484.921 473.151, 480.397 487.151, 477.633 497.512 C 476.415 502.082, 476.272 504.402, 477.040 507.182 C 478.420 512.180, 481.241 515.505, 483.398 514.677 C 486.664 513.424, 498.757 485.524, 506.664 461 C 509.616 451.844, 512.878 435.237, 513.440 426.500 C 513.759 421.550, 514.726 407.278, 515.590 394.785 C 517.048 373.689, 517.039 371.088, 515.456 358.285 C 514.228 348.350, 513.785 337.658, 513.871 320 C 514.028 287.598, 513.104 284.213, 499.926 268.915 C 491.273 258.868, 490.148 257.114, 480.664 238.893 C 473.625 225.368, 468.066 209.622, 465.521 196 C 465.162 194.075, 463.508 188, 461.847 182.500 C 453.447 154.691, 451.052 149.854, 440.556 139.500 C 429.576 128.668, 409.983 113.060, 394.378 102.714 C 378.660 92.293, 372.777 87.127, 365.287 77.170 C 348.342 54.644, 334.493 40.738, 315.754 27.432 C 302.496 18.018, 293.198 13.254, 283 10.649 C 266.135 6.342, 260.885 5.807, 232.500 5.507 C 217.100 5.345, 202.700 5.389, 200.500 5.607 M 234.500 27.607 C 227.350 28.390, 219.137 28.794, 216.250 28.506 C 212.855 28.168, 211 28.361, 211 29.055 C 211 30.218, 226.710 37.944, 234 40.366 C 236.475 41.189, 241.425 42.609, 245 43.523 C 252.350 45.401, 265.490 49.545, 268.500 50.933 C 269.600 51.440, 275.225 53.945, 281 56.499 C 291.639 61.204, 295.544 63.206, 313.500 73.164 C 331.821 83.325, 345.188 90.002, 346.092 89.443 C 348.760 87.794, 335.824 71.457, 321.915 58.910 C 305.969 44.526, 298.795 40.107, 281.500 34.016 C 259.958 26.431, 253.409 25.537, 234.500 27.607 M 142.246 55.677 C 135.292 59.727, 127.692 67.351, 118.587 79.413 C 109.734 91.141, 102.720 98.258, 92.442 105.943 C 89.174 108.386, 84.108 112.177, 81.184 114.366 C 70.365 122.465, 61.538 133.593, 52.604 150.399 C 49.729 155.807, 49.220 159.329, 51.385 158.823 C 52.147 158.645, 58.560 153.493, 65.635 147.373 C 72.711 141.254, 82.117 133.154, 86.538 129.373 C 94.478 122.584, 108.251 108.480, 121.117 93.965 C 130.665 83.194, 146.430 60.405, 147.553 55.750 C 148.347 52.460, 147.784 52.452, 142.246 55.677 M 147.212 208.555 C 138.326 210.947, 126.840 218.101, 123.084 223.582 C 119.698 228.524, 117.493 239, 119.840 239 C 120.302 239, 124.593 236.807, 129.375 234.126 C 141.872 227.121, 147.531 225.500, 159.500 225.500 L 169.500 225.500 179.039 230.624 C 191.001 237.050, 194.430 237.934, 196.001 234.998 C 196.985 233.160, 196.583 232.129, 193.064 227.468 C 185.293 217.177, 178.375 211.894, 168.661 208.837 C 161.789 206.675, 154.550 206.580, 147.212 208.555 M 87.199 242.427 C 83.171 247.013, 79.671 253.106, 76.817 260.500 C 74.838 265.625, 74.500 268.324, 74.500 279 C 74.500 288.304, 74.882 292.139, 75.994 294 C 77.413 296.376, 77.518 296.052, 78.103 287.500 C 79.174 271.866, 82.438 258.387, 88.123 246.123 C 89.748 242.615, 90.896 239.563, 90.672 239.339 C 90.449 239.116, 88.886 240.505, 87.199 242.427 M 162.577 241.250 C 162.323 242.488, 161.844 245.188, 161.512 247.250 C 160.835 251.463, 159.636 251.844, 156 249 C 154.625 247.924, 152.994 247.034, 152.375 247.022 C 151.247 247, 150 251.389, 150 255.384 C 150 256.558, 149.093 258.085, 147.985 258.777 C 146.328 259.812, 145.424 259.753, 142.895 258.446 C 138.563 256.206, 137 257.149, 137 262 C 137 266.795, 135.592 267.681, 130.590 266.030 C 128.039 265.188, 126.546 265.173, 125.049 265.974 C 122.261 267.466, 122.463 268.548, 126.145 271.838 L 129.290 274.649 126.603 279.234 C 123.924 283.805, 123.771 288.123, 126.234 289.645 C 126.791 289.989, 130.524 286.864, 134.529 282.700 C 142.032 274.899, 151.664 268.726, 152.437 271.223 C 152.655 271.925, 153.779 275.746, 154.934 279.712 C 158.222 291.001, 164.272 294.453, 172.982 290.009 C 179.611 286.627, 184 278.511, 184 269.634 C 184 265.455, 184.650 265.271, 189.919 267.959 C 194.915 270.508, 201.474 277.049, 204.002 282.004 C 207.146 288.167, 212.158 289.942, 214.139 285.595 C 215.069 283.554, 214.692 282.169, 211.651 276.440 L 208.067 269.691 211.033 265.295 C 212.665 262.878, 214 260.697, 214 260.450 C 214 260.202, 212.907 260, 211.571 260 C 208.376 260, 206.939 258.432, 203.425 251.117 C 201.816 247.767, 200.201 245.020, 199.835 245.013 C 199.468 245.006, 196.658 247.588, 193.588 250.750 C 187.319 257.208, 187.133 257.162, 184.524 248.500 C 182.115 240.501, 181.502 240.096, 179.057 244.889 C 177.881 247.194, 175.804 249.588, 174.442 250.208 C 171.590 251.508, 170.488 250.474, 167.026 243.250 C 164.763 238.527, 163.272 237.857, 162.577 241.250 M 199.097 259.383 C 198.192 260.474, 198.290 261.148, 199.537 262.394 C 202.663 265.520, 204.345 263.356, 201.600 259.739 C 200.466 258.244, 200.087 258.191, 199.097 259.383 M 242.640 298.250 C 239.102 303.910, 235.519 332.702, 236.261 349.500 C 236.827 362.314, 238.314 367.837, 243.331 375.750 C 245.602 379.332, 246.538 380, 249.290 380 C 255.434 380, 263.412 372.832, 265.584 365.360 C 267.235 359.681, 267.287 360.053, 262.296 342 C 258.783 329.291, 258.076 326.831, 253.759 312.285 C 251.478 304.601, 246.792 296, 244.887 296 C 244.425 296, 243.413 297.012, 242.640 298.250 M 100.651 347.750 C 101.076 350.363, 101.399 356.327, 101.368 361.004 C 101.271 375.664, 96.140 383.969, 82.815 391.032 C 68.286 398.734, 53 415.956, 53 424.623 C 53 433.364, 57.196 438.336, 67.088 441.316 C 72.711 443.011, 85 443.649, 85 442.247 C 85 441.833, 84.080 438.345, 82.956 434.497 C 77.370 415.372, 87.198 395.032, 107.966 382.736 C 119.191 376.091, 120.801 368.904, 113.628 357.470 C 108.241 348.883, 103.238 343, 101.323 343 C 100.157 343, 100.027 343.918, 100.651 347.750 M 288 392.720 C 287.175 393.029, 284.367 395.257, 281.759 397.672 C 276.063 402.948, 271.545 404.988, 257.985 408.407 C 246.049 411.417, 238.785 411.662, 230.460 409.332 C 227.182 408.415, 222.925 407.628, 221 407.582 C 217.651 407.504, 217.500 407.651, 217.500 411 C 217.500 414.188, 217.932 414.714, 222.351 416.905 C 226.660 419.041, 228.613 419.320, 239.851 419.402 C 252.016 419.492, 252.921 419.350, 263.500 415.696 C 274.834 411.782, 285.823 406.360, 289.721 402.758 C 292.830 399.885, 294.691 394.052, 292.867 392.896 C 291.343 391.931, 290.215 391.890, 288 392.720" stroke="none" fill="#f9f9f9" fill-rule="evenodd"/></svg>