<svg xmlns="http://www.w3.org/2000/svg" width="498" height="572" viewBox="0 0 498 572" version="1.1"><path d="M 259.782 21.397 C 251.868 24.196, 243.528 28.711, 236.293 34.113 C 231.073 38.010, 227.711 38.959, 226.436 36.896 C 226.060 36.289, 223.896 34.948, 221.627 33.918 C 211.898 29.500, 193.671 33.116, 182.142 41.751 C 177.809 44.997, 171.924 54.137, 168.996 62.170 C 167.727 65.652, 166.339 68.898, 165.911 69.384 C 165.473 69.881, 161.277 68.965, 156.316 67.290 C 144.126 63.172, 138.859 62, 132.534 62 C 123.996 62, 112.090 65.546, 105.500 70.052 C 100.122 73.730, 98.005 76.228, 93.187 84.588 C 89.023 91.811, 83.457 97.678, 78.180 100.407 C 73.840 102.651, 66.812 104.969, 64.297 104.985 C 61.961 105.001, 59.071 106.027, 52.379 109.217 C 37.579 116.273, 28.178 134.288, 30.995 150.199 C 32.644 159.519, 33.907 163.471, 38.681 174.256 C 41.057 179.622, 43 184.681, 43 185.499 C 43 186.316, 41.562 188.226, 39.804 189.742 C 30.264 197.973, 27.782 200.748, 25.027 206.262 C 21.053 214.215, 20.794 223.871, 24.351 231.500 C 27.300 237.826, 35.010 246.290, 43.062 252.039 C 55.945 261.239, 69.113 272.158, 68.712 273.308 C 68.248 274.642, 61.649 274.454, 56 272.946 C 50.771 271.550, 36.139 271.828, 30.881 273.423 C 15.285 278.157, 6.635 288.208, 3.354 305.410 C 1.616 314.525, 1.651 317.943, 3.569 326.500 C 4.432 330.350, 5.529 336.875, 6.006 341 C 7.193 351.259, 8.181 354.683, 12.040 361.925 C 21.107 378.935, 45.892 392, 69.095 392 C 73.921 392, 78.942 392.408, 80.253 392.906 C 81.925 393.542, 83.734 396.215, 86.318 401.867 C 88.343 406.298, 90 410.396, 90 410.975 C 90 411.554, 90.423 412.809, 90.940 413.764 C 91.457 414.719, 94.800 423.150, 98.368 432.500 C 101.937 441.850, 106.937 454.900, 109.480 461.500 C 121.661 493.116, 142.478 518.646, 167.708 532.912 C 176.611 537.945, 185.380 541.466, 208.500 549.288 L 226.500 555.379 242 555.237 C 285.853 554.837, 314.700 547.814, 340.500 531.254 C 357.602 520.277, 377.363 494.452, 388.518 468.500 C 389.464 466.300, 390.815 463.150, 391.520 461.500 C 396.934 448.841, 409.121 416.186, 410.553 410.500 C 411.523 406.650, 412.647 403.121, 413.050 402.658 C 413.454 402.194, 415.867 402.978, 418.412 404.399 C 430.233 410.999, 434.886 409.185, 455.358 390 C 470.832 375.498, 484.610 354.715, 489.879 337.929 C 491.205 333.704, 491.376 317.086, 490.128 313.797 C 489.648 312.534, 488.716 309.700, 488.056 307.500 C 486.478 302.236, 483.262 293.775, 480.347 287.220 C 479.056 284.317, 478 281.727, 478 281.467 C 478 281.206, 475.993 276.782, 473.539 271.635 C 469.271 262.683, 468.839 262.157, 463.561 259.487 C 458.641 256.997, 456.988 256.696, 448.272 256.699 C 439.689 256.703, 437.866 257.025, 433.287 259.350 C 430.420 260.805, 426.535 263.347, 424.655 264.998 C 421.031 268.180, 419.001 268.808, 418.998 266.750 C 418.997 266.063, 420.865 261.067, 423.150 255.649 C 427.114 246.250, 427.508 245.711, 431.735 243.899 C 434.172 242.855, 436.577 242, 437.079 242 C 437.581 242, 441.446 240.404, 445.669 238.454 C 470.899 226.800, 483.711 191.133, 470.663 168.869 C 467.180 162.925, 463.833 159.906, 455.500 155.194 L 448.500 151.235 448.444 134.868 C 448.390 119.223, 448.272 118.279, 445.777 113.500 C 442.416 107.062, 436.923 101.529, 430.558 98.169 C 425.815 95.666, 424.748 95.511, 413.439 95.670 L 401.377 95.840 400.114 89.670 C 396.492 71.983, 386.219 56.475, 373.500 49.494 C 369.065 47.060, 367.470 46.753, 359.393 46.777 C 354.385 46.792, 349.435 47.252, 348.393 47.800 C 337.831 53.359, 321.427 60.989, 320.131 60.947 C 319.075 60.912, 316.600 57.062, 313.112 50.030 C 306.211 36.117, 298.911 27.777, 289.407 22.952 C 280.309 18.332, 269.978 17.790, 259.782 21.397 M 258 34.264 C 255.525 35.494, 249.513 40.391, 244.641 45.147 C 233.024 56.485, 232.631 56.559, 216.876 50.381 C 207.294 46.624, 201.357 46.117, 195.516 48.558 C 187.872 51.752, 183.144 59.255, 180.745 72.004 C 179.102 80.737, 174.355 92, 172.318 92 C 171.544 92, 167.504 89.702, 163.340 86.892 C 140.193 71.273, 124.812 69.446, 111.899 80.784 C 108.161 84.066, 102.148 95.170, 99.494 103.694 C 98.605 106.550, 96.876 110.375, 95.652 112.194 L 93.428 115.500 79.964 116.071 C 64.862 116.712, 63.052 117.151, 56.534 121.755 C 47.180 128.364, 42.735 141.267, 46.141 151.929 C 50.106 164.344, 55.317 174.561, 59.400 177.927 C 61.758 179.870, 64 184.404, 64 187.228 C 64 190.989, 61.325 193.766, 54.708 196.869 C 48.392 199.833, 42.574 204.642, 40.165 208.890 C 39.431 210.185, 38.582 213.648, 38.279 216.584 C 37.552 223.629, 40.946 230.728, 48.377 237.708 C 58.663 247.369, 66.197 250.283, 73.856 247.561 C 78.854 245.786, 79.388 245.972, 81.743 250.313 C 83.121 252.855, 83.590 257.143, 84.057 271.500 C 84.495 284.956, 85.084 290.722, 86.392 294.341 C 88.058 298.951, 88.058 299.358, 86.392 302.841 C 83.418 309.063, 82.912 315.592, 84.518 327 C 88.205 353.187, 90.200 361.344, 96.686 376.741 C 99.588 383.629, 101 388.436, 101 391.426 C 101 402.075, 121.736 455.914, 133.765 476.500 C 145.608 496.766, 165.443 515.550, 185.500 525.496 C 209.862 537.576, 236.395 541.539, 266 537.519 C 272.325 536.660, 281.395 535.549, 286.155 535.049 C 298.512 533.753, 307.364 531.369, 316.226 526.950 C 326.718 521.720, 333.762 516.333, 345 504.947 C 363.235 486.471, 376.057 465.048, 386.264 436 C 389.714 426.183, 390.412 423.716, 394.047 408.500 C 396.861 396.718, 398.259 385.935, 400.141 361.500 C 401.285 346.650, 402.594 331.125, 403.049 327 C 403.504 322.875, 404.332 310.725, 404.888 300 C 407.210 255.245, 407.339 248.332, 406.002 240.320 C 403.807 227.165, 403.438 226.595, 381.499 202.500 C 375.990 196.450, 369.642 189.320, 367.393 186.657 C 363.364 181.886, 363.190 181.801, 355.722 180.963 C 346.647 179.945, 341.281 177.422, 334.351 170.914 L 329.203 166.078 318.851 169.647 C 306.242 173.994, 296.905 174.998, 291.766 172.559 C 288.035 170.789, 278 161.475, 278 159.783 C 278 158.082, 265.181 160.295, 253.429 164.025 C 251.740 164.561, 247.395 165, 243.774 165 C 235.397 165, 230.989 162.742, 222.877 154.293 C 219.553 150.832, 216.025 148, 215.037 148 C 214.049 148, 211.583 150.023, 209.557 152.495 C 201.911 161.827, 191.057 166.525, 182.799 164.079 C 180.435 163.378, 177.719 162.399, 176.764 161.903 C 174.454 160.702, 170.320 160.758, 167.960 162.022 C 166.910 162.584, 163.557 166.169, 160.509 169.989 C 150.549 182.472, 141.436 185.320, 125.051 181.073 C 120.452 179.881, 116.174 179.103, 115.545 179.344 C 114.513 179.740, 112.491 184.507, 106.994 199.500 C 105.986 202.250, 103.548 208.775, 101.578 214 C 97.957 223.597, 97.390 226, 98.743 226 C 99.152 226, 107.364 223.351, 116.993 220.114 C 126.622 216.877, 136.975 213.747, 140 213.160 C 143.025 212.572, 148.316 211.559, 151.757 210.908 C 155.198 210.257, 165.352 209.673, 174.322 209.612 C 189.829 209.505, 190.873 209.622, 195.565 211.991 C 201.659 215.067, 210.942 224.144, 213.471 229.500 C 215.953 234.754, 215.847 241.395, 213.190 247.147 C 206.879 260.812, 197.580 264.768, 174.653 263.543 C 155.564 262.523, 124.780 259.257, 114.352 257.146 C 106.024 255.460, 83.478 240.182, 82.790 235.759 C 81.806 229.420, 87.396 210.280, 95.421 192.517 C 98.937 184.735, 102.785 174.098, 104.472 167.500 C 107.419 155.971, 111.401 153.629, 118.360 159.332 C 125.984 165.579, 129.967 167.367, 136.374 167.419 C 142.169 167.466, 142.309 167.400, 146.874 162.434 C 149.418 159.666, 153.047 154.352, 154.938 150.626 C 158.462 143.679, 161.945 140, 164.996 140 C 165.946 140, 170.564 141.800, 175.259 144 C 191.531 151.626, 199.173 148.846, 207.439 132.294 C 209.418 128.330, 212.029 124.392, 213.241 123.544 C 218.421 119.915, 223.213 122.787, 227.719 132.221 C 233.699 144.740, 240.300 150, 250.030 150 C 253.407 150, 257.357 149.350, 258.935 148.534 C 262.098 146.898, 270 138.355, 270 136.571 C 270 135.941, 271.282 133.889, 272.849 132.012 C 278.246 125.548, 287 128.369, 287 136.573 C 287 141.489, 290.578 150.221, 293.893 153.397 C 295.481 154.918, 298.615 156.575, 300.858 157.079 C 305.993 158.233, 313.273 155.679, 320.370 150.236 C 330.824 142.216, 334.302 140, 336.435 140 C 340.075 140, 342.795 143.856, 347.503 155.691 C 349.258 160.104, 352.592 163, 355.916 163 C 357.009 163, 360.494 162.325, 363.661 161.500 C 375.743 158.353, 377.281 159.224, 381.019 171.325 C 383.498 179.353, 387.756 184.543, 395.406 188.860 C 402.138 192.659, 403.606 194.464, 414.462 212.287 C 424.051 228.028, 424.076 228.048, 430.929 225.859 C 445.111 221.330, 451.662 216.373, 456.358 206.619 C 460.346 198.334, 461.435 191.008, 459.610 184.730 C 457.184 176.385, 452.836 173.049, 439.937 169.632 C 426.451 166.060, 424.973 163.594, 428.500 150.549 C 429.325 147.497, 430.675 142.503, 431.500 139.451 C 434.827 127.143, 432.580 118.380, 425.005 114.123 C 418.420 110.422, 415.675 111.021, 395.278 120.606 C 386.530 124.717, 383.823 124.862, 381.073 121.365 C 378.364 117.922, 378.458 114.514, 381.500 105.807 C 384.823 96.295, 384.873 87.407, 381.641 80.500 C 376.939 70.452, 365.421 62, 356.428 62 C 350.882 62, 346.672 63.994, 329.821 74.603 C 319.397 81.166, 316.815 82.371, 313.051 82.430 C 308.934 82.495, 308.445 82.223, 306.503 78.792 C 305.349 76.753, 303.844 71.578, 303.159 67.292 C 301.572 57.363, 297.989 50.349, 290.747 42.989 C 280.306 32.378, 268.257 29.167, 258 34.264 M 311.446 192.479 C 306.157 194.150, 299.767 197.437, 294.626 201.133 C 286.670 206.852, 272.902 220.298, 271.454 223.764 C 268.255 231.420, 271.059 240.647, 278.345 246.442 C 281.873 249.248, 282.779 249.490, 289.345 249.378 C 293.452 249.307, 300.973 248.109, 307 246.564 C 324.239 242.145, 356.342 236.039, 357.465 236.965 C 359.265 238.447, 372.835 239.122, 377.202 237.946 C 382.465 236.528, 386.661 232.322, 387.553 227.571 C 388.402 223.045, 387.358 220.882, 381.249 214.507 C 377.343 210.431, 361.374 199, 359.586 199 C 359.252 199, 357.071 198.159, 354.739 197.131 C 342.074 191.546, 321.422 189.327, 311.446 192.479 M 319.500 207 C 318.400 207.473, 316.466 207.891, 315.202 207.930 C 313.938 207.968, 311.041 208.900, 308.764 210 C 306.487 211.100, 304.263 212, 303.822 212 C 301.833 212, 289.016 221.157, 286.166 224.615 C 282.514 229.045, 282.164 232.164, 285 235 C 287.475 237.475, 288.997 237.480, 301.500 235.054 C 323.420 230.801, 348.082 227.091, 358.833 226.430 C 371.578 225.645, 373.386 224.514, 368.394 220.448 C 356.631 210.866, 328.505 203.130, 319.500 207 M 161 224.206 C 149.586 225.446, 138.670 227.157, 132.680 228.645 C 122.239 231.239, 110.951 237.493, 112.420 239.870 C 114.922 243.919, 122.215 244.994, 164.807 247.589 C 191.002 249.184, 192.278 249.178, 196.126 247.443 C 204.243 243.783, 204.587 236.473, 196.966 229.589 C 190.846 224.059, 186.890 222.822, 176.500 223.185 C 171.550 223.358, 164.575 223.818, 161 224.206 M 323.786 262.589 C 317.445 264.540, 301.812 275.085, 294.856 282.104 C 289.162 287.848, 282.555 296.968, 280.077 302.500 C 276.227 311.098, 274 317.713, 274 320.555 C 274 323.968, 277.280 329, 279.504 329 C 281.467 329, 284.674 324.101, 290.587 312.071 C 296.122 300.812, 301.327 293.916, 306.191 291.401 C 310.071 289.395, 312 290.218, 312 293.880 C 312 298.039, 315.341 308.266, 317.851 311.791 C 320.402 315.374, 327.704 319, 332.367 319 C 343.980 319, 350.652 310.240, 355.118 289.129 C 355.860 285.625, 357.006 282.551, 357.666 282.298 C 359.154 281.727, 367.468 286.386, 371.500 290.050 C 374.879 293.121, 380.150 296, 382.394 296 C 384.692 296, 387 291.954, 387 287.925 C 387 279.039, 375.031 269.425, 356.622 263.525 C 350.234 261.477, 346.831 261.013, 338.622 261.070 C 332.817 261.110, 326.489 261.758, 323.786 262.589 M 442.500 269.892 C 430.579 272.965, 421.965 285.056, 421.168 299.836 C 420.951 303.871, 421.183 307.583, 421.685 308.085 C 422.234 308.634, 425.708 306.611, 430.420 302.998 C 434.723 299.699, 438.622 297, 439.086 297 C 440.538 297, 442 300.718, 442 304.409 C 442 307.503, 440.990 308.959, 434.002 315.938 C 424.233 325.693, 420.706 331.105, 417.339 341.500 C 414.958 348.853, 414.756 350.832, 414.841 365.963 C 414.942 383.807, 415.759 387.650, 419.663 388.630 C 431.255 391.540, 458.884 367.695, 470.683 344.599 C 480.342 325.692, 478.361 305.352, 464.668 282.828 C 462.217 278.798, 458.702 274.282, 456.856 272.792 C 453.203 269.845, 447.305 268.654, 442.500 269.892 M 138.575 278.998 C 125.523 281.346, 115.567 286.429, 106.250 295.501 C 100.566 301.035, 100 301.962, 100 305.734 C 100 308.015, 100.440 310.154, 100.977 310.486 C 102.278 311.290, 109.572 309.281, 111.205 307.669 C 112.873 306.022, 123.748 298.819, 127 297.207 C 128.375 296.526, 131.255 295.863, 133.400 295.734 L 137.299 295.500 137.079 307.651 C 136.890 318.043, 137.143 320.360, 138.826 323.659 C 144.504 334.788, 164.468 335.577, 172.021 324.970 C 174.470 321.531, 178 312.510, 178 309.691 C 178 306.479, 181.162 308.229, 185.791 314.002 C 193.442 323.545, 195.700 325.593, 199.978 326.875 C 205.123 328.417, 207 327.232, 207 322.443 C 207 317.658, 205.528 314.443, 200.212 307.621 C 188.979 293.207, 179.169 285.743, 165.384 281.120 C 158.260 278.731, 145.621 277.731, 138.575 278.998 M 34.500 284.938 C 20.709 288.311, 14.986 297.664, 15.017 316.785 C 15.049 336.549, 19.621 349.422, 30.546 360.510 C 41.322 371.445, 58.741 377.845, 71.869 375.691 L 77.239 374.809 76.652 370.655 C 76.329 368.370, 75.588 364.475, 75.006 362 C 74.423 359.525, 73.086 351.736, 72.034 344.691 C 70.911 337.173, 69.233 330.048, 67.973 327.443 C 64.463 320.193, 56.516 314.410, 44 309.997 C 37.359 307.656, 32 304.987, 32 304.021 C 32 303.487, 33.462 302.252, 35.250 301.276 C 38.993 299.230, 54.879 298.828, 57.169 300.721 C 57.901 301.326, 60.145 302.128, 62.156 302.504 C 65.110 303.056, 66.215 302.785, 67.906 301.094 C 71.898 297.102, 70.482 292.784, 64.125 289.565 C 54.302 284.591, 43.085 282.839, 34.500 284.938 M 249.802 346.750 C 247.179 349.792, 240.443 360.351, 238.650 364.229 C 231.572 379.541, 228.993 391.348, 229.017 408.338 C 229.039 423.171, 230.895 432.562, 235.235 439.793 C 239.948 447.647, 243.962 450.429, 250.583 450.429 C 257.679 450.429, 259.892 448.243, 264.531 436.654 C 269.438 424.394, 270.653 413.598, 269.192 395.236 C 267.484 373.762, 263.264 357.773, 257.187 349.750 C 253.266 344.574, 252.089 344.096, 249.802 346.750 M 207.255 466.821 C 205.493 467.940, 205.360 472.041, 206.961 475.905 C 208.789 480.319, 227.509 495.389, 236 499.282 C 241.695 501.893, 243.615 502.261, 251.500 502.247 C 270.088 502.215, 308.584 488.523, 317.867 478.642 C 321.944 474.302, 319.971 466, 314.863 466 C 313.858 466, 306.995 468.925, 299.612 472.500 C 292.229 476.075, 285.877 479, 285.496 479 C 285.114 479, 283.384 479.652, 281.651 480.448 C 272.779 484.525, 265.344 486.233, 256.500 486.227 C 245.523 486.218, 239.118 484.064, 227.500 476.474 C 220.807 472.102, 209.815 465.960, 208.783 466.015 C 208.627 466.024, 207.940 466.386, 207.255 466.821" stroke="none" fill="#131313" fill-rule="evenodd"/><path d="M -0 286.002 L -0 572.004 249.250 571.752 L 498.500 571.500 498.752 285.750 L 499.003 0 249.502 0 L 0 0 -0 286.002 M 0.493 286.500 C 0.493 443.800, 0.609 508.001, 0.750 429.169 C 0.891 350.337, 0.891 221.637, 0.750 143.169 C 0.609 64.701, 0.493 129.200, 0.493 286.500 M 259.782 21.397 C 251.868 24.196, 243.528 28.711, 236.293 34.113 C 231.073 38.010, 227.711 38.959, 226.436 36.896 C 226.060 36.289, 223.896 34.948, 221.627 33.918 C 211.898 29.500, 193.671 33.116, 182.142 41.751 C 177.809 44.997, 171.924 54.137, 168.996 62.170 C 167.727 65.652, 166.339 68.898, 165.911 69.384 C 165.473 69.881, 161.277 68.965, 156.316 67.290 C 144.126 63.172, 138.859 62, 132.534 62 C 123.996 62, 112.090 65.546, 105.500 70.052 C 100.122 73.730, 98.005 76.228, 93.187 84.588 C 89.023 91.811, 83.457 97.678, 78.180 100.407 C 73.840 102.651, 66.812 104.969, 64.297 104.985 C 61.961 105.001, 59.071 106.027, 52.379 109.217 C 37.579 116.273, 28.178 134.288, 30.995 150.199 C 32.644 159.519, 33.907 163.471, 38.681 174.256 C 41.057 179.622, 43 184.681, 43 185.499 C 43 186.316, 41.562 188.226, 39.804 189.742 C 30.264 197.973, 27.782 200.748, 25.027 206.262 C 21.053 214.215, 20.794 223.871, 24.351 231.500 C 27.300 237.826, 35.010 246.290, 43.062 252.039 C 55.945 261.239, 69.113 272.158, 68.712 273.308 C 68.248 274.642, 61.649 274.454, 56 272.946 C 50.771 271.550, 36.139 271.828, 30.881 273.423 C 15.285 278.157, 6.635 288.208, 3.354 305.410 C 1.616 314.525, 1.651 317.943, 3.569 326.500 C 4.432 330.350, 5.529 336.875, 6.006 341 C 7.193 351.259, 8.181 354.683, 12.040 361.925 C 21.107 378.935, 45.892 392, 69.095 392 C 73.921 392, 78.942 392.408, 80.253 392.906 C 81.925 393.542, 83.734 396.215, 86.318 401.867 C 88.343 406.298, 90 410.396, 90 410.975 C 90 411.554, 90.423 412.809, 90.940 413.764 C 91.457 414.719, 94.800 423.150, 98.368 432.500 C 101.937 441.850, 106.937 454.900, 109.480 461.500 C 121.661 493.116, 142.478 518.646, 167.708 532.912 C 176.611 537.945, 185.380 541.466, 208.500 549.288 L 226.500 555.379 242 555.237 C 285.853 554.837, 314.700 547.814, 340.500 531.254 C 357.602 520.277, 377.363 494.452, 388.518 468.500 C 389.464 466.300, 390.815 463.150, 391.520 461.500 C 396.934 448.841, 409.121 416.186, 410.553 410.500 C 411.523 406.650, 412.647 403.121, 413.050 402.658 C 413.454 402.194, 415.867 402.978, 418.412 404.399 C 430.233 410.999, 434.886 409.185, 455.358 390 C 470.832 375.498, 484.610 354.715, 489.879 337.929 C 491.205 333.704, 491.376 317.086, 490.128 313.797 C 489.648 312.534, 488.716 309.700, 488.056 307.500 C 486.478 302.236, 483.262 293.775, 480.347 287.220 C 479.056 284.317, 478 281.727, 478 281.467 C 478 281.206, 475.993 276.782, 473.539 271.635 C 469.271 262.683, 468.839 262.157, 463.561 259.487 C 458.641 256.997, 456.988 256.696, 448.272 256.699 C 439.689 256.703, 437.866 257.025, 433.287 259.350 C 430.420 260.805, 426.535 263.347, 424.655 264.998 C 421.031 268.180, 419.001 268.808, 418.998 266.750 C 418.997 266.063, 420.865 261.067, 423.150 255.649 C 427.114 246.250, 427.508 245.711, 431.735 243.899 C 434.172 242.855, 436.577 242, 437.079 242 C 437.581 242, 441.446 240.404, 445.669 238.454 C 470.899 226.800, 483.711 191.133, 470.663 168.869 C 467.180 162.925, 463.833 159.906, 455.500 155.194 L 448.500 151.235 448.444 134.868 C 448.390 119.223, 448.272 118.279, 445.777 113.500 C 442.416 107.062, 436.923 101.529, 430.558 98.169 C 425.815 95.666, 424.748 95.511, 413.439 95.670 L 401.377 95.840 400.114 89.670 C 396.492 71.983, 386.219 56.475, 373.500 49.494 C 369.065 47.060, 367.470 46.753, 359.393 46.777 C 354.385 46.792, 349.435 47.252, 348.393 47.800 C 337.831 53.359, 321.427 60.989, 320.131 60.947 C 319.075 60.912, 316.600 57.062, 313.112 50.030 C 306.211 36.117, 298.911 27.777, 289.407 22.952 C 280.309 18.332, 269.978 17.790, 259.782 21.397 M 258 34.264 C 255.525 35.494, 249.513 40.391, 244.641 45.147 C 233.024 56.485, 232.631 56.559, 216.876 50.381 C 207.294 46.624, 201.357 46.117, 195.516 48.558 C 187.872 51.752, 183.144 59.255, 180.745 72.004 C 179.102 80.737, 174.355 92, 172.318 92 C 171.544 92, 167.504 89.702, 163.340 86.892 C 140.193 71.273, 124.812 69.446, 111.899 80.784 C 108.161 84.066, 102.148 95.170, 99.494 103.694 C 98.605 106.550, 96.876 110.375, 95.652 112.194 L 93.428 115.500 79.964 116.071 C 64.862 116.712, 63.052 117.151, 56.534 121.755 C 47.180 128.364, 42.735 141.267, 46.141 151.929 C 50.106 164.344, 55.317 174.561, 59.400 177.927 C 61.758 179.870, 64 184.404, 64 187.228 C 64 190.989, 61.325 193.766, 54.708 196.869 C 48.392 199.833, 42.574 204.642, 40.165 208.890 C 39.431 210.185, 38.582 213.648, 38.279 216.584 C 37.552 223.629, 40.946 230.728, 48.377 237.708 C 58.663 247.369, 66.197 250.283, 73.856 247.561 C 78.854 245.786, 79.388 245.972, 81.743 250.313 C 83.121 252.855, 83.590 257.143, 84.057 271.500 C 84.495 284.956, 85.084 290.722, 86.392 294.341 C 88.058 298.951, 88.058 299.358, 86.392 302.841 C 83.418 309.063, 82.912 315.592, 84.518 327 C 88.205 353.187, 90.200 361.344, 96.686 376.741 C 99.588 383.629, 101 388.436, 101 391.426 C 101 402.075, 121.736 455.914, 133.765 476.500 C 145.608 496.766, 165.443 515.550, 185.500 525.496 C 209.862 537.576, 236.395 541.539, 266 537.519 C 272.325 536.660, 281.395 535.549, 286.155 535.049 C 298.512 533.753, 307.364 531.369, 316.226 526.950 C 326.718 521.720, 333.762 516.333, 345 504.947 C 363.235 486.471, 376.057 465.048, 386.264 436 C 389.714 426.183, 390.412 423.716, 394.047 408.500 C 396.861 396.718, 398.259 385.935, 400.141 361.500 C 401.285 346.650, 402.594 331.125, 403.049 327 C 403.504 322.875, 404.332 310.725, 404.888 300 C 407.210 255.245, 407.339 248.332, 406.002 240.320 C 403.807 227.165, 403.438 226.595, 381.499 202.500 C 375.990 196.450, 369.642 189.320, 367.393 186.657 C 363.364 181.886, 363.190 181.801, 355.722 180.963 C 346.647 179.945, 341.281 177.422, 334.351 170.914 L 329.203 166.078 318.851 169.647 C 306.242 173.994, 296.905 174.998, 291.766 172.559 C 288.035 170.789, 278 161.475, 278 159.783 C 278 158.082, 265.181 160.295, 253.429 164.025 C 251.740 164.561, 247.395 165, 243.774 165 C 235.397 165, 230.989 162.742, 222.877 154.293 C 219.553 150.832, 216.025 148, 215.037 148 C 214.049 148, 211.583 150.023, 209.557 152.495 C 201.911 161.827, 191.057 166.525, 182.799 164.079 C 180.435 163.378, 177.719 162.399, 176.764 161.903 C 174.454 160.702, 170.320 160.758, 167.960 162.022 C 166.910 162.584, 163.557 166.169, 160.509 169.989 C 150.549 182.472, 141.436 185.320, 125.051 181.073 C 120.452 179.881, 116.174 179.103, 115.545 179.344 C 114.513 179.740, 112.491 184.507, 106.994 199.500 C 105.986 202.250, 103.548 208.775, 101.578 214 C 97.957 223.597, 97.390 226, 98.743 226 C 99.152 226, 107.364 223.351, 116.993 220.114 C 126.622 216.877, 136.975 213.747, 140 213.160 C 143.025 212.572, 148.316 211.559, 151.757 210.908 C 155.198 210.257, 165.352 209.673, 174.322 209.612 C 189.829 209.505, 190.873 209.622, 195.565 211.991 C 201.659 215.067, 210.942 224.144, 213.471 229.500 C 215.953 234.754, 215.847 241.395, 213.190 247.147 C 206.879 260.812, 197.580 264.768, 174.653 263.543 C 155.564 262.523, 124.780 259.257, 114.352 257.146 C 106.024 255.460, 83.478 240.182, 82.790 235.759 C 81.806 229.420, 87.396 210.280, 95.421 192.517 C 98.937 184.735, 102.785 174.098, 104.472 167.500 C 107.419 155.971, 111.401 153.629, 118.360 159.332 C 125.984 165.579, 129.967 167.367, 136.374 167.419 C 142.169 167.466, 142.309 167.400, 146.874 162.434 C 149.418 159.666, 153.047 154.352, 154.938 150.626 C 158.462 143.679, 161.945 140, 164.996 140 C 165.946 140, 170.564 141.800, 175.259 144 C 191.531 151.626, 199.173 148.846, 207.439 132.294 C 209.418 128.330, 212.029 124.392, 213.241 123.544 C 218.421 119.915, 223.213 122.787, 227.719 132.221 C 233.699 144.740, 240.300 150, 250.030 150 C 253.407 150, 257.357 149.350, 258.935 148.534 C 262.098 146.898, 270 138.355, 270 136.571 C 270 135.941, 271.282 133.889, 272.849 132.012 C 278.246 125.548, 287 128.369, 287 136.573 C 287 141.489, 290.578 150.221, 293.893 153.397 C 295.481 154.918, 298.615 156.575, 300.858 157.079 C 305.993 158.233, 313.273 155.679, 320.370 150.236 C 330.824 142.216, 334.302 140, 336.435 140 C 340.075 140, 342.795 143.856, 347.503 155.691 C 349.258 160.104, 352.592 163, 355.916 163 C 357.009 163, 360.494 162.325, 363.661 161.500 C 375.743 158.353, 377.281 159.224, 381.019 171.325 C 383.498 179.353, 387.756 184.543, 395.406 188.860 C 402.138 192.659, 403.606 194.464, 414.462 212.287 C 424.051 228.028, 424.076 228.048, 430.929 225.859 C 445.111 221.330, 451.662 216.373, 456.358 206.619 C 460.346 198.334, 461.435 191.008, 459.610 184.730 C 457.184 176.385, 452.836 173.049, 439.937 169.632 C 426.451 166.060, 424.973 163.594, 428.500 150.549 C 429.325 147.497, 430.675 142.503, 431.500 139.451 C 434.827 127.143, 432.580 118.380, 425.005 114.123 C 418.420 110.422, 415.675 111.021, 395.278 120.606 C 386.530 124.717, 383.823 124.862, 381.073 121.365 C 378.364 117.922, 378.458 114.514, 381.500 105.807 C 384.823 96.295, 384.873 87.407, 381.641 80.500 C 376.939 70.452, 365.421 62, 356.428 62 C 350.882 62, 346.672 63.994, 329.821 74.603 C 319.397 81.166, 316.815 82.371, 313.051 82.430 C 308.934 82.495, 308.445 82.223, 306.503 78.792 C 305.349 76.753, 303.844 71.578, 303.159 67.292 C 301.572 57.363, 297.989 50.349, 290.747 42.989 C 280.306 32.378, 268.257 29.167, 258 34.264 M 311.446 192.479 C 306.157 194.150, 299.767 197.437, 294.626 201.133 C 286.670 206.852, 272.902 220.298, 271.454 223.764 C 268.255 231.420, 271.059 240.647, 278.345 246.442 C 281.873 249.248, 282.779 249.490, 289.345 249.378 C 293.452 249.307, 300.973 248.109, 307 246.564 C 324.239 242.145, 356.342 236.039, 357.465 236.965 C 359.265 238.447, 372.835 239.122, 377.202 237.946 C 382.465 236.528, 386.661 232.322, 387.553 227.571 C 388.402 223.045, 387.358 220.882, 381.249 214.507 C 377.343 210.431, 361.374 199, 359.586 199 C 359.252 199, 357.071 198.159, 354.739 197.131 C 342.074 191.546, 321.422 189.327, 311.446 192.479 M 319.500 207 C 318.400 207.473, 316.466 207.891, 315.202 207.930 C 313.938 207.968, 311.041 208.900, 308.764 210 C 306.487 211.100, 304.263 212, 303.822 212 C 301.833 212, 289.016 221.157, 286.166 224.615 C 282.514 229.045, 282.164 232.164, 285 235 C 287.475 237.475, 288.997 237.480, 301.500 235.054 C 323.420 230.801, 348.082 227.091, 358.833 226.430 C 371.578 225.645, 373.386 224.514, 368.394 220.448 C 356.631 210.866, 328.505 203.130, 319.500 207 M 161 224.206 C 149.586 225.446, 138.670 227.157, 132.680 228.645 C 122.239 231.239, 110.951 237.493, 112.420 239.870 C 114.922 243.919, 122.215 244.994, 164.807 247.589 C 191.002 249.184, 192.278 249.178, 196.126 247.443 C 204.243 243.783, 204.587 236.473, 196.966 229.589 C 190.846 224.059, 186.890 222.822, 176.500 223.185 C 171.550 223.358, 164.575 223.818, 161 224.206 M 323.786 262.589 C 317.445 264.540, 301.812 275.085, 294.856 282.104 C 289.162 287.848, 282.555 296.968, 280.077 302.500 C 276.227 311.098, 274 317.713, 274 320.555 C 274 323.968, 277.280 329, 279.504 329 C 281.467 329, 284.674 324.101, 290.587 312.071 C 296.122 300.812, 301.327 293.916, 306.191 291.401 C 310.071 289.395, 312 290.218, 312 293.880 C 312 298.039, 315.341 308.266, 317.851 311.791 C 320.402 315.374, 327.704 319, 332.367 319 C 343.980 319, 350.652 310.240, 355.118 289.129 C 355.860 285.625, 357.006 282.551, 357.666 282.298 C 359.154 281.727, 367.468 286.386, 371.500 290.050 C 374.879 293.121, 380.150 296, 382.394 296 C 384.692 296, 387 291.954, 387 287.925 C 387 279.039, 375.031 269.425, 356.622 263.525 C 350.234 261.477, 346.831 261.013, 338.622 261.070 C 332.817 261.110, 326.489 261.758, 323.786 262.589 M 442.500 269.892 C 430.579 272.965, 421.965 285.056, 421.168 299.836 C 420.951 303.871, 421.183 307.583, 421.685 308.085 C 422.234 308.634, 425.708 306.611, 430.420 302.998 C 434.723 299.699, 438.622 297, 439.086 297 C 440.538 297, 442 300.718, 442 304.409 C 442 307.503, 440.990 308.959, 434.002 315.938 C 424.233 325.693, 420.706 331.105, 417.339 341.500 C 414.958 348.853, 414.756 350.832, 414.841 365.963 C 414.942 383.807, 415.759 387.650, 419.663 388.630 C 431.255 391.540, 458.884 367.695, 470.683 344.599 C 480.342 325.692, 478.361 305.352, 464.668 282.828 C 462.217 278.798, 458.702 274.282, 456.856 272.792 C 453.203 269.845, 447.305 268.654, 442.500 269.892 M 138.575 278.998 C 125.523 281.346, 115.567 286.429, 106.250 295.501 C 100.566 301.035, 100 301.962, 100 305.734 C 100 308.015, 100.440 310.154, 100.977 310.486 C 102.278 311.290, 109.572 309.281, 111.205 307.669 C 112.873 306.022, 123.748 298.819, 127 297.207 C 128.375 296.526, 131.255 295.863, 133.400 295.734 L 137.299 295.500 137.079 307.651 C 136.890 318.043, 137.143 320.360, 138.826 323.659 C 144.504 334.788, 164.468 335.577, 172.021 324.970 C 174.470 321.531, 178 312.510, 178 309.691 C 178 306.479, 181.162 308.229, 185.791 314.002 C 193.442 323.545, 195.700 325.593, 199.978 326.875 C 205.123 328.417, 207 327.232, 207 322.443 C 207 317.658, 205.528 314.443, 200.212 307.621 C 188.979 293.207, 179.169 285.743, 165.384 281.120 C 158.260 278.731, 145.621 277.731, 138.575 278.998 M 34.500 284.938 C 20.709 288.311, 14.986 297.664, 15.017 316.785 C 15.049 336.549, 19.621 349.422, 30.546 360.510 C 41.322 371.445, 58.741 377.845, 71.869 375.691 L 77.239 374.809 76.652 370.655 C 76.329 368.370, 75.588 364.475, 75.006 362 C 74.423 359.525, 73.086 351.736, 72.034 344.691 C 70.911 337.173, 69.233 330.048, 67.973 327.443 C 64.463 320.193, 56.516 314.410, 44 309.997 C 37.359 307.656, 32 304.987, 32 304.021 C 32 303.487, 33.462 302.252, 35.250 301.276 C 38.993 299.230, 54.879 298.828, 57.169 300.721 C 57.901 301.326, 60.145 302.128, 62.156 302.504 C 65.110 303.056, 66.215 302.785, 67.906 301.094 C 71.898 297.102, 70.482 292.784, 64.125 289.565 C 54.302 284.591, 43.085 282.839, 34.500 284.938 M 249.802 346.750 C 247.179 349.792, 240.443 360.351, 238.650 364.229 C 231.572 379.541, 228.993 391.348, 229.017 408.338 C 229.039 423.171, 230.895 432.562, 235.235 439.793 C 239.948 447.647, 243.962 450.429, 250.583 450.429 C 257.679 450.429, 259.892 448.243, 264.531 436.654 C 269.438 424.394, 270.653 413.598, 269.192 395.236 C 267.484 373.762, 263.264 357.773, 257.187 349.750 C 253.266 344.574, 252.089 344.096, 249.802 346.750 M 207.255 466.821 C 205.493 467.940, 205.360 472.041, 206.961 475.905 C 208.789 480.319, 227.509 495.389, 236 499.282 C 241.695 501.893, 243.615 502.261, 251.500 502.247 C 270.088 502.215, 308.584 488.523, 317.867 478.642 C 321.944 474.302, 319.971 466, 314.863 466 C 313.858 466, 306.995 468.925, 299.612 472.500 C 292.229 476.075, 285.877 479, 285.496 479 C 285.114 479, 283.384 479.652, 281.651 480.448 C 272.779 484.525, 265.344 486.233, 256.500 486.227 C 245.523 486.218, 239.118 484.064, 227.500 476.474 C 220.807 472.102, 209.815 465.960, 208.783 466.015 C 208.627 466.024, 207.940 466.386, 207.255 466.821" stroke="none" fill="#f8f8f8" fill-rule="evenodd"/></svg>