<svg xmlns="http://www.w3.org/2000/svg" width="334" height="309" viewBox="0 0 334 309" version="1.1"><path d="M 213.420 3.145 C 210.142 4.735, 207.953 9.365, 202.544 26.151 L 197.500 41.801 191.380 38.089 C 174.307 27.732, 142.491 29.222, 114.500 41.689 C 104.860 45.982, 91.865 54.421, 86.813 59.670 C 81.666 65.016, 76.292 74.322, 73.917 82 C 70.736 92.283, 63.203 130.651, 61.914 143.135 C 61.082 151.184, 60.072 155.830, 58.450 159.059 C 52.171 171.558, 35.027 188.204, 18.311 198.030 C 7.177 204.575, 6 205.647, 6 209.245 C 6 211.560, 7.849 214.145, 14.750 221.478 C 19.562 226.592, 25.439 233.066, 27.810 235.863 C 32.971 241.955, 45.841 251.422, 55.500 256.233 C 64.194 260.562, 71.853 263.079, 88.500 267.077 C 95.650 268.794, 102.903 271.054, 104.618 272.100 C 108.296 274.342, 114.818 274.585, 117.557 272.582 C 119.349 271.271, 120.011 271.722, 126.281 278.527 C 134.523 287.471, 143.545 293.614, 158.243 300.287 C 169.223 305.272, 169.464 305.329, 179.425 305.336 C 194.457 305.345, 208.697 300.864, 219.500 292.725 C 221.700 291.067, 226.886 286.176, 231.025 281.856 C 236.309 276.339, 239.261 274, 240.939 274 C 245.007 274, 259.545 265.042, 273.327 254.042 C 301.359 231.671, 323.930 205.028, 326.645 191.108 C 327.284 187.834, 326.943 187.364, 316.831 177.608 C 297.973 159.412, 294.266 152.592, 285.995 120.878 L 280.942 101.500 274.791 95.292 L 268.640 89.083 275.271 82.613 C 280.756 77.262, 282.187 75.166, 283.547 70.487 C 285.428 64.016, 284.921 59.440, 281.896 55.595 C 279.306 52.303, 277.567 51.385, 270.332 49.491 C 265.382 48.195, 262.643 48.138, 252.213 49.112 C 245.456 49.744, 239.713 50.046, 239.451 49.784 C 239.189 49.523, 240.106 45.407, 241.488 40.639 C 242.869 35.871, 244 30.258, 244 28.166 C 244 18.722, 237.863 7.220, 230.973 3.752 C 227.122 1.813, 216.893 1.459, 213.420 3.145 M 217.190 10.026 C 213.057 12.545, 211.459 16.330, 208.497 30.613 C 204.511 49.835, 204.400 52.191, 207.320 55.584 C 208.701 57.188, 210.017 58.275, 210.246 58 C 210.474 57.725, 212.331 54.468, 214.372 50.763 C 217.809 44.524, 220.275 42, 222.934 42 C 224.887 42, 224.022 48.447, 221.526 52.500 C 218.603 57.246, 218.181 61.306, 220.660 60.823 C 223.244 60.320, 231.562 48.783, 233.998 42.322 C 235.205 39.120, 236.416 33.125, 236.689 29 C 237.331 19.279, 234.736 13.683, 227.994 10.250 C 222.578 7.492, 221.386 7.467, 217.190 10.026 M 250.903 56.078 C 245.576 56.904, 241.396 58.880, 234.750 63.715 C 229.336 67.653, 228.389 70.461, 232.750 69.644 C 242.032 67.905, 244.629 67.932, 246.307 69.786 C 249.180 72.961, 246.515 74.984, 236.936 76.899 C 227.310 78.823, 226.214 80.384, 232.376 83.393 C 237.817 86.049, 248.318 86.631, 255.122 84.653 C 263.617 82.183, 272.727 75.816, 275.033 70.736 C 277.707 64.845, 277.537 61.568, 274.430 59.123 C 270.984 56.413, 258.866 54.845, 250.903 56.078 M 168.851 65.969 C 153.477 67.526, 141.069 73.265, 127.775 84.967 C 119.201 92.514, 105 113.405, 105 118.471 C 105 121.045, 106.328 120.142, 110.500 114.734 C 120.100 102.289, 134.385 89.925, 146.025 83.987 C 157.841 77.959, 163.634 76.648, 178.786 76.572 C 194.693 76.492, 194.958 76.380, 194.985 69.750 L 195 66 189.250 65.989 C 186.088 65.983, 181.925 65.802, 180 65.586 C 178.075 65.370, 173.058 65.543, 168.851 65.969 M 205.772 68.790 C 200.081 74.730, 199.631 79.600, 204.566 81.848 C 208.971 83.855, 212.904 83.250, 216.077 80.077 C 217.685 78.469, 218.998 76.557, 218.996 75.827 C 218.990 73.456, 215.349 68.542, 212.302 66.790 L 209.327 65.080 205.772 68.790 M 220 87.770 C 220 88.193, 224.313 92.806, 229.585 98.020 C 243.263 111.548, 246.852 117.317, 258.504 144.500 C 259.173 146.061, 259.494 145.333, 259.965 141.177 C 260.775 134.042, 259.457 119.908, 257.394 113.609 C 255.288 107.174, 250.582 97.700, 248.832 96.366 C 247.451 95.315, 222.734 87, 220.989 87 C 220.445 87, 220 87.346, 220 87.770 M 147.786 91.905 C 132.410 100.890, 123.217 109.328, 114.094 122.830 C 107.464 132.642, 105.736 137.368, 104.889 148 C 104.474 153.225, 103.819 160.477, 103.435 164.115 C 103.050 167.754, 103.053 173.266, 103.440 176.365 L 104.144 182 108.179 182 C 111.459 182, 112.100 181.702, 111.603 180.407 C 111.267 179.531, 110.709 177.687, 110.363 176.309 L 109.734 173.804 117.206 174.505 C 123.688 175.112, 125.225 174.926, 128.799 173.102 C 131.066 171.946, 134.081 171, 135.500 171 C 143.878 171, 159 185.136, 159 192.968 C 159 194.730, 158.499 195.074, 156.309 194.816 C 154.332 194.584, 152.921 193.305, 150.993 190.001 C 149.550 187.527, 147.611 185.356, 146.685 185.178 C 145.266 184.905, 145 185.743, 145 190.492 C 145 197.160, 143.963 199.451, 140.020 201.490 C 132.557 205.349, 126.711 202.063, 124.829 192.950 C 124.153 189.678, 123.310 187, 122.955 187 C 121.610 187, 119.241 190.703, 117.060 196.211 C 113.904 204.183, 112.655 205.002, 108.993 201.494 C 106.298 198.912, 106.001 198.833, 105.351 200.528 C 104.195 203.541, 106.635 219.325, 108.914 223.579 C 110.171 225.924, 111 229.317, 111 232.119 C 111 235.907, 112.417 239.614, 118.652 252.134 C 125.973 266.836, 126.718 267.912, 135.902 277.025 C 150.542 291.553, 163.267 297.449, 180 297.457 C 196.817 297.464, 208.444 292.242, 222.660 278.296 C 230.677 270.432, 231.867 268.413, 238.819 250.874 C 248.796 225.708, 254.025 204.481, 253.985 189.308 C 253.962 180.724, 252.910 179.906, 248.962 185.404 C 247.146 187.932, 244.912 190, 243.996 190 C 243.081 190, 240.119 187.660, 237.416 184.799 L 232.500 179.599 232 185.696 C 231.451 192.387, 229.562 195.394, 224.570 197.522 C 218.855 199.958, 214.637 196.808, 212.153 188.250 C 211.475 185.912, 210.584 184, 210.174 184 C 209.765 184, 207.970 186.958, 206.187 190.574 C 200.714 201.674, 198.043 196.682, 202.443 183.575 C 203.849 179.386, 205 174.702, 205 173.166 C 205 171.353, 206.077 169.345, 208.074 167.437 C 211.033 164.611, 211.201 164.571, 212.538 166.392 C 213.303 167.432, 214.059 168.677, 214.219 169.157 C 214.384 169.651, 216.674 169.627, 219.483 169.102 C 224.305 168.201, 225.360 167.394, 231.133 160.196 C 233.193 157.628, 234.506 159.609, 234.220 164.857 C 233.897 170.798, 234.728 171.207, 239.589 167.500 C 241.392 166.125, 243.347 165, 243.933 165 C 245.748 165, 245.109 169.591, 242.904 172.395 C 241.752 173.860, 241.066 175.731, 241.382 176.552 C 244.081 183.588, 256.005 171.582, 254.645 163.198 C 254.018 159.336, 249.658 152.476, 246.530 150.430 C 243.126 148.204, 222.243 148.219, 210.786 150.456 C 203.081 151.961, 200.546 152.114, 198.536 151.198 C 194.110 149.182, 195.233 145.094, 202.607 136.374 L 206.942 131.249 201.221 127.672 C 198.035 125.681, 187.529 116.099, 177.511 106.048 C 163.667 92.158, 158.940 88, 156.995 88 C 155.605 88, 151.461 89.757, 147.786 91.905 M 126.536 137.425 C 119.475 139.829, 115 143.479, 115 146.833 C 115 151.736, 121.241 155.231, 129.998 155.231 C 139.496 155.231, 152.935 153.768, 154.596 152.554 C 159.864 148.701, 148.176 137.459, 137 135.628 C 134.661 135.244, 131.190 135.841, 126.536 137.425 M 269.654 172.106 C 264.736 175.363, 262 178.488, 262 180.848 C 262 183.094, 267.768 181.436, 273.735 177.475 C 276.614 175.564, 279.876 174, 280.985 174 C 283.914 174, 283.453 172.286, 280.050 170.526 C 275.970 168.416, 275.003 168.563, 269.654 172.106 M 149.250 170.662 C 145.914 172.008, 149.787 176.463, 154.907 177.168 C 158.245 177.628, 158.509 175.842, 155.573 172.674 C 153.156 170.066, 151.799 169.634, 149.250 170.662 M 76.743 178.529 C 72.080 181.697, 70.320 185.076, 68.604 194.148 C 67.010 202.580, 67.640 205.756, 72.277 212.641 C 76.771 219.314, 83.986 223, 92.555 223 C 96.035 223, 99.090 222.662, 99.343 222.250 C 100.087 221.042, 98.109 203.757, 96.885 200.759 C 95.497 197.362, 91.251 194.725, 83.702 192.571 C 79.524 191.378, 77.671 190.300, 77.070 188.708 C 76.611 187.494, 76.434 186.162, 76.676 185.750 C 77.553 184.261, 83.623 185.098, 89.500 187.519 C 92.800 188.879, 95.838 189.993, 96.250 189.995 C 97.214 190.001, 97.202 182.856, 96.235 181.376 C 95.831 180.758, 93.925 179.297, 92 178.130 C 87.170 175.201, 81.419 175.351, 76.743 178.529 M 284.464 178.233 C 284.131 179.101, 281.309 181.504, 278.192 183.573 C 268.394 190.079, 262.176 196.670, 260.494 202.332 C 259.672 205.099, 259 209.131, 259 211.293 L 259 215.223 262.668 214.535 C 280.187 211.248, 291.857 198.248, 288.946 185.260 C 288.390 182.776, 287.290 179.824, 286.502 178.699 C 285.276 176.949, 284.983 176.882, 284.464 178.233 M 176.046 212.504 C 173.389 224.476, 173.559 235.431, 176.518 242.779 C 178.530 247.776, 180.377 249, 185.911 249 C 190.511 249, 192.399 246.982, 193.515 240.871 C 194.962 232.946, 190.092 208.080, 186.245 203.750 C 185.384 202.781, 183.281 202, 181.534 202 L 178.378 202 176.046 212.504 M 198.584 260.128 C 186.630 266.002, 183.179 266.266, 174.160 261.999 C 170.673 260.350, 167.186 259, 166.410 259 C 164.193 259, 164.746 263.419, 167.250 265.709 C 176.381 274.058, 196.546 272.953, 206.508 263.557 C 209.727 260.521, 211.051 256.722, 209.250 255.687 C 208.838 255.450, 204.038 257.449, 198.584 260.128" stroke="none" fill="#000000" fill-rule="evenodd"/><path d="M 0 154.503 L 0 309.006 167.250 308.753 L 334.500 308.500 334.753 154.250 L 335.006 0 167.503 0 L 0 0 0 154.503 M 0.487 155 C 0.487 239.975, 0.606 274.738, 0.750 232.250 C 0.894 189.763, 0.894 120.238, 0.750 77.750 C 0.606 35.263, 0.487 70.025, 0.487 155 M 213.420 3.145 C 210.142 4.735, 207.953 9.365, 202.544 26.151 L 197.500 41.801 191.380 38.089 C 174.307 27.732, 142.491 29.222, 114.500 41.689 C 104.860 45.982, 91.865 54.421, 86.813 59.670 C 81.666 65.016, 76.292 74.322, 73.917 82 C 70.736 92.283, 63.203 130.651, 61.914 143.135 C 61.082 151.184, 60.072 155.830, 58.450 159.059 C 52.171 171.558, 35.027 188.204, 18.311 198.030 C 7.177 204.575, 6 205.647, 6 209.245 C 6 211.560, 7.849 214.145, 14.750 221.478 C 19.562 226.592, 25.439 233.066, 27.810 235.863 C 32.971 241.955, 45.841 251.422, 55.500 256.233 C 64.194 260.562, 71.853 263.079, 88.500 267.077 C 95.650 268.794, 102.903 271.054, 104.618 272.100 C 108.296 274.342, 114.818 274.585, 117.557 272.582 C 119.349 271.271, 120.011 271.722, 126.281 278.527 C 134.523 287.471, 143.545 293.614, 158.243 300.287 C 169.223 305.272, 169.464 305.329, 179.425 305.336 C 194.457 305.345, 208.697 300.864, 219.500 292.725 C 221.700 291.067, 226.886 286.176, 231.025 281.856 C 236.309 276.339, 239.261 274, 240.939 274 C 245.007 274, 259.545 265.042, 273.327 254.042 C 301.359 231.671, 323.930 205.028, 326.645 191.108 C 327.284 187.834, 326.943 187.364, 316.831 177.608 C 297.973 159.412, 294.266 152.592, 285.995 120.878 L 280.942 101.500 274.791 95.292 L 268.640 89.083 275.271 82.613 C 280.756 77.262, 282.187 75.166, 283.547 70.487 C 285.428 64.016, 284.921 59.440, 281.896 55.595 C 279.306 52.303, 277.567 51.385, 270.332 49.491 C 265.382 48.195, 262.643 48.138, 252.213 49.112 C 245.456 49.744, 239.713 50.046, 239.451 49.784 C 239.189 49.523, 240.106 45.407, 241.488 40.639 C 242.869 35.871, 244 30.258, 244 28.166 C 244 18.722, 237.863 7.220, 230.973 3.752 C 227.122 1.813, 216.893 1.459, 213.420 3.145 M 217.190 10.026 C 213.057 12.545, 211.459 16.330, 208.497 30.613 C 204.511 49.835, 204.400 52.191, 207.320 55.584 C 208.701 57.188, 210.017 58.275, 210.246 58 C 210.474 57.725, 212.331 54.468, 214.372 50.763 C 217.809 44.524, 220.275 42, 222.934 42 C 224.887 42, 224.022 48.447, 221.526 52.500 C 218.603 57.246, 218.181 61.306, 220.660 60.823 C 223.244 60.320, 231.562 48.783, 233.998 42.322 C 235.205 39.120, 236.416 33.125, 236.689 29 C 237.331 19.279, 234.736 13.683, 227.994 10.250 C 222.578 7.492, 221.386 7.467, 217.190 10.026 M 250.903 56.078 C 245.576 56.904, 241.396 58.880, 234.750 63.715 C 229.336 67.653, 228.389 70.461, 232.750 69.644 C 242.032 67.905, 244.629 67.932, 246.307 69.786 C 249.180 72.961, 246.515 74.984, 236.936 76.899 C 227.310 78.823, 226.214 80.384, 232.376 83.393 C 237.817 86.049, 248.318 86.631, 255.122 84.653 C 263.617 82.183, 272.727 75.816, 275.033 70.736 C 277.707 64.845, 277.537 61.568, 274.430 59.123 C 270.984 56.413, 258.866 54.845, 250.903 56.078 M 168.851 65.969 C 153.477 67.526, 141.069 73.265, 127.775 84.967 C 119.201 92.514, 105 113.405, 105 118.471 C 105 121.045, 106.328 120.142, 110.500 114.734 C 120.100 102.289, 134.385 89.925, 146.025 83.987 C 157.841 77.959, 163.634 76.648, 178.786 76.572 C 194.693 76.492, 194.958 76.380, 194.985 69.750 L 195 66 189.250 65.989 C 186.088 65.983, 181.925 65.802, 180 65.586 C 178.075 65.370, 173.058 65.543, 168.851 65.969 M 205.772 68.790 C 200.081 74.730, 199.631 79.600, 204.566 81.848 C 208.971 83.855, 212.904 83.250, 216.077 80.077 C 217.685 78.469, 218.998 76.557, 218.996 75.827 C 218.990 73.456, 215.349 68.542, 212.302 66.790 L 209.327 65.080 205.772 68.790 M 220 87.770 C 220 88.193, 224.313 92.806, 229.585 98.020 C 243.263 111.548, 246.852 117.317, 258.504 144.500 C 259.173 146.061, 259.494 145.333, 259.965 141.177 C 260.775 134.042, 259.457 119.908, 257.394 113.609 C 255.288 107.174, 250.582 97.700, 248.832 96.366 C 247.451 95.315, 222.734 87, 220.989 87 C 220.445 87, 220 87.346, 220 87.770 M 147.786 91.905 C 132.410 100.890, 123.217 109.328, 114.094 122.830 C 107.464 132.642, 105.736 137.368, 104.889 148 C 104.474 153.225, 103.819 160.477, 103.435 164.115 C 103.050 167.754, 103.053 173.266, 103.440 176.365 L 104.144 182 108.179 182 C 111.459 182, 112.100 181.702, 111.603 180.407 C 111.267 179.531, 110.709 177.687, 110.363 176.309 L 109.734 173.804 117.206 174.505 C 123.688 175.112, 125.225 174.926, 128.799 173.102 C 131.066 171.946, 134.081 171, 135.500 171 C 143.878 171, 159 185.136, 159 192.968 C 159 194.730, 158.499 195.074, 156.309 194.816 C 154.332 194.584, 152.921 193.305, 150.993 190.001 C 149.550 187.527, 147.611 185.356, 146.685 185.178 C 145.266 184.905, 145 185.743, 145 190.492 C 145 197.160, 143.963 199.451, 140.020 201.490 C 132.557 205.349, 126.711 202.063, 124.829 192.950 C 124.153 189.678, 123.310 187, 122.955 187 C 121.610 187, 119.241 190.703, 117.060 196.211 C 113.904 204.183, 112.655 205.002, 108.993 201.494 C 106.298 198.912, 106.001 198.833, 105.351 200.528 C 104.195 203.541, 106.635 219.325, 108.914 223.579 C 110.171 225.924, 111 229.317, 111 232.119 C 111 235.907, 112.417 239.614, 118.652 252.134 C 125.973 266.836, 126.718 267.912, 135.902 277.025 C 150.542 291.553, 163.267 297.449, 180 297.457 C 196.817 297.464, 208.444 292.242, 222.660 278.296 C 230.677 270.432, 231.867 268.413, 238.819 250.874 C 248.796 225.708, 254.025 204.481, 253.985 189.308 C 253.962 180.724, 252.910 179.906, 248.962 185.404 C 247.146 187.932, 244.912 190, 243.996 190 C 243.081 190, 240.119 187.660, 237.416 184.799 L 232.500 179.599 232 185.696 C 231.451 192.387, 229.562 195.394, 224.570 197.522 C 218.855 199.958, 214.637 196.808, 212.153 188.250 C 211.475 185.912, 210.584 184, 210.174 184 C 209.765 184, 207.970 186.958, 206.187 190.574 C 200.714 201.674, 198.043 196.682, 202.443 183.575 C 203.849 179.386, 205 174.702, 205 173.166 C 205 171.353, 206.077 169.345, 208.074 167.437 C 211.033 164.611, 211.201 164.571, 212.538 166.392 C 213.303 167.432, 214.059 168.677, 214.219 169.157 C 214.384 169.651, 216.674 169.627, 219.483 169.102 C 224.305 168.201, 225.360 167.394, 231.133 160.196 C 233.193 157.628, 234.506 159.609, 234.220 164.857 C 233.897 170.798, 234.728 171.207, 239.589 167.500 C 241.392 166.125, 243.347 165, 243.933 165 C 245.748 165, 245.109 169.591, 242.904 172.395 C 241.752 173.860, 241.066 175.731, 241.382 176.552 C 244.081 183.588, 256.005 171.582, 254.645 163.198 C 254.018 159.336, 249.658 152.476, 246.530 150.430 C 243.126 148.204, 222.243 148.219, 210.786 150.456 C 203.081 151.961, 200.546 152.114, 198.536 151.198 C 194.110 149.182, 195.233 145.094, 202.607 136.374 L 206.942 131.249 201.221 127.672 C 198.035 125.681, 187.529 116.099, 177.511 106.048 C 163.667 92.158, 158.940 88, 156.995 88 C 155.605 88, 151.461 89.757, 147.786 91.905 M 126.536 137.425 C 119.475 139.829, 115 143.479, 115 146.833 C 115 151.736, 121.241 155.231, 129.998 155.231 C 139.496 155.231, 152.935 153.768, 154.596 152.554 C 159.864 148.701, 148.176 137.459, 137 135.628 C 134.661 135.244, 131.190 135.841, 126.536 137.425 M 269.654 172.106 C 264.736 175.363, 262 178.488, 262 180.848 C 262 183.094, 267.768 181.436, 273.735 177.475 C 276.614 175.564, 279.876 174, 280.985 174 C 283.914 174, 283.453 172.286, 280.050 170.526 C 275.970 168.416, 275.003 168.563, 269.654 172.106 M 149.250 170.662 C 145.914 172.008, 149.787 176.463, 154.907 177.168 C 158.245 177.628, 158.509 175.842, 155.573 172.674 C 153.156 170.066, 151.799 169.634, 149.250 170.662 M 76.743 178.529 C 72.080 181.697, 70.320 185.076, 68.604 194.148 C 67.010 202.580, 67.640 205.756, 72.277 212.641 C 76.771 219.314, 83.986 223, 92.555 223 C 96.035 223, 99.090 222.662, 99.343 222.250 C 100.087 221.042, 98.109 203.757, 96.885 200.759 C 95.497 197.362, 91.251 194.725, 83.702 192.571 C 79.524 191.378, 77.671 190.300, 77.070 188.708 C 76.611 187.494, 76.434 186.162, 76.676 185.750 C 77.553 184.261, 83.623 185.098, 89.500 187.519 C 92.800 188.879, 95.838 189.993, 96.250 189.995 C 97.214 190.001, 97.202 182.856, 96.235 181.376 C 95.831 180.758, 93.925 179.297, 92 178.130 C 87.170 175.201, 81.419 175.351, 76.743 178.529 M 284.464 178.233 C 284.131 179.101, 281.309 181.504, 278.192 183.573 C 268.394 190.079, 262.176 196.670, 260.494 202.332 C 259.672 205.099, 259 209.131, 259 211.293 L 259 215.223 262.668 214.535 C 280.187 211.248, 291.857 198.248, 288.946 185.260 C 288.390 182.776, 287.290 179.824, 286.502 178.699 C 285.276 176.949, 284.983 176.882, 284.464 178.233 M 176.046 212.504 C 173.389 224.476, 173.559 235.431, 176.518 242.779 C 178.530 247.776, 180.377 249, 185.911 249 C 190.511 249, 192.399 246.982, 193.515 240.871 C 194.962 232.946, 190.092 208.080, 186.245 203.750 C 185.384 202.781, 183.281 202, 181.534 202 L 178.378 202 176.046 212.504 M 198.584 260.128 C 186.630 266.002, 183.179 266.266, 174.160 261.999 C 170.673 260.350, 167.186 259, 166.410 259 C 164.193 259, 164.746 263.419, 167.250 265.709 C 176.381 274.058, 196.546 272.953, 206.508 263.557 C 209.727 260.521, 211.051 256.722, 209.250 255.687 C 208.838 255.450, 204.038 257.449, 198.584 260.128" stroke="none" fill="#fafafa" fill-rule="evenodd"/></svg>