<svg xmlns="http://www.w3.org/2000/svg" width="252" height="313" viewBox="0 0 252 313" version="1.1"><path d="M 147.881 2.279 C 144.675 5.041, 139.658 12.219, 133.633 22.663 C 127.553 33.205, 126.067 34.482, 120.184 34.223 C 108.934 33.728, 91.503 41.242, 79.768 51.645 C 56.157 72.576, 44.007 98.889, 40.078 137.600 C 38.669 151.478, 38.991 150.964, 32.736 149.342 C 22.588 146.709, 13.726 148.619, 7.781 154.720 C 2.705 159.930, 0.932 164.725, 0.910 173.304 C 0.878 185.908, 7.043 198.493, 16.401 204.932 C 20.239 207.572, 31.610 212, 34.554 212 C 37.730 212, 40.125 215.683, 41.604 222.841 C 44.644 237.554, 54.934 262.122, 63.082 274.121 C 75.399 292.259, 97.991 307.100, 120.101 311.581 C 136.455 314.894, 158.461 311.669, 173.241 303.791 C 193.694 292.889, 210.966 263.348, 213.919 234.215 C 214.707 226.439, 216.596 222, 219.117 222 C 219.562 222, 222.447 221.056, 225.530 219.903 C 233.436 216.945, 242.712 208.052, 247.046 199.276 C 249.869 193.558, 250.458 191.144, 250.815 183.812 C 251.176 176.412, 250.922 174.485, 249.105 170.812 C 245.932 164.400, 242.823 162.587, 234.250 162.151 C 230.262 161.948, 227 161.584, 227 161.343 C 227 158.261, 223.547 131.586, 222.387 125.704 C 215.689 91.745, 193.887 63.607, 160.250 45.507 C 153.575 41.915, 153.510 40.168, 159.750 32.012 C 170.190 18.369, 171.230 16.897, 170.767 16.434 C 169.613 15.279, 166.850 17.683, 158.516 27.093 C 153.629 32.612, 148.926 37.486, 148.065 37.925 C 147.189 38.371, 143.750 38.055, 140.250 37.206 C 135.049 35.944, 134.002 35.338, 134.010 33.595 C 134.025 30.245, 138.193 22.254, 145.454 11.650 C 152.061 2.003, 153.168 -2.275, 147.881 2.279 M 113 41.436 C 91.813 49.599, 88.512 51.450, 79.136 60.415 C 68.552 70.535, 60.922 82.739, 54.701 99.500 C 48.656 115.787, 45.408 137.034, 43.923 170 C 42.874 193.297, 42.922 195.016, 44.907 205 C 46.055 210.775, 46.995 216.742, 46.997 218.261 C 47.001 221.689, 55.596 244.427, 61.452 256.500 C 76.208 286.926, 111.977 307.999, 141.867 303.877 C 149.574 302.814, 163.324 298.384, 171 294.491 C 181.166 289.334, 190.899 277.904, 197.947 262.844 C 204.282 249.304, 206.377 239.418, 211.010 201.174 C 212.164 191.645, 214.171 180.170, 215.470 175.674 C 219.094 163.125, 219.263 161.205, 218.005 146.868 C 215.724 120.867, 212.608 109.641, 202.806 92.097 C 197.720 82.995, 181.009 65.684, 168 56.042 C 156.428 47.465, 153.915 46.343, 149.135 47.619 C 145.555 48.574, 145.233 48.470, 143.751 45.889 C 142.743 44.133, 140.790 42.758, 138.337 42.077 C 132.563 40.473, 131.331 40.727, 129 44 C 126.250 47.862, 125.412 47.778, 124 43.500 C 122.997 40.462, 122.427 40.006, 119.672 40.044 C 117.928 40.068, 114.925 40.695, 113 41.436 M 104 82.025 C 104 85.515, 108.187 86.150, 128.985 85.815 C 139.718 85.642, 149.625 85.842, 151 86.260 C 154.393 87.291, 156.844 85.722, 155.108 83.631 C 152.546 80.543, 144.056 79.617, 129.795 80.870 C 120.484 81.688, 114.702 81.735, 110.500 81.025 C 107.200 80.468, 104.388 80.009, 104.250 80.006 C 104.112 80.003, 104 80.911, 104 82.025 M 120.191 101.850 C 115.171 103.264, 118.314 104.500, 126.930 104.500 C 135.862 104.500, 138.718 103.698, 135.971 101.961 C 134.326 100.920, 123.755 100.846, 120.191 101.850 M 73.500 103.228 C 67.054 105.528, 61 112.430, 61 117.479 C 61 121.940, 64.261 123.452, 81.626 127.039 C 89.807 128.729, 98.907 130.730, 101.849 131.486 C 104.790 132.243, 107.715 132.705, 108.349 132.514 C 108.982 132.323, 110.703 131.905, 112.172 131.584 C 114.100 131.163, 115.161 130.042, 115.980 127.562 C 117.419 123.201, 116.022 120.312, 109.328 113.807 C 104.056 108.684, 99.009 106.168, 88.936 103.645 C 81.506 101.783, 77.829 101.684, 73.500 103.228 M 73.500 109.861 C 71.850 110.880, 69.675 112.643, 68.666 113.779 C 66.876 115.794, 66.889 115.881, 69.219 117.408 C 74.592 120.928, 89.845 125.065, 102.744 126.500 C 107.988 127.084, 109.087 126.936, 109.608 125.580 C 110.769 122.553, 108.030 118.485, 102.671 115.280 C 90.580 108.048, 79.705 106.028, 73.500 109.861 M 158.234 115.926 C 151.703 118.973, 143 127.654, 143 131.122 C 143 136.357, 146.086 137.297, 163.816 137.461 C 172.442 137.541, 182.200 137.968, 185.500 138.409 C 190.850 139.126, 191.798 138.977, 194.250 137.034 C 200.123 132.380, 196.756 126.404, 184.408 119.569 C 176.779 115.346, 174.567 114.588, 169 114.287 C 164.058 114.021, 161.477 114.413, 158.234 115.926 M 159.500 121.657 C 155.458 123.781, 150 129.054, 150 130.835 C 150 132.003, 151.191 132.162, 156.250 131.672 C 159.688 131.339, 168.475 131.564, 175.778 132.172 C 183.081 132.780, 189.342 132.992, 189.691 132.643 C 190.039 132.294, 189.863 130.994, 189.297 129.754 C 188.587 128.195, 185.440 126.345, 179.084 123.750 C 169.162 119.700, 164.227 119.173, 159.500 121.657 M 102.671 144.662 C 101.753 145.580, 104.960 149, 106.738 149 C 107.524 149, 107.992 148.476, 107.779 147.836 C 107.228 146.184, 103.479 143.854, 102.671 144.662 M 53.015 149.750 C 53.044 153.042, 54.597 154.318, 57.643 153.552 L 60.500 152.833 57.694 150.416 C 54.371 147.554, 52.994 147.358, 53.015 149.750 M 76.734 149.031 C 68.494 151.098, 58 158.420, 58 162.104 C 58 164.779, 58.924 164.560, 69 159.500 C 73.928 157.025, 78.187 155, 78.465 155 C 78.742 155, 78.697 157.602, 78.365 160.781 C 77.814 166.058, 77.997 166.843, 80.469 169.781 C 83.877 173.831, 87.202 173.952, 90.991 170.163 C 92.918 168.236, 94.053 165.829, 94.528 162.663 C 94.912 160.098, 95.611 158, 96.080 158 C 96.549 158, 99.213 160.025, 102 162.500 C 107.741 167.599, 111 168.356, 111 164.592 C 111 163.104, 109.344 160.480, 106.668 157.727 C 99.695 150.551, 86.247 146.645, 76.734 149.031 M 160 152.099 C 158.075 153.271, 156.352 154.365, 156.170 154.529 C 155.989 154.692, 156.574 155.947, 157.471 157.315 C 159.032 159.698, 158.968 160.022, 155.982 164.875 C 152.945 169.810, 152.220 175.049, 154.500 175.577 C 155.050 175.705, 157.750 173.192, 160.500 169.993 C 163.250 166.795, 165.820 164.138, 166.211 164.089 C 166.603 164.040, 167.429 165.881, 168.048 168.180 C 169.327 172.928, 174.149 178, 177.383 178 C 182.312 178, 185.979 172.358, 185.994 164.750 C 186.002 161.071, 187.674 161.242, 193.958 165.565 C 197.703 168.141, 199.484 168.843, 200.383 168.097 C 201.067 167.530, 203.270 167.332, 205.279 167.658 C 208.913 168.248, 208.928 168.236, 208.073 165.375 C 206.851 161.285, 205.114 157, 204.678 157 C 204.474 157, 202.911 157.697, 201.205 158.548 C 198.258 160.018, 197.911 159.970, 194.301 157.587 C 186.237 152.264, 178.800 150.911, 171.635 153.466 C 167.952 154.778, 167.669 154.728, 165.635 152.405 L 163.500 149.967 160 152.099 M 17.500 155.665 C 10.387 159.424, 7 165.127, 7 173.345 C 7 189.559, 17.352 200.974, 34.200 203.339 L 37.900 203.858 37.910 195.179 C 37.925 182.723, 36.973 180.074, 30.492 174.538 C 25.435 170.217, 23.722 166.908, 25.859 165.587 C 26.332 165.295, 28.469 166.381, 30.609 168 C 32.749 169.619, 35.011 170.957, 35.636 170.972 C 37.306 171.013, 38.339 162.503, 36.975 159.953 C 35.514 157.223, 28.501 154.039, 24 154.062 C 22.075 154.072, 19.150 154.793, 17.500 155.665 M 47.376 157.464 C 46.534 159.657, 49.323 162.474, 51.506 161.636 C 53.572 160.843, 53.064 159.119, 50.207 157.222 C 48.263 155.930, 47.954 155.957, 47.376 157.464 M 231.445 169.165 C 226.850 170.355, 223.851 174.145, 223.244 179.525 L 222.720 184.176 227.882 181.560 L 233.044 178.944 233.890 181.222 C 234.356 182.475, 234.535 183.950, 234.287 184.500 C 234.040 185.050, 230.566 188.038, 226.568 191.140 C 218.677 197.262, 218.035 198.625, 218.011 209.329 L 218 214.159 221.250 213.457 C 229.470 211.683, 234.934 207.010, 239.635 197.734 C 242.647 191.789, 245.329 179.776, 244.494 175.971 C 243.302 170.545, 237.598 167.570, 231.445 169.165 M 133.265 175.250 C 131.304 177.751, 123.030 200.983, 122.189 206.351 C 121.160 212.909, 122.485 224.508, 124.642 227.834 C 126.438 230.602, 131.717 233, 136.016 233 C 142.486 233, 148 222.276, 148 209.692 C 148 198.966, 143.004 179.261, 139.527 176.269 C 136.557 173.715, 134.705 173.413, 133.265 175.250 M 108.241 188.986 C 106.570 191.662, 106.674 194, 108.465 194 C 110.282 194, 112.345 190.341, 111.608 188.422 C 110.853 186.452, 109.703 186.645, 108.241 188.986 M 159 189.566 C 159 192.361, 163.150 195.713, 168.750 197.441 C 172.583 198.623, 171.429 195.323, 166.850 192.006 C 163.149 189.325, 159 188.035, 159 189.566 M 155 197.930 C 155 200.043, 156.507 201.454, 161.454 203.977 C 164.997 205.783, 165 205.783, 165 203.547 C 165 200.869, 162.669 198.675, 158.250 197.194 C 155.372 196.229, 155 196.313, 155 197.930 M 88.974 235.790 C 84.382 240.383, 83.681 244, 87.383 244 C 88.962 244, 89.952 244.708, 90.315 246.097 C 90.856 248.165, 90.906 248.169, 93.973 246.357 C 95.683 245.347, 97.342 243.484, 97.660 242.217 C 98.339 239.511, 96.037 232.846, 94.213 232.238 C 93.518 232.006, 91.160 233.605, 88.974 235.790 M 164.402 241.565 C 161.858 244.843, 146.632 250.022, 137.500 250.716 C 129.199 251.346, 120.518 249.408, 111.798 244.976 C 103.450 240.734, 99.659 241.024, 102.704 245.671 C 107.284 252.660, 122.981 259, 135.708 259 C 140.029 259, 145.876 258.400, 148.703 257.667 C 153.223 256.494, 155.372 255.387, 160.552 251.561 C 161.366 250.959, 163.281 251.103, 165.878 251.960 C 170.282 253.413, 178.022 252.458, 178.711 250.376 C 179.285 248.641, 174.172 243.128, 170.027 241.014 L 166.305 239.115 164.402 241.565 M 125.495 263.008 C 124.363 264.840, 128.107 268.128, 130.948 267.797 C 132.924 267.567, 133.500 266.936, 133.500 265 C 133.500 262.845, 132.996 262.458, 129.843 262.195 C 127.831 262.028, 125.875 262.393, 125.495 263.008" stroke="none" fill="#121212" fill-rule="evenodd"/><path d="M 0.131 87.250 C 0.203 135.238, 0.583 172.014, 0.975 168.975 C 1.835 162.318, 3.106 159.683, 7.851 154.720 C 13.679 148.623, 22.564 146.703, 32.736 149.342 C 38.991 150.964, 38.669 151.478, 40.078 137.600 C 44.007 98.889, 56.157 72.576, 79.768 51.645 C 91.503 41.242, 108.934 33.728, 120.184 34.223 C 126.067 34.482, 127.553 33.205, 133.633 22.663 C 139.663 12.211, 144.672 5.045, 147.902 2.255 L 150.500 0.010 75.250 0.005 L 0 0 0.131 87.250 M 151.487 0.979 C 151.820 1.517, 149.081 6.355, 145.400 11.729 C 138.188 22.260, 134.025 30.252, 134.010 33.595 C 134.002 35.338, 135.049 35.944, 140.250 37.206 C 143.750 38.055, 147.189 38.371, 148.065 37.925 C 148.926 37.486, 153.629 32.612, 158.516 27.093 C 166.850 17.683, 169.613 15.279, 170.767 16.434 C 171.230 16.897, 170.190 18.369, 159.750 32.012 C 153.510 40.168, 153.575 41.915, 160.250 45.507 C 193.887 63.607, 215.689 91.745, 222.387 125.704 C 223.547 131.586, 227 158.261, 227 161.343 C 227 161.584, 230.262 161.948, 234.250 162.151 C 242.823 162.587, 245.932 164.400, 249.105 170.812 C 250.922 174.485, 251.176 176.412, 250.815 183.812 C 250.458 191.144, 249.869 193.558, 247.046 199.276 C 242.712 208.052, 233.436 216.945, 225.530 219.903 C 222.447 221.056, 219.562 222, 219.117 222 C 216.596 222, 214.707 226.439, 213.919 234.215 C 211.659 256.513, 200.094 281.291, 185.748 294.573 C 176.205 303.408, 166.650 308.036, 150.895 311.454 C 145.140 312.702, 149.876 312.849, 198.191 312.921 C 234.625 312.974, 252.090 312.663, 252.530 311.952 C 252.886 311.376, 252.846 240.951, 252.440 155.452 L 251.704 0 201.293 0 C 168.669 0, 151.095 0.345, 151.487 0.979 M 113 41.436 C 91.813 49.599, 88.512 51.450, 79.136 60.415 C 68.552 70.535, 60.922 82.739, 54.701 99.500 C 48.656 115.787, 45.408 137.034, 43.923 170 C 42.874 193.297, 42.922 195.016, 44.907 205 C 46.055 210.775, 46.995 216.742, 46.997 218.261 C 47.001 221.689, 55.596 244.427, 61.452 256.500 C 76.208 286.926, 111.977 307.999, 141.867 303.877 C 149.574 302.814, 163.324 298.384, 171 294.491 C 181.166 289.334, 190.899 277.904, 197.947 262.844 C 204.282 249.304, 206.377 239.418, 211.010 201.174 C 212.164 191.645, 214.171 180.170, 215.470 175.674 C 219.094 163.125, 219.263 161.205, 218.005 146.868 C 215.724 120.867, 212.608 109.641, 202.806 92.097 C 197.720 82.995, 181.009 65.684, 168 56.042 C 156.428 47.465, 153.915 46.343, 149.135 47.619 C 145.555 48.574, 145.233 48.470, 143.751 45.889 C 142.743 44.133, 140.790 42.758, 138.337 42.077 C 132.563 40.473, 131.331 40.727, 129 44 C 126.250 47.862, 125.412 47.778, 124 43.500 C 122.997 40.462, 122.427 40.006, 119.672 40.044 C 117.928 40.068, 114.925 40.695, 113 41.436 M 104 82.025 C 104 85.515, 108.187 86.150, 128.985 85.815 C 139.718 85.642, 149.625 85.842, 151 86.260 C 154.393 87.291, 156.844 85.722, 155.108 83.631 C 152.546 80.543, 144.056 79.617, 129.795 80.870 C 120.484 81.688, 114.702 81.735, 110.500 81.025 C 107.200 80.468, 104.388 80.009, 104.250 80.006 C 104.112 80.003, 104 80.911, 104 82.025 M 120.191 101.850 C 115.171 103.264, 118.314 104.500, 126.930 104.500 C 135.862 104.500, 138.718 103.698, 135.971 101.961 C 134.326 100.920, 123.755 100.846, 120.191 101.850 M 73.500 103.228 C 67.054 105.528, 61 112.430, 61 117.479 C 61 121.940, 64.261 123.452, 81.626 127.039 C 89.807 128.729, 98.907 130.730, 101.849 131.486 C 104.790 132.243, 107.715 132.705, 108.349 132.514 C 108.982 132.323, 110.703 131.905, 112.172 131.584 C 114.100 131.163, 115.161 130.042, 115.980 127.562 C 117.419 123.201, 116.022 120.312, 109.328 113.807 C 104.056 108.684, 99.009 106.168, 88.936 103.645 C 81.506 101.783, 77.829 101.684, 73.500 103.228 M 73.500 109.861 C 71.850 110.880, 69.675 112.643, 68.666 113.779 C 66.876 115.794, 66.889 115.881, 69.219 117.408 C 74.592 120.928, 89.845 125.065, 102.744 126.500 C 107.988 127.084, 109.087 126.936, 109.608 125.580 C 110.769 122.553, 108.030 118.485, 102.671 115.280 C 90.580 108.048, 79.705 106.028, 73.500 109.861 M 158.234 115.926 C 151.703 118.973, 143 127.654, 143 131.122 C 143 136.357, 146.086 137.297, 163.816 137.461 C 172.442 137.541, 182.200 137.968, 185.500 138.409 C 190.850 139.126, 191.798 138.977, 194.250 137.034 C 200.123 132.380, 196.756 126.404, 184.408 119.569 C 176.779 115.346, 174.567 114.588, 169 114.287 C 164.058 114.021, 161.477 114.413, 158.234 115.926 M 159.500 121.657 C 155.458 123.781, 150 129.054, 150 130.835 C 150 132.003, 151.191 132.162, 156.250 131.672 C 159.688 131.339, 168.475 131.564, 175.778 132.172 C 183.081 132.780, 189.342 132.992, 189.691 132.643 C 190.039 132.294, 189.863 130.994, 189.297 129.754 C 188.587 128.195, 185.440 126.345, 179.084 123.750 C 169.162 119.700, 164.227 119.173, 159.500 121.657 M 102.671 144.662 C 101.753 145.580, 104.960 149, 106.738 149 C 107.524 149, 107.992 148.476, 107.779 147.836 C 107.228 146.184, 103.479 143.854, 102.671 144.662 M 53.015 149.750 C 53.044 153.042, 54.597 154.318, 57.643 153.552 L 60.500 152.833 57.694 150.416 C 54.371 147.554, 52.994 147.358, 53.015 149.750 M 76.734 149.031 C 68.494 151.098, 58 158.420, 58 162.104 C 58 164.779, 58.924 164.560, 69 159.500 C 73.928 157.025, 78.187 155, 78.465 155 C 78.742 155, 78.697 157.602, 78.365 160.781 C 77.814 166.058, 77.997 166.843, 80.469 169.781 C 83.877 173.831, 87.202 173.952, 90.991 170.163 C 92.918 168.236, 94.053 165.829, 94.528 162.663 C 94.912 160.098, 95.611 158, 96.080 158 C 96.549 158, 99.213 160.025, 102 162.500 C 107.741 167.599, 111 168.356, 111 164.592 C 111 163.104, 109.344 160.480, 106.668 157.727 C 99.695 150.551, 86.247 146.645, 76.734 149.031 M 160 152.099 C 158.075 153.271, 156.352 154.365, 156.170 154.529 C 155.989 154.692, 156.574 155.947, 157.471 157.315 C 159.032 159.698, 158.968 160.022, 155.982 164.875 C 152.945 169.810, 152.220 175.049, 154.500 175.577 C 155.050 175.705, 157.750 173.192, 160.500 169.993 C 163.250 166.795, 165.820 164.138, 166.211 164.089 C 166.603 164.040, 167.429 165.881, 168.048 168.180 C 169.327 172.928, 174.149 178, 177.383 178 C 182.312 178, 185.979 172.358, 185.994 164.750 C 186.002 161.071, 187.674 161.242, 193.958 165.565 C 197.703 168.141, 199.484 168.843, 200.383 168.097 C 201.067 167.530, 203.270 167.332, 205.279 167.658 C 208.913 168.248, 208.928 168.236, 208.073 165.375 C 206.851 161.285, 205.114 157, 204.678 157 C 204.474 157, 202.911 157.697, 201.205 158.548 C 198.258 160.018, 197.911 159.970, 194.301 157.587 C 186.237 152.264, 178.800 150.911, 171.635 153.466 C 167.952 154.778, 167.669 154.728, 165.635 152.405 L 163.500 149.967 160 152.099 M 17.500 155.665 C 10.387 159.424, 7 165.127, 7 173.345 C 7 189.559, 17.352 200.974, 34.200 203.339 L 37.900 203.858 37.910 195.179 C 37.925 182.723, 36.973 180.074, 30.492 174.538 C 25.435 170.217, 23.722 166.908, 25.859 165.587 C 26.332 165.295, 28.469 166.381, 30.609 168 C 32.749 169.619, 35.011 170.957, 35.636 170.972 C 37.306 171.013, 38.339 162.503, 36.975 159.953 C 35.514 157.223, 28.501 154.039, 24 154.062 C 22.075 154.072, 19.150 154.793, 17.500 155.665 M 47.376 157.464 C 46.534 159.657, 49.323 162.474, 51.506 161.636 C 53.572 160.843, 53.064 159.119, 50.207 157.222 C 48.263 155.930, 47.954 155.957, 47.376 157.464 M 231.445 169.165 C 226.850 170.355, 223.851 174.145, 223.244 179.525 L 222.720 184.176 227.882 181.560 L 233.044 178.944 233.890 181.222 C 234.356 182.475, 234.535 183.950, 234.287 184.500 C 234.040 185.050, 230.566 188.038, 226.568 191.140 C 218.677 197.262, 218.035 198.625, 218.011 209.329 L 218 214.159 221.250 213.457 C 229.470 211.683, 234.934 207.010, 239.635 197.734 C 242.647 191.789, 245.329 179.776, 244.494 175.971 C 243.302 170.545, 237.598 167.570, 231.445 169.165 M 133.265 175.250 C 131.304 177.751, 123.030 200.983, 122.189 206.351 C 121.160 212.909, 122.485 224.508, 124.642 227.834 C 126.438 230.602, 131.717 233, 136.016 233 C 142.486 233, 148 222.276, 148 209.692 C 148 198.966, 143.004 179.261, 139.527 176.269 C 136.557 173.715, 134.705 173.413, 133.265 175.250 M 1.073 247.250 L 1 313 63.250 312.918 C 120.579 312.843, 124.958 312.721, 118.647 311.367 C 97.655 306.864, 75.010 291.685, 63.082 274.121 C 54.934 262.122, 44.644 237.554, 41.604 222.841 C 40.125 215.683, 37.730 212, 34.554 212 C 31.610 212, 20.239 207.572, 16.401 204.932 C 11.083 201.273, 5.466 193.659, 3.033 186.812 C 1.148 181.505, 1.146 181.560, 1.073 247.250 M 108.241 188.986 C 106.570 191.662, 106.674 194, 108.465 194 C 110.282 194, 112.345 190.341, 111.608 188.422 C 110.853 186.452, 109.703 186.645, 108.241 188.986 M 159 189.566 C 159 192.361, 163.150 195.713, 168.750 197.441 C 172.583 198.623, 171.429 195.323, 166.850 192.006 C 163.149 189.325, 159 188.035, 159 189.566 M 155 197.930 C 155 200.043, 156.507 201.454, 161.454 203.977 C 164.997 205.783, 165 205.783, 165 203.547 C 165 200.869, 162.669 198.675, 158.250 197.194 C 155.372 196.229, 155 196.313, 155 197.930 M 88.974 235.790 C 84.382 240.383, 83.681 244, 87.383 244 C 88.962 244, 89.952 244.708, 90.315 246.097 C 90.856 248.165, 90.906 248.169, 93.973 246.357 C 95.683 245.347, 97.342 243.484, 97.660 242.217 C 98.339 239.511, 96.037 232.846, 94.213 232.238 C 93.518 232.006, 91.160 233.605, 88.974 235.790 M 164.402 241.565 C 161.858 244.843, 146.632 250.022, 137.500 250.716 C 129.199 251.346, 120.518 249.408, 111.798 244.976 C 103.450 240.734, 99.659 241.024, 102.704 245.671 C 107.284 252.660, 122.981 259, 135.708 259 C 140.029 259, 145.876 258.400, 148.703 257.667 C 153.223 256.494, 155.372 255.387, 160.552 251.561 C 161.366 250.959, 163.281 251.103, 165.878 251.960 C 170.282 253.413, 178.022 252.458, 178.711 250.376 C 179.285 248.641, 174.172 243.128, 170.027 241.014 L 166.305 239.115 164.402 241.565 M 125.495 263.008 C 124.363 264.840, 128.107 268.128, 130.948 267.797 C 132.924 267.567, 133.500 266.936, 133.500 265 C 133.500 262.845, 132.996 262.458, 129.843 262.195 C 127.831 262.028, 125.875 262.393, 125.495 263.008" stroke="none" fill="#fafafa" fill-rule="evenodd"/></svg>