<svg xmlns="http://www.w3.org/2000/svg" width="488" height="511" viewBox="0 0 488 511" version="1.1"><path d="M 450.500 19.106 C 446.100 20.725, 431.250 25.379, 417.500 29.447 C 403.750 33.515, 389.575 37.956, 386 39.316 C 382.425 40.676, 375.963 42.974, 371.641 44.424 C 349.523 51.840, 322.842 63.758, 320.633 67.209 C 319.826 68.469, 317.288 76.250, 314.994 84.500 C 309.220 105.258, 308.949 105.862, 309.609 96.500 C 310.345 86.068, 311.404 82.022, 315.694 73.248 C 318.598 67.309, 319.016 65.724, 317.998 64.498 C 317.314 63.674, 316.240 63, 315.610 63 C 314.981 63, 311.098 66.267, 306.983 70.260 C 302.867 74.254, 295.338 80.353, 290.252 83.814 C 280.863 90.203, 274.582 95.903, 263.047 108.500 C 259.522 112.350, 250.148 122.181, 242.215 130.346 C 228.059 144.918, 227.804 145.120, 228.455 141.268 C 229.171 137.028, 227.370 134.260, 224.588 135.328 C 222.955 135.955, 206.139 160.819, 202.525 167.950 C 196.269 180.296, 195.440 195.763, 199.570 223.082 C 200.983 232.431, 201.982 240.553, 201.790 241.131 C 201.339 242.483, 196.300 222.064, 195.464 215.500 C 194.380 206.981, 191.821 194.544, 190.963 193.623 C 190.514 193.141, 188.993 193.036, 187.583 193.390 C 185.399 193.938, 185.072 194.502, 185.368 197.211 C 185.560 198.959, 185.135 202.593, 184.425 205.286 C 183.714 207.979, 183.404 210.890, 183.736 211.755 C 184.135 212.795, 183.943 213.083, 183.170 212.605 C 182.478 212.178, 181.949 212.519, 181.875 213.441 C 181.726 215.304, 181.536 216.022, 180.672 218 C 179.978 219.588, 178.911 228.977, 178.714 235.232 C 178.647 237.359, 178.272 238.440, 177.843 237.746 C 177.140 236.608, 177.554 259.003, 178.453 270.750 C 178.675 273.637, 178.486 276, 178.035 276 C 176.555 276, 176 272.958, 176 264.845 C 176 257.774, 175.798 256.892, 174.250 257.187 C 172.791 257.464, 172.360 259.195, 171.656 267.599 L 170.811 277.679 163.316 279.446 C 143.086 284.215, 126.207 294.890, 119.494 307.161 C 115.646 314.194, 115.293 325.164, 118.708 331.595 C 122.679 339.074, 130.789 344.432, 144.362 348.546 C 148.461 349.789, 175.307 354, 179.128 354 C 180.631 354, 178.862 359.300, 176.348 362.327 C 175.057 363.881, 174 366.192, 174 367.462 C 174 370.247, 176.435 375.232, 177.348 374.318 C 178.682 372.985, 177.927 375.917, 175.556 381.277 C 174.212 384.315, 171.660 388.456, 169.885 390.479 L 166.656 394.155 168.845 400.952 C 170.049 404.689, 170.751 408.485, 170.405 409.387 C 170.059 410.288, 170.284 411.638, 170.905 412.386 C 171.526 413.134, 171.754 414.479, 171.410 415.373 C 171.067 416.268, 171.206 417, 171.720 417 C 172.233 417, 172.455 418.350, 172.213 420 C 171.956 421.756, 172.222 423, 172.855 423 C 173.450 423, 173.702 423.612, 173.415 424.361 C 172.619 426.436, 179.714 429.373, 185 429.155 C 192.724 428.838, 220.206 424.987, 247.500 420.397 C 258.500 418.547, 273.575 416.144, 281 415.057 C 299.403 412.363, 332.606 405.604, 345.266 401.975 C 359.448 397.910, 366.963 394.726, 375.229 389.280 C 389.046 380.177, 393.156 368.857, 386.459 358.354 C 384.073 354.612, 376.691 349.240, 370.999 347.101 C 367.975 345.965, 366.364 345.590, 367.421 346.268 C 370.559 348.281, 377.086 354.247, 376.639 354.694 C 376.412 354.922, 374.712 354.185, 372.863 353.058 C 371.013 351.930, 368.808 351.006, 367.961 351.004 C 367.115 351.002, 364.754 350.149, 362.714 349.109 C 357.592 346.498, 355.059 346.002, 351.085 346.833 L 347.670 347.547 351.585 349.201 C 353.738 350.111, 356.756 351.126, 358.291 351.457 C 359.826 351.788, 360.815 352.490, 360.489 353.018 C 360.147 353.572, 360.621 353.699, 361.612 353.319 C 362.868 352.836, 363.109 353.015, 362.510 353.985 C 361.976 354.847, 362.078 355.070, 362.801 354.623 C 365.753 352.799, 377.087 360.659, 379.153 365.963 C 381.557 372.135, 372.141 381.402, 357.785 386.993 C 349.255 390.315, 333.572 394.729, 319 397.910 C 287.325 404.823, 270.909 408.062, 270.097 407.560 C 269.588 407.245, 269.020 407.373, 268.835 407.845 C 268.436 408.867, 226.541 417.595, 213 419.477 C 207.775 420.203, 200.019 421.033, 195.765 421.320 L 188.030 421.844 189.663 418.672 C 191.992 414.149, 195.929 408.858, 198.861 406.311 C 201.377 404.124, 201.379 404.112, 200.121 396.311 C 198.630 387.066, 199.788 379.938, 203.421 376 C 206.093 373.104, 208.445 367, 206.889 367 C 206.335 367, 206.123 366.610, 206.417 366.134 C 206.712 365.657, 206.123 364.517, 205.110 363.599 C 203.715 362.337, 203.426 361.149, 203.922 358.716 L 204.578 355.500 225.039 354.781 C 236.293 354.385, 246.475 354.272, 247.667 354.529 C 248.859 354.786, 249.984 354.552, 250.167 354.009 C 250.579 352.786, 275.958 350.123, 276.643 351.231 C 276.915 351.672, 277.583 351.758, 278.126 351.422 C 278.670 351.086, 280.101 350.656, 281.307 350.465 C 282.513 350.275, 285.300 349.675, 287.500 349.132 C 289.700 348.589, 300.593 348.249, 311.708 348.377 C 322.822 348.504, 333.622 348.388, 335.708 348.119 L 339.500 347.629 335.500 346.643 C 333.300 346.101, 320.925 345.529, 308 345.372 C 295.075 345.214, 282.025 345.032, 279 344.967 L 273.500 344.848 277 343.500 C 279.288 342.619, 285.347 342.123, 294.500 342.068 C 311.145 341.967, 331.056 340.344, 332.424 338.976 C 333.741 337.659, 310.701 337.691, 298.711 339.024 C 293.645 339.587, 284.550 340.457, 278.500 340.957 C 272.450 341.457, 258.500 342.791, 247.500 343.920 C 236.500 345.049, 222.614 345.979, 216.643 345.987 C 206.703 345.999, 205.845 345.852, 206.478 344.250 C 206.859 343.288, 208.038 339.125, 209.097 335 C 210.157 330.875, 211.754 326.956, 212.647 326.291 C 214.777 324.705, 221.739 323.698, 227.444 324.152 C 229.950 324.351, 232 324.165, 232 323.738 C 232 323.311, 233.192 323.261, 234.649 323.627 C 236.392 324.064, 237.076 323.932, 236.648 323.239 C 236.260 322.611, 236.704 322.354, 237.749 322.601 C 238.712 322.828, 240.625 322.072, 242 320.921 C 243.375 319.769, 243.825 319.124, 243 319.487 C 242.175 319.851, 242.374 319.440, 243.441 318.574 C 244.540 317.683, 244.840 317, 244.132 317 C 243.445 317, 243.141 316.581, 243.457 316.069 C 243.774 315.557, 243.506 314.813, 242.862 314.415 C 242.131 313.963, 241.959 314.124, 242.405 314.845 C 243.300 316.294, 241.764 316.364, 240.339 314.939 C 239.591 314.191, 238.196 314.486, 235.609 315.939 C 233.590 317.073, 231.390 317.993, 230.720 317.985 C 230.049 317.977, 230.453 317.415, 231.618 316.735 C 234.007 315.342, 236.551 313.682, 246.313 307.147 C 253.742 302.175, 259.892 296.044, 262.488 291.022 C 263.939 288.218, 263.165 288.654, 256.323 294.496 C 249.294 300.499, 236.380 307.871, 230.500 309.237 C 229.373 309.499, 233.978 304.094, 241.053 296.851 L 253.606 284 258.810 284 C 276.708 284, 310.160 275.719, 339.500 264.025 C 368.739 252.372, 387.761 235.590, 397.508 212.850 C 399.392 208.453, 400.805 206.372, 401.679 206.707 C 402.406 206.986, 403 206.716, 403 206.107 C 403 205.498, 402.592 205, 402.094 205 C 401.595 205, 401.409 204.151, 401.681 203.113 C 402.360 200.515, 400.008 199.268, 398.449 201.400 C 397.763 202.338, 397.005 202.745, 396.765 202.303 C 396.524 201.861, 396.481 202.104, 396.668 202.841 C 397.044 204.329, 394.001 211.335, 393.288 210.621 C 393.041 210.374, 393.340 209.233, 393.954 208.086 C 394.696 206.700, 394.723 206, 394.035 206 C 392.987 206, 392.874 206.399, 392.576 211.155 C 392.334 215.017, 385.716 224.490, 377.805 232.297 C 365.383 244.556, 350.529 252.505, 323 261.627 C 312.231 265.195, 301 267.868, 301 266.862 C 301 266.388, 300.523 266, 299.941 266 C 299.359 266, 299.140 266.417, 299.454 266.926 C 300.311 268.313, 274.053 273, 265.431 273 L 261.848 273 264.174 270.148 C 265.453 268.579, 267.012 267.483, 267.638 267.712 C 268.264 267.941, 269.386 266.749, 270.132 265.064 C 270.878 263.379, 271.877 262, 272.351 262 C 272.826 262, 272.968 261.358, 272.666 260.573 C 272.365 259.788, 272.880 258.551, 273.809 257.823 C 275.363 256.607, 275.379 256.662, 274 258.500 C 272.611 260.352, 272.629 260.399, 274.239 259.137 C 275.195 258.387, 275.766 257.431, 275.507 257.012 C 274.855 255.957, 279.951 249.185, 284.416 245.172 C 292.160 238.211, 287.097 235.386, 272.345 238.437 C 264.771 240.003, 260.231 240.435, 261.166 239.501 C 261.660 239.007, 263.211 238.653, 278.238 235.607 C 287.547 233.720, 308.278 226.112, 314.062 222.461 C 327.145 214.202, 350 192.957, 350 189.055 C 350 185.580, 347.698 185.712, 340.920 189.575 C 335.619 192.596, 327.690 195.946, 329.114 194.564 C 330.384 193.331, 342.369 184.821, 347.061 181.822 C 355.685 176.308, 378.167 150.296, 384.653 138.327 C 387.436 133.190, 386.022 132.513, 369.264 130.963 C 352.661 129.428, 352.193 129.649, 378.760 126.467 C 386.310 125.563, 393.869 124.061, 396.313 122.980 C 400.515 121.121, 406.683 115.168, 418.178 101.875 C 424.618 94.428, 439 73.324, 439 71.322 C 439 69.356, 436.502 69.690, 426 73.059 C 417.368 75.829, 402.750 79.009, 399 78.933 C 397.285 78.898, 408.041 74.571, 415.475 72.305 C 423.878 69.744, 439.323 61.248, 445.364 55.863 C 451.395 50.488, 455.235 44.014, 461.002 29.495 C 464.362 21.037, 464.750 17.502, 462.418 16.607 C 460.083 15.711, 459.249 15.886, 450.500 19.106 M 426 33.923 C 417.475 36.561, 405.934 40.137, 400.353 41.871 L 390.206 45.022 381.151 56.261 C 376.170 62.443, 369.131 71.045, 365.508 75.378 C 361.886 79.710, 359.145 83.479, 359.418 83.752 C 360.832 85.166, 380.646 70.127, 391.983 59.034 C 404.804 46.490, 409.149 42.984, 407.077 46.856 C 406.486 47.960, 403.090 51.819, 399.531 55.431 C 395.971 59.044, 393.327 62, 393.656 62 C 393.984 62, 397.908 59.818, 402.376 57.151 C 406.844 54.484, 414.325 50.141, 419 47.500 C 426.402 43.319, 444 30.590, 444 29.417 C 444 28.532, 440.987 29.286, 426 33.923 M 444.500 35.776 C 440.650 38.376, 435.207 42.303, 432.404 44.502 C 417.025 56.568, 406.103 65.591, 406.055 66.269 C 405.925 68.089, 430.703 60.050, 437.753 55.985 C 442.640 53.167, 443.387 52.194, 448.511 41.978 C 451.774 35.471, 453.504 31.010, 452.758 31.024 C 452.066 31.036, 448.350 33.175, 444.500 35.776 M 372.804 51.326 L 364.108 54.153 353.696 68.826 C 340.815 86.979, 329 104.858, 329 106.198 C 329 108.064, 343.279 94.583, 351.925 84.554 C 356.641 79.084, 363.227 71.659, 366.560 68.054 C 375.730 58.136, 382.228 50.155, 381.844 49.282 C 381.655 48.852, 377.587 49.772, 372.804 51.326 M 350.290 59.707 L 342.080 63.160 329.664 88.330 C 317.611 112.763, 313.072 120.760, 314.528 115 C 315.425 111.452, 328.091 85.386, 334.087 74.750 C 336.862 69.827, 338.924 65.591, 338.669 65.335 C 338.319 64.986, 324.561 71.327, 323.265 72.435 C 322.089 73.441, 312.821 109.142, 311.450 117.944 L 310.759 122.388 315.968 118.027 C 318.832 115.629, 321.576 112.616, 322.063 111.333 C 322.551 110.050, 327.522 102.138, 333.109 93.750 C 342.491 79.666, 347.985 72.125, 356.724 61.339 C 358.578 59.050, 359.737 56.969, 359.298 56.715 C 358.859 56.462, 354.805 57.808, 350.290 59.707 M 368.415 84.768 C 330.021 110.592, 289.751 145.669, 270.683 169.897 C 254.140 190.917, 240.193 212.502, 223.768 242.500 C 213.535 261.190, 203.725 286.045, 198.437 306.675 C 194.365 322.565, 194.309 323.244, 197.114 322.820 C 198.860 322.556, 200.069 320.091, 204.049 308.682 C 206.701 301.082, 212.016 288.032, 215.861 279.682 C 219.706 271.332, 224.046 261.493, 225.506 257.817 C 228.986 249.051, 248.695 213.689, 255.779 203.500 C 265.405 189.654, 290.868 159.100, 304.401 145.154 C 314.010 135.252, 339.207 112.161, 346.581 106.500 C 349.446 104.300, 358.679 96.875, 367.097 90 C 375.515 83.125, 383.099 76.974, 383.950 76.332 C 384.801 75.689, 385.243 74.910, 384.934 74.600 C 384.624 74.290, 377.190 78.866, 368.415 84.768 M 192.477 81.466 C 154.307 92.099, 122.510 110.892, 96.479 138.202 C 67.457 168.651, 49.837 203.263, 41.857 245.500 C 38.602 262.727, 38.559 296.897, 41.771 314.500 C 44.294 328.333, 49.748 348.069, 53.570 357.201 C 61.539 376.242, 75.490 399.556, 86.697 412.557 C 122.863 454.516, 169.832 479.533, 222.849 485.075 C 239.065 486.770, 267.547 485.794, 281.500 483.065 C 319.025 475.727, 349.548 461.229, 377.990 437.234 C 409.874 410.335, 431.724 373.995, 440.546 333.192 C 443.133 321.224, 443.562 316.466, 442.134 315.583 C 440.435 314.533, 438.030 318.753, 429.631 337.533 C 414.916 370.432, 403.682 388.554, 387.833 404.954 C 373.214 420.083, 357.677 431.224, 337.500 441.046 C 307.655 455.575, 286.593 460.443, 253.500 460.460 C 227.068 460.473, 210.730 457.972, 189.500 450.662 C 120.126 426.773, 71.205 367.404, 60.823 294.500 C 59.177 282.936, 59.187 250.848, 60.840 240.500 C 70.057 182.817, 99.300 137.952, 147.999 106.781 C 161.853 97.913, 189.808 86.261, 205.493 82.816 C 209.753 81.881, 211.582 80.994, 211.817 79.750 C 212.325 77.056, 206.432 77.578, 192.477 81.466 M 415.358 81.531 C 406.376 84.822, 384.411 90, 379.434 90 C 376.441 90, 371.677 92.304, 367.500 95.772 C 360.342 101.714, 357.825 104.158, 358.338 104.671 C 359.139 105.473, 380.236 103.266, 393.781 100.963 C 410.426 98.133, 413.855 96.793, 417.776 91.587 C 421.229 87.001, 426.158 77.936, 425.114 78.091 C 424.776 78.141, 420.386 79.689, 415.358 81.531 M 295.500 88.660 C 290.550 92.811, 284.585 97.422, 282.245 98.906 C 276.581 102.498, 228.408 150.203, 224.327 156.262 C 222.433 159.074, 220.844 162.965, 220.448 165.762 C 219.480 172.605, 217.246 182.097, 216.426 182.852 C 214.986 184.177, 216.990 164.212, 218.918 158.015 C 220.019 154.479, 220.758 151.424, 220.561 151.227 C 220.363 151.030, 219.117 152.361, 217.792 154.184 C 216.466 156.008, 213.424 160.164, 211.030 163.420 C 205.456 171.004, 203.503 176.284, 202.018 187.798 C 200.648 198.412, 201.291 206.292, 206.076 237.500 C 207.678 247.950, 208.991 257.512, 208.994 258.750 C 209.005 262.847, 210.453 261.071, 214.717 251.734 C 218.556 243.327, 218.857 242.097, 218.071 238 C 217.597 235.525, 216.920 224.050, 216.567 212.500 C 216.213 200.950, 215.698 189.700, 215.420 187.500 C 215.070 184.722, 215.209 183.962, 215.874 185.012 C 217.509 187.590, 219.800 201.961, 220.495 214 C 221.091 224.334, 221.786 234.663, 221.975 236 C 222.014 236.275, 223.519 233.767, 225.319 230.427 L 228.593 224.354 227.870 206.427 C 226.834 180.777, 226.868 173.170, 228.008 175.122 C 229.783 178.160, 232.198 195.470, 232.349 206.241 C 232.432 212.148, 232.553 216.986, 232.617 216.991 C 232.682 216.996, 233.951 215.161, 235.438 212.914 L 238.142 208.828 238.321 183.463 C 238.453 164.706, 238.826 157.773, 239.750 156.849 C 240.750 155.850, 241.020 159.090, 241.099 173.050 C 241.153 182.648, 241.491 192.975, 241.849 196 L 242.500 201.500 244.877 198.167 C 247.123 195.019, 247.271 193.888, 247.560 177.667 C 247.914 157.850, 251.228 134.775, 253.390 137.083 C 253.605 137.313, 253.401 144.700, 252.936 153.500 C 251.863 173.849, 251.793 186.010, 252.750 185.962 C 254.193 185.889, 259 177.952, 259 175.641 C 259 174.359, 260.152 167.168, 261.560 159.661 C 262.968 152.154, 264.450 140.722, 264.854 134.256 C 265.555 123.036, 265.643 122.682, 266.788 126.500 C 268.448 132.029, 268.299 148.788, 266.500 159 C 265.677 163.675, 265.002 168.092, 265.001 168.816 C 265.001 169.539, 267.773 166.614, 271.163 162.316 C 274.552 158.017, 278.827 152.811, 280.663 150.747 L 284 146.994 284 124.556 C 284 110.676, 284.381 101.882, 285 101.500 C 285.655 101.095, 286 108.137, 286 121.882 C 286 133.432, 286.381 143.118, 286.847 143.405 C 287.313 143.693, 288.836 142.707, 290.232 141.214 C 292.715 138.559, 292.785 138.073, 293.435 119 C 294.137 98.350, 294.684 93, 296.091 93 C 296.569 93, 297.081 102.301, 297.230 113.668 L 297.500 134.336 300.417 131.826 L 303.334 129.316 303.095 111.281 C 302.879 94.970, 303.231 91.005, 305.627 82.750 C 306.466 79.858, 304.916 80.763, 295.500 88.660 M 239.250 82.743 C 236.937 83.150, 236.297 84.447, 237.915 85.447 C 238.418 85.758, 238.987 85.540, 239.179 84.963 C 239.376 84.373, 240.433 84.754, 241.591 85.834 C 242.726 86.891, 244.655 88.073, 245.878 88.461 C 247.101 88.850, 249.414 90.367, 251.017 91.834 C 257.902 98.131, 267.548 103.591, 266.371 100.525 C 266.092 99.797, 266.344 98.905, 266.932 98.542 C 267.519 98.179, 268 98.413, 268 99.062 C 268 99.711, 271.262 97.165, 275.250 93.403 C 279.238 89.641, 282.500 86.107, 282.500 85.549 C 282.500 84.991, 280.700 84.186, 278.500 83.761 C 274.124 82.916, 242.871 82.105, 239.250 82.743 M 402.797 103.045 C 396.294 105.149, 376.657 108.345, 360.592 109.912 C 354.593 110.498, 348.743 111.596, 347.592 112.354 C 344.417 114.443, 335 123.086, 335 123.911 C 335 124.311, 338.038 124.299, 341.750 123.885 C 352.239 122.715, 370.493 121.101, 381.500 120.370 L 391.500 119.706 399.341 112.103 C 405.704 105.933, 410.311 100.566, 408.785 101.100 C 408.628 101.155, 405.934 102.030, 402.797 103.045 M 276.638 116.176 C 276.337 120.204, 275.560 130.167, 274.911 138.315 C 274.092 148.592, 274.050 153.450, 274.773 154.173 C 276.628 156.028, 277.907 151.701, 279.011 139.836 C 279.759 131.791, 279.757 125.683, 279.003 119.026 C 278.416 113.843, 277.766 109.433, 277.560 109.227 C 277.354 109.020, 276.939 112.147, 276.638 116.176 M 321.742 135.288 C 319.125 137.605, 316.987 139.838, 316.992 140.250 C 316.996 140.662, 318.238 141.003, 319.750 141.006 C 322.667 141.012, 340.821 143.568, 344.948 144.553 C 346.396 144.899, 346.940 145.419, 346.279 145.827 C 345.665 146.207, 337.926 145.872, 329.082 145.084 L 313.001 143.650 310.501 145.999 C 309.125 147.291, 308 148.667, 308 149.056 C 308 149.445, 311.938 150.053, 316.750 150.406 C 336.299 151.842, 340 152.274, 340 153.117 C 340 154.277, 312.402 154.263, 308.352 153.101 C 305.480 152.277, 304.884 152.549, 301.224 156.351 C 299.027 158.633, 293.292 165.225, 288.479 171 L 279.729 181.500 300.115 182 C 311.327 182.275, 320.021 182.813, 319.435 183.195 C 317.992 184.136, 289.955 186.180, 282.603 185.880 C 277.183 185.659, 276.503 185.877, 274.183 188.570 L 271.659 191.500 289.580 192.059 C 299.436 192.366, 307.725 192.732, 308 192.872 C 310.100 193.942, 301.094 195.070, 285.892 195.641 L 267.860 196.318 265.430 199.503 C 264.093 201.255, 263 203.011, 263 203.405 C 263 204.062, 267.791 203.830, 283.250 202.424 C 286.515 202.127, 289 202.304, 289 202.834 C 289 204.203, 285.898 204.813, 272.124 206.151 L 259.749 207.354 256.360 212.652 C 252.892 218.073, 243 235.927, 243 236.765 C 243 238.555, 281.972 228.683, 298.539 222.697 C 309.857 218.608, 328.214 207.045, 334.452 200.076 L 336.404 197.896 333.452 199.028 C 331.828 199.651, 326.450 200.817, 321.500 201.620 C 316.550 202.423, 309.125 204.142, 305 205.440 C 300.875 206.737, 296.417 207.957, 295.093 208.150 C 292.265 208.561, 291.093 206.502, 293.709 205.718 C 299.464 203.993, 313.676 197.268, 321 192.803 C 330.106 187.252, 341.321 179.301, 341.780 178.071 C 341.934 177.658, 330.925 177.017, 317.315 176.646 C 303.706 176.275, 292.153 175.553, 291.641 175.041 C 290.433 173.833, 295.112 172.587, 301 172.548 C 307.887 172.502, 338.035 174.009, 342.114 174.603 C 345.258 175.061, 346.323 174.615, 350.303 171.170 C 352.819 168.993, 354.605 166.939, 354.272 166.606 C 353.939 166.272, 350.479 165.998, 346.583 165.996 C 338.759 165.991, 309.801 163.414, 306.250 162.405 C 305.012 162.054, 304 161.303, 304 160.735 C 304 159.633, 305.991 159.738, 338.500 162.561 L 357.500 164.211 363.248 157.855 C 368.996 151.501, 377 140.435, 377 138.844 C 377 138.380, 373.457 138, 369.126 138 C 364.683 138, 359.399 137.346, 357 136.500 C 354.662 135.675, 351.280 135, 349.484 135 C 347.689 135, 341.846 134.100, 336.500 133 C 331.154 131.900, 326.717 131.017, 326.640 131.038 C 326.563 131.060, 324.359 132.972, 321.742 135.288 M 382.348 145.519 C 375.810 155.082, 373.030 158.708, 367.684 164.649 C 364.288 168.422, 364.058 169.032, 365.136 171.399 C 365.788 172.829, 366.811 174.007, 367.411 174.015 C 368.010 174.024, 367.825 174.467, 367 175 C 365.797 175.778, 365.963 175.972, 367.842 175.985 C 370.173 176, 373.321 178.012, 379.206 183.250 C 380.906 184.762, 383.114 186, 384.113 186 C 385.112 186, 386.395 186.870, 386.964 187.932 C 387.533 188.995, 388.898 190.150, 389.999 190.500 C 391.100 190.849, 392 191.779, 392 192.567 C 392 193.355, 392.874 194, 393.943 194 C 395.012 194, 396.544 194.939, 397.348 196.087 L 398.810 198.174 399.490 196.032 C 400.206 193.777, 402.725 193.804, 402.188 196.061 C 402.017 196.781, 402.160 198.502, 402.507 199.883 C 403.006 201.873, 403.328 202.094, 404.053 200.948 C 404.732 199.875, 404.994 200.277, 405.064 202.500 C 405.115 204.150, 405.385 204.938, 405.662 204.250 C 406.492 202.194, 408.859 202.819, 412.277 205.996 C 417.553 210.901, 427.157 217.154, 428.576 216.609 C 429.402 216.292, 429.696 216.627, 429.360 217.503 C 428.616 219.443, 429.778 221.022, 431.472 220.372 C 432.473 219.988, 432.637 219.205, 432.040 217.666 C 431.577 216.475, 430.494 213.250, 429.632 210.500 C 424.357 193.658, 417.569 179.467, 407.867 165 C 401.081 154.881, 389.387 140.624, 387.522 140.196 C 386.793 140.028, 384.464 142.424, 382.348 145.519 M 361.459 171.067 C 361.096 171.653, 361.040 172.373, 361.333 172.667 C 362.050 173.383, 364 172.121, 364 170.941 C 364 169.663, 362.274 169.748, 361.459 171.067 M 208.535 215.500 C 209.083 224.096, 211.416 241.825, 212.639 246.699 C 212.957 247.964, 213.683 249, 214.252 249 C 215.570 249, 214.717 239.472, 211.928 223.050 C 209.178 206.862, 207.785 203.761, 208.535 215.500 M 187.113 219.095 C 184.500 231.296, 182.597 251.176, 183.293 259 C 185.946 288.831, 191.166 314.466, 193.954 311.357 C 195.431 309.711, 196.949 301.586, 195.900 300.938 C 195.351 300.599, 194.269 295.861, 193.496 290.410 C 192.723 284.960, 191.396 276.900, 190.546 272.500 C 188.618 262.523, 188.640 260.511, 190.628 265 C 192.405 269.015, 197 289.690, 197 293.670 C 197 297.145, 198.162 295.898, 199.664 290.810 C 200.426 288.231, 200.526 286.160, 199.939 285.126 C 198.911 283.315, 190.906 243.761, 191.456 243.210 C 192.601 242.066, 197.747 259.922, 201.046 276.479 L 202.237 282.459 204.580 275.989 L 206.922 269.519 203.437 260.705 C 198.604 248.483, 192.394 226.792, 191.496 219 C 190.208 207.809, 189.526 207.824, 187.113 219.095 M 265.777 215.083 C 258.006 215.906, 254 217.250, 254 219.035 C 254 220.290, 253.525 220.333, 266.657 217.886 C 272.896 216.723, 278 215.373, 278 214.886 C 278 213.896, 276.819 213.915, 265.777 215.083 M 260 223.703 C 254.356 224.674, 250 226.136, 250 227.058 C 250 227.597, 251.012 227.830, 252.250 227.576 C 261.620 225.653, 265 224.679, 265 223.900 C 265 222.978, 264.355 222.953, 260 223.703 M 236.978 246.526 C 235.591 248.198, 230.002 260.393, 230.001 261.750 C 230 263.337, 229.718 263.362, 238.243 261 C 246.148 258.809, 254.126 258.274, 252.345 260.055 C 251.765 260.635, 245.984 262.589, 239.498 264.398 C 228.078 267.582, 227.644 267.805, 225.780 271.437 C 224.721 273.501, 224.015 275.349, 224.211 275.544 C 224.407 275.740, 228.827 274.807, 234.033 273.470 C 244.418 270.805, 246.404 270.537, 245.549 271.921 C 244.884 272.997, 231.163 277.612, 225.866 278.541 C 222.489 279.134, 221.978 279.723, 218.660 286.840 C 214.147 296.523, 208.821 311.001, 209.775 310.996 C 210.174 310.994, 211.850 310.172, 213.500 309.169 C 215.150 308.166, 218.628 306.536, 221.229 305.545 C 223.829 304.555, 228.554 301.341, 231.729 298.402 L 237.500 293.060 228 297.133 C 213.880 303.188, 214 303.150, 214 301.575 C 214 300.754, 219.540 297.880, 227.750 294.441 C 240.614 289.053, 241.906 288.258, 247.806 282.091 C 251.275 278.466, 257.575 270.601, 261.806 264.613 C 266.038 258.626, 270.873 251.876, 272.552 249.613 L 275.603 245.500 256.716 245.500 C 245.026 245.500, 237.505 245.891, 236.978 246.526 M 176.232 252 C 176.232 253.925, 176.438 254.713, 176.689 253.750 C 176.941 252.787, 176.941 251.213, 176.689 250.250 C 176.438 249.287, 176.232 250.075, 176.232 252 M 243.331 252.481 C 235.603 253.883, 234 254.522, 234 256.197 C 234 257.527, 241.983 256.689, 250.500 254.464 C 262.840 251.241, 257.820 249.852, 243.331 252.481 M 310 269 L 307.500 269.801 310 269.801 C 311.375 269.801, 313.625 269.440, 315 269 L 317.500 268.199 315 268.199 C 313.625 268.199, 311.375 268.560, 310 269 M 240.500 281.637 C 237.200 282.990, 233.522 284.188, 232.326 284.299 C 229.435 284.566, 222.061 289.175, 222.027 290.735 C 221.999 292.021, 223.166 291.629, 239 285.038 C 246.526 281.904, 251.049 278.902, 247.964 279.088 C 247.159 279.137, 243.800 280.284, 240.500 281.637 M 179.086 288.500 C 179.190 290.394, 180.856 293.584, 180.914 292 C 180.945 291.175, 180.533 289.825, 180 289 C 179.467 288.175, 179.055 287.950, 179.086 288.500 M 170 290.947 C 170 292.396, 174.320 299.191, 176.271 300.810 C 177.405 301.751, 177.191 300.555, 175.463 296.295 C 174.171 293.108, 172.413 290.355, 171.556 290.177 C 170.700 289.999, 170 290.345, 170 290.947 M 155.874 294.414 C 142.740 298.967, 131.497 307.263, 128.356 314.718 C 126.591 318.906, 126.627 325.378, 128.435 328.873 C 131.910 335.595, 146.352 340.985, 167.540 343.471 C 174.713 344.312, 180.826 345, 181.125 345 C 181.425 345, 181.699 342.738, 181.735 339.972 C 181.771 337.207, 182.215 334.395, 182.721 333.722 C 183.227 333.050, 183.547 330.142, 183.431 327.259 C 183.315 324.350, 183.622 322.267, 184.123 322.576 C 184.618 322.882, 185.295 321.776, 185.626 320.118 C 185.958 318.459, 186.965 316.944, 187.865 316.751 C 189.027 316.501, 188.551 315.895, 186.221 314.659 C 184.417 313.702, 182.493 313.195, 181.946 313.533 C 181.398 313.872, 181.034 313.778, 181.136 313.324 C 181.239 312.871, 178.366 309.482, 174.753 305.794 C 171.098 302.062, 167.665 297.516, 167.014 295.544 C 165.635 291.365, 164.888 291.290, 155.874 294.414 M 189.663 321.670 C 189.298 322.035, 189 323.578, 189 325.099 C 189 331.578, 201.664 334.786, 205.914 329.382 C 207.046 327.943, 207.727 326.368, 207.427 325.882 C 206.706 324.715, 204 324.745, 204 325.921 C 204 327.210, 198.472 328.285, 195.953 327.485 C 194.803 327.120, 193.066 325.513, 192.094 323.914 C 191.122 322.315, 190.028 321.306, 189.663 321.670 M 187.548 334.250 C 187.279 335.488, 186.141 342.096, 185.019 348.935 C 183.429 358.629, 183.251 361.537, 184.211 362.130 C 184.888 362.549, 185.622 362.711, 185.843 362.491 C 186.063 362.270, 187.515 355.900, 189.069 348.335 C 191.114 338.383, 191.600 334.223, 190.825 333.290 C 189.242 331.382, 188.100 331.716, 187.548 334.250 M 193.607 336.582 C 193.273 337.452, 193 339.503, 193 341.139 C 193 342.775, 192.503 346.086, 191.897 348.497 C 191.290 350.907, 190.994 353.469, 191.240 354.190 C 191.623 355.313, 196 338.518, 196 335.924 C 196 334.402, 194.260 334.880, 193.607 336.582 M 201 335.480 C 201 335.744, 199.597 342.306, 197.882 350.062 C 195.647 360.169, 195.070 364.470, 195.844 365.244 C 196.619 366.019, 197.219 365.553, 197.963 363.598 C 198.533 362.097, 199 360.285, 199 359.569 C 199 358.854, 200.125 353.285, 201.500 347.194 C 204.451 334.122, 204.379 335, 202.500 335 C 201.675 335, 201 335.216, 201 335.480 M 246.649 347.588 C 232.556 349.293, 231.542 349.824, 242.201 349.921 C 250.966 350.001, 260.692 348.546, 262.450 346.893 C 263.644 345.771, 260.551 345.907, 246.649 347.588 M 178 365.378 C 178 367.339, 179.790 368.513, 185.500 370.299 C 194.460 373.101, 198.367 373.333, 200.978 371.219 C 203.880 368.869, 202.948 366.422, 199.794 368.111 C 196.877 369.672, 189.130 368.725, 183.833 366.161 C 178.591 363.623, 178 363.544, 178 365.378 M 182.071 376.250 C 179.318 383.296, 176.594 388.927, 174.380 392.146 L 171.872 395.792 174.100 404.146 C 175.326 408.741, 176.650 412.873, 177.043 413.329 C 178.302 414.789, 181.070 405, 179.977 402.956 C 178.463 400.127, 178.811 397.580, 181.039 395.189 C 183.523 392.522, 187.116 392.366, 189.345 394.829 C 191.104 396.772, 191.576 401.965, 190.138 403.550 C 189.664 404.072, 188.798 406.525, 188.213 409 L 187.149 413.500 189.824 410.059 C 191.296 408.166, 193.520 405.505, 194.766 404.146 C 196.404 402.358, 196.819 401.097, 196.266 399.587 C 195.264 396.857, 195.279 382.294, 196.287 378.680 C 197.018 376.059, 196.887 375.883, 194.442 376.180 C 192.311 376.439, 191.372 377.541, 189.507 381.966 C 188.240 384.972, 186.708 387.597, 186.102 387.799 C 184.645 388.285, 184.708 387.347, 186.545 381.159 C 187.395 378.297, 187.819 375.516, 187.486 374.978 C 186.366 373.165, 182.964 373.964, 182.071 376.250 M 184 398.979 C 182.678 399.815, 182.692 400.119, 184.118 401.546 C 185.608 403.037, 185.774 402.961, 186.229 400.582 C 186.761 397.801, 186.340 397.499, 184 398.979" stroke="none" fill="#534f55" fill-rule="evenodd"/><path d="M 426 33.923 C 417.475 36.561, 405.934 40.137, 400.353 41.871 L 390.206 45.022 381.151 56.261 C 376.170 62.443, 369.131 71.045, 365.508 75.378 C 361.886 79.710, 359.145 83.479, 359.418 83.752 C 360.832 85.166, 380.646 70.127, 391.983 59.034 C 404.804 46.490, 409.149 42.984, 407.077 46.856 C 406.486 47.960, 403.090 51.819, 399.531 55.431 C 395.971 59.044, 393.327 62, 393.656 62 C 393.984 62, 397.908 59.818, 402.376 57.151 C 406.844 54.484, 414.325 50.141, 419 47.500 C 426.402 43.319, 444 30.590, 444 29.417 C 444 28.532, 440.987 29.286, 426 33.923 M 444.500 35.776 C 440.650 38.376, 435.207 42.303, 432.404 44.502 C 417.025 56.568, 406.103 65.591, 406.055 66.269 C 405.925 68.089, 430.703 60.050, 437.753 55.985 C 442.640 53.167, 443.387 52.194, 448.511 41.978 C 451.774 35.471, 453.504 31.010, 452.758 31.024 C 452.066 31.036, 448.350 33.175, 444.500 35.776 M 372.804 51.326 L 364.108 54.153 353.696 68.826 C 340.815 86.979, 329 104.858, 329 106.198 C 329 108.064, 343.279 94.583, 351.925 84.554 C 356.641 79.084, 363.227 71.659, 366.560 68.054 C 375.730 58.136, 382.228 50.155, 381.844 49.282 C 381.655 48.852, 377.587 49.772, 372.804 51.326 M 350.290 59.707 L 342.080 63.160 329.664 88.330 C 317.611 112.763, 313.072 120.760, 314.528 115 C 315.425 111.452, 328.091 85.386, 334.087 74.750 C 336.862 69.827, 338.924 65.591, 338.669 65.335 C 338.319 64.986, 324.561 71.327, 323.265 72.435 C 322.089 73.441, 312.821 109.142, 311.450 117.944 L 310.759 122.388 315.968 118.027 C 318.832 115.629, 321.576 112.616, 322.063 111.333 C 322.551 110.050, 327.522 102.138, 333.109 93.750 C 342.491 79.666, 347.985 72.125, 356.724 61.339 C 358.578 59.050, 359.737 56.969, 359.298 56.715 C 358.859 56.462, 354.805 57.808, 350.290 59.707 M 368.415 84.768 C 330.021 110.592, 289.751 145.669, 270.683 169.897 C 254.140 190.917, 240.193 212.502, 223.768 242.500 C 213.535 261.190, 203.725 286.045, 198.437 306.675 C 194.365 322.565, 194.309 323.244, 197.114 322.820 C 198.860 322.556, 200.069 320.091, 204.049 308.682 C 206.701 301.082, 212.016 288.032, 215.861 279.682 C 219.706 271.332, 224.046 261.493, 225.506 257.817 C 228.986 249.051, 248.695 213.689, 255.779 203.500 C 265.405 189.654, 290.868 159.100, 304.401 145.154 C 314.010 135.252, 339.207 112.161, 346.581 106.500 C 349.446 104.300, 358.679 96.875, 367.097 90 C 375.515 83.125, 383.099 76.974, 383.950 76.332 C 384.801 75.689, 385.243 74.910, 384.934 74.600 C 384.624 74.290, 377.190 78.866, 368.415 84.768 M 415.358 81.531 C 406.376 84.822, 384.411 90, 379.434 90 C 376.441 90, 371.677 92.304, 367.500 95.772 C 360.342 101.714, 357.825 104.158, 358.338 104.671 C 359.139 105.473, 380.236 103.266, 393.781 100.963 C 410.426 98.133, 413.855 96.793, 417.776 91.587 C 421.229 87.001, 426.158 77.936, 425.114 78.091 C 424.776 78.141, 420.386 79.689, 415.358 81.531 M 295.500 88.660 C 290.550 92.811, 284.585 97.422, 282.245 98.906 C 276.581 102.498, 228.408 150.203, 224.327 156.262 C 222.433 159.074, 220.844 162.965, 220.448 165.762 C 219.480 172.605, 217.246 182.097, 216.426 182.852 C 214.986 184.177, 216.990 164.212, 218.918 158.015 C 220.019 154.479, 220.758 151.424, 220.561 151.227 C 220.363 151.030, 219.117 152.361, 217.792 154.184 C 216.466 156.008, 213.424 160.164, 211.030 163.420 C 205.456 171.004, 203.503 176.284, 202.018 187.798 C 200.648 198.412, 201.291 206.292, 206.076 237.500 C 207.678 247.950, 208.991 257.512, 208.994 258.750 C 209.005 262.847, 210.453 261.071, 214.717 251.734 C 218.556 243.327, 218.857 242.097, 218.071 238 C 217.597 235.525, 216.920 224.050, 216.567 212.500 C 216.213 200.950, 215.698 189.700, 215.420 187.500 C 215.070 184.722, 215.209 183.962, 215.874 185.012 C 217.509 187.590, 219.800 201.961, 220.495 214 C 221.091 224.334, 221.786 234.663, 221.975 236 C 222.014 236.275, 223.519 233.767, 225.319 230.427 L 228.593 224.354 227.870 206.427 C 226.834 180.777, 226.868 173.170, 228.008 175.122 C 229.783 178.160, 232.198 195.470, 232.349 206.241 C 232.432 212.148, 232.553 216.986, 232.617 216.991 C 232.682 216.996, 233.951 215.161, 235.438 212.914 L 238.142 208.828 238.321 183.463 C 238.453 164.706, 238.826 157.773, 239.750 156.849 C 240.750 155.850, 241.020 159.090, 241.099 173.050 C 241.153 182.648, 241.491 192.975, 241.849 196 L 242.500 201.500 244.877 198.167 C 247.123 195.019, 247.271 193.888, 247.560 177.667 C 247.914 157.850, 251.228 134.775, 253.390 137.083 C 253.605 137.313, 253.401 144.700, 252.936 153.500 C 251.863 173.849, 251.793 186.010, 252.750 185.962 C 254.193 185.889, 259 177.952, 259 175.641 C 259 174.359, 260.152 167.168, 261.560 159.661 C 262.968 152.154, 264.450 140.722, 264.854 134.256 C 265.555 123.036, 265.643 122.682, 266.788 126.500 C 268.448 132.029, 268.299 148.788, 266.500 159 C 265.677 163.675, 265.002 168.092, 265.001 168.816 C 265.001 169.539, 267.773 166.614, 271.163 162.316 C 274.552 158.017, 278.827 152.811, 280.663 150.747 L 284 146.994 284 124.556 C 284 110.676, 284.381 101.882, 285 101.500 C 285.655 101.095, 286 108.137, 286 121.882 C 286 133.432, 286.381 143.118, 286.847 143.405 C 287.313 143.693, 288.836 142.707, 290.232 141.214 C 292.715 138.559, 292.785 138.073, 293.435 119 C 294.137 98.350, 294.684 93, 296.091 93 C 296.569 93, 297.081 102.301, 297.230 113.668 L 297.500 134.336 300.417 131.826 L 303.334 129.316 303.095 111.281 C 302.879 94.970, 303.231 91.005, 305.627 82.750 C 306.466 79.858, 304.916 80.763, 295.500 88.660 M 232.375 83.798 C 232.642 84.229, 231.307 84.401, 229.409 84.179 C 225.898 83.769, 211.924 86.411, 208.764 88.082 C 207.809 88.587, 205.966 89, 204.670 89 C 202.190 89, 192.587 92.033, 187.500 94.423 C 185.850 95.198, 181.575 97.054, 178 98.547 C 144.628 112.488, 112.440 141.633, 92.864 175.634 C 76.575 203.925, 68.462 234.777, 68.705 267.500 C 69.182 331.461, 99.728 387.820, 152.933 422.907 C 201.969 455.244, 265.794 461.793, 321 440.151 C 349.117 429.129, 377.283 408.721, 396.679 385.316 C 417.414 360.295, 432.132 326.995, 437.123 293.807 C 439.070 280.864, 438.790 251.028, 436.613 239.500 C 435.610 234.185, 434.846 228.972, 434.995 228.462 C 435.086 228.150, 434.416 226.757, 433.504 225.366 C 432.593 223.976, 432.100 222.182, 432.408 221.379 C 432.785 220.396, 432.402 220.014, 431.234 220.210 C 430.021 220.413, 429.521 219.854, 429.569 218.351 C 429.609 217.080, 429.150 216.389, 428.446 216.659 C 427.134 217.163, 417.344 210.707, 412.277 205.996 C 408.859 202.819, 406.492 202.194, 405.662 204.250 C 405.385 204.938, 405.115 204.150, 405.064 202.500 C 404.991 200.181, 404.749 199.841, 404 201 C 403.138 202.333, 403.018 202.333, 402.916 201 C 402.852 200.175, 402.477 200.625, 402.081 202 C 401.681 203.387, 401.798 204.793, 402.342 205.159 C 402.931 205.555, 402.659 206.484, 401.662 207.481 C 400.748 208.395, 400 210.209, 400 211.512 C 400 212.816, 399.550 214.160, 399 214.500 C 398.450 214.840, 398 215.785, 398 216.600 C 398 217.414, 397.170 219.300, 396.156 220.790 C 395.142 222.281, 393.083 225.374, 391.580 227.664 C 387.188 234.356, 378.442 243.507, 371.727 248.436 C 368.302 250.950, 364.990 253.424, 364.367 253.933 C 363.744 254.443, 359.469 256.755, 354.867 259.070 C 329.925 271.622, 293.446 282.584, 270.491 284.425 C 253.948 285.752, 255.684 284.935, 242.625 297.539 C 236.093 303.843, 231.111 309, 231.552 309 C 234.590 309, 249.747 300.112, 256.405 294.427 L 264.310 287.677 262.005 291.777 C 258.973 297.172, 253.106 302.729, 244.500 308.359 C 235.442 314.284, 231.723 317.254, 234.500 316.344 C 235.600 315.984, 237.082 315.238, 237.792 314.687 C 238.671 314.006, 239.456 314.056, 240.242 314.842 C 241.742 316.342, 243.331 316.344, 242.405 314.845 C 241.959 314.124, 242.131 313.963, 242.862 314.415 C 243.506 314.813, 243.774 315.557, 243.457 316.069 C 243.141 316.581, 243.445 317, 244.132 317 C 244.840 317, 244.540 317.683, 243.441 318.574 C 242.374 319.440, 242.175 319.851, 243 319.487 C 243.825 319.124, 243.375 319.769, 242 320.921 C 240.625 322.072, 238.712 322.828, 237.749 322.601 C 236.704 322.354, 236.260 322.611, 236.648 323.239 C 237.073 323.928, 236.411 324.069, 234.732 323.648 C 233.194 323.262, 232.017 323.449, 231.795 324.115 C 231.577 324.769, 227.665 325.441, 222.302 325.747 L 213.180 326.267 211.155 334.333 C 210.040 338.770, 209.366 342.783, 209.656 343.253 C 210.763 345.044, 233.483 343.838, 261 340.528 C 287.006 337.399, 299.231 336.627, 323.500 336.581 C 351.840 336.526, 356.259 337.213, 370.520 343.897 C 392.987 354.425, 397.676 373.194, 381.193 386.621 C 368.428 397.019, 348.442 404.129, 311.500 411.413 C 298.916 413.894, 294.946 414.552, 266 418.947 C 258.575 420.074, 249.350 421.643, 245.500 422.433 C 222.543 427.144, 206.804 428.879, 186 428.992 C 176.200 429.045, 171.555 427.148, 173.556 423.910 C 173.865 423.409, 173.590 423, 172.946 423 C 172.212 423, 171.938 421.878, 172.213 420 C 172.455 418.350, 172.233 417, 171.720 417 C 171.206 417, 171.067 416.268, 171.410 415.373 C 171.754 414.479, 171.662 413.241, 171.208 412.623 C 170.753 412.005, 169.109 407.579, 167.555 402.786 L 164.729 394.073 167.996 390.352 C 171.655 386.185, 175.992 377.550, 175.958 374.500 C 175.946 373.400, 175.276 371.626, 174.468 370.559 C 172.430 367.864, 172.635 364.279, 175 361.273 C 179.072 356.096, 178.260 355.564, 163.250 353.580 C 141.096 350.651, 128.894 346.052, 121.468 337.833 C 116.378 332.199, 114.666 327.671, 114.689 319.908 C 114.730 306.133, 124.025 294.139, 141.283 285.591 C 149.853 281.346, 153.945 279.852, 164.666 277.055 L 168.832 275.968 169.532 268.234 C 170.214 260.700, 171.854 257, 174.513 257 C 175.726 257, 176.985 248.756, 177.015 240.603 C 177.024 238.239, 177.362 237.022, 177.813 237.732 C 178.278 238.464, 178.644 237.450, 178.714 235.232 C 178.911 228.977, 179.978 219.588, 180.672 218 C 181.536 216.022, 181.726 215.304, 181.875 213.441 C 181.949 212.519, 182.478 212.178, 183.170 212.605 C 183.943 213.083, 184.135 212.795, 183.736 211.755 C 183.404 210.890, 183.714 207.979, 184.425 205.286 C 185.135 202.593, 185.567 199.022, 185.384 197.351 C 185.201 195.680, 185.678 193.455, 186.445 192.406 C 187.663 190.740, 188.233 190.649, 190.976 191.685 C 194.600 193.053, 194.265 193.633, 195.888 183.155 C 196.514 179.115, 197.995 173.490, 199.180 170.655 C 201.351 165.456, 220.313 136.129, 222.384 134.765 C 224.691 133.247, 228.761 134.007, 230.238 136.232 C 231.716 138.458, 231.736 138.447, 237.360 132.687 C 240.462 129.510, 243 126.511, 243 126.023 C 243 125.534, 243.900 124.849, 245 124.500 C 246.100 124.151, 247 123.529, 247 123.119 C 247 122.708, 251.040 118.238, 255.979 113.186 C 260.917 108.134, 264.673 104, 264.325 104 C 263.978 104, 264.663 103.160, 265.847 102.133 C 267.031 101.106, 267.986 99.643, 267.968 98.883 C 267.946 97.901, 267.540 98.023, 266.568 99.305 C 265.296 100.982, 264.962 101, 261.850 99.547 C 257.732 97.626, 251.758 93.319, 250.776 91.564 C 250.375 90.848, 248.574 89.657, 246.774 88.918 C 244.973 88.179, 242.627 86.769, 241.560 85.786 C 240.105 84.445, 239.431 84.303, 238.864 85.221 C 238.297 86.137, 237.963 86.067, 237.530 84.938 C 237.212 84.110, 235.813 83.338, 234.421 83.223 C 233.029 83.108, 232.108 83.366, 232.375 83.798 M 402.797 103.045 C 396.294 105.149, 376.657 108.345, 360.592 109.912 C 354.593 110.498, 348.743 111.596, 347.592 112.354 C 344.417 114.443, 335 123.086, 335 123.911 C 335 124.311, 338.038 124.299, 341.750 123.885 C 352.239 122.715, 370.493 121.101, 381.500 120.370 L 391.500 119.706 399.341 112.103 C 405.704 105.933, 410.311 100.566, 408.785 101.100 C 408.628 101.155, 405.934 102.030, 402.797 103.045 M 276.638 116.176 C 276.337 120.204, 275.560 130.167, 274.911 138.315 C 274.092 148.592, 274.050 153.450, 274.773 154.173 C 276.628 156.028, 277.907 151.701, 279.011 139.836 C 279.759 131.791, 279.757 125.683, 279.003 119.026 C 278.416 113.843, 277.766 109.433, 277.560 109.227 C 277.354 109.020, 276.939 112.147, 276.638 116.176 M 321.742 135.288 C 319.125 137.605, 316.987 139.838, 316.992 140.250 C 316.996 140.662, 318.238 141.003, 319.750 141.006 C 322.667 141.012, 340.821 143.568, 344.948 144.553 C 346.396 144.899, 346.940 145.419, 346.279 145.827 C 345.665 146.207, 337.926 145.872, 329.082 145.084 L 313.001 143.650 310.501 145.999 C 309.125 147.291, 308 148.667, 308 149.056 C 308 149.445, 311.938 150.053, 316.750 150.406 C 336.299 151.842, 340 152.274, 340 153.117 C 340 154.277, 312.402 154.263, 308.352 153.101 C 305.480 152.277, 304.884 152.549, 301.224 156.351 C 299.027 158.633, 293.292 165.225, 288.479 171 L 279.729 181.500 300.115 182 C 311.327 182.275, 320.021 182.813, 319.435 183.195 C 317.992 184.136, 289.955 186.180, 282.603 185.880 C 277.183 185.659, 276.503 185.877, 274.183 188.570 L 271.659 191.500 289.580 192.059 C 299.436 192.366, 307.725 192.732, 308 192.872 C 310.100 193.942, 301.094 195.070, 285.892 195.641 L 267.860 196.318 265.430 199.503 C 264.093 201.255, 263 203.011, 263 203.405 C 263 204.062, 267.791 203.830, 283.250 202.424 C 286.515 202.127, 289 202.304, 289 202.834 C 289 204.203, 285.898 204.813, 272.124 206.151 L 259.749 207.354 256.360 212.652 C 252.892 218.073, 243 235.927, 243 236.765 C 243 238.555, 281.972 228.683, 298.539 222.697 C 309.857 218.608, 328.214 207.045, 334.452 200.076 L 336.404 197.896 333.452 199.028 C 331.828 199.651, 326.450 200.817, 321.500 201.620 C 316.550 202.423, 309.125 204.142, 305 205.440 C 300.875 206.737, 296.417 207.957, 295.093 208.150 C 292.265 208.561, 291.093 206.502, 293.709 205.718 C 299.464 203.993, 313.676 197.268, 321 192.803 C 330.106 187.252, 341.321 179.301, 341.780 178.071 C 341.934 177.658, 330.925 177.017, 317.315 176.646 C 303.706 176.275, 292.153 175.553, 291.641 175.041 C 290.433 173.833, 295.112 172.587, 301 172.548 C 307.887 172.502, 338.035 174.009, 342.114 174.603 C 345.258 175.061, 346.323 174.615, 350.303 171.170 C 352.819 168.993, 354.605 166.939, 354.272 166.606 C 353.939 166.272, 350.479 165.998, 346.583 165.996 C 338.759 165.991, 309.801 163.414, 306.250 162.405 C 305.012 162.054, 304 161.303, 304 160.735 C 304 159.633, 305.991 159.738, 338.500 162.561 L 357.500 164.211 363.248 157.855 C 368.996 151.501, 377 140.435, 377 138.844 C 377 138.380, 373.457 138, 369.126 138 C 364.683 138, 359.399 137.346, 357 136.500 C 354.662 135.675, 351.280 135, 349.484 135 C 347.689 135, 341.846 134.100, 336.500 133 C 331.154 131.900, 326.717 131.017, 326.640 131.038 C 326.563 131.060, 324.359 132.972, 321.742 135.288 M 364.068 170.781 C 364.030 171.486, 363.247 172.352, 362.326 172.705 C 361.406 173.058, 359.901 174.057, 358.983 174.924 C 358.065 175.791, 355.421 178.023, 353.108 179.884 L 348.902 183.267 351.159 185.670 C 353.394 188.048, 353.398 188.105, 351.580 191.482 C 349.391 195.545, 334.161 209.891, 323.459 217.969 C 314.571 224.677, 309.693 227.265, 298 231.478 L 289.500 234.541 289.500 238.583 C 289.500 242.283, 288.785 243.379, 281.031 251.562 C 276.373 256.478, 273.223 259.600, 274.031 258.500 C 275.378 256.667, 275.359 256.610, 273.809 257.823 C 272.880 258.551, 272.365 259.788, 272.666 260.573 C 272.968 261.358, 272.826 262, 272.351 262 C 271.877 262, 270.878 263.379, 270.132 265.064 C 269.282 266.983, 268.257 267.929, 267.388 267.595 C 265.725 266.957, 265.563 268.163, 267.105 269.705 C 268.611 271.211, 284.551 269.829, 294.899 267.296 C 296.766 266.839, 297.116 267.018, 296.477 268.104 C 295.938 269.021, 296.316 268.935, 297.578 267.854 C 298.635 266.949, 302.200 265.627, 305.500 264.916 C 312.608 263.386, 311.143 263.765, 318.500 261.549 C 321.800 260.555, 326.300 258.936, 328.500 257.952 C 330.700 256.967, 333.625 255.855, 335 255.481 C 340.259 254.049, 357.692 245.589, 364.444 241.191 C 370.819 237.040, 385 223.802, 385 222.003 C 385 221.603, 386.325 219.607, 387.945 217.569 C 389.565 215.531, 391.428 212.207, 392.086 210.182 C 392.744 208.157, 393.894 206.140, 394.641 205.700 C 395.389 205.260, 396 204.242, 396 203.437 C 396 202.632, 396.559 201.077, 397.243 199.983 C 398.796 197.496, 397.275 194.646, 394.148 194.180 C 392.967 194.005, 392 193.248, 392 192.498 C 392 191.748, 391.100 190.849, 389.999 190.500 C 388.898 190.150, 387.533 188.995, 386.964 187.932 C 386.395 186.870, 385.112 186, 384.113 186 C 383.114 186, 380.906 184.762, 379.206 183.250 C 373.321 178.012, 370.173 176, 367.842 175.985 C 365.963 175.972, 365.797 175.778, 367 175 C 367.825 174.467, 368.006 174.024, 367.403 174.015 C 366.799 174.007, 365.817 172.988, 365.220 171.750 C 364.624 170.512, 364.105 170.077, 364.068 170.781 M 208.535 215.500 C 209.083 224.096, 211.416 241.825, 212.639 246.699 C 212.957 247.964, 213.683 249, 214.252 249 C 215.570 249, 214.717 239.472, 211.928 223.050 C 209.178 206.862, 207.785 203.761, 208.535 215.500 M 187.113 219.095 C 184.500 231.296, 182.597 251.176, 183.293 259 C 185.946 288.831, 191.166 314.466, 193.954 311.357 C 195.431 309.711, 196.949 301.586, 195.900 300.938 C 195.351 300.599, 194.269 295.861, 193.496 290.410 C 192.723 284.960, 191.396 276.900, 190.546 272.500 C 188.618 262.523, 188.640 260.511, 190.628 265 C 192.405 269.015, 197 289.690, 197 293.670 C 197 297.145, 198.162 295.898, 199.664 290.810 C 200.426 288.231, 200.526 286.160, 199.939 285.126 C 198.911 283.315, 190.906 243.761, 191.456 243.210 C 192.601 242.066, 197.747 259.922, 201.046 276.479 L 202.237 282.459 204.580 275.989 L 206.922 269.519 203.437 260.705 C 198.604 248.483, 192.394 226.792, 191.496 219 C 190.208 207.809, 189.526 207.824, 187.113 219.095 M 265.777 215.083 C 258.006 215.906, 254 217.250, 254 219.035 C 254 220.290, 253.525 220.333, 266.657 217.886 C 272.896 216.723, 278 215.373, 278 214.886 C 278 213.896, 276.819 213.915, 265.777 215.083 M 260 223.703 C 254.356 224.674, 250 226.136, 250 227.058 C 250 227.597, 251.012 227.830, 252.250 227.576 C 261.620 225.653, 265 224.679, 265 223.900 C 265 222.978, 264.355 222.953, 260 223.703 M 236.978 246.526 C 235.591 248.198, 230.002 260.393, 230.001 261.750 C 230 263.337, 229.718 263.362, 238.243 261 C 246.148 258.809, 254.126 258.274, 252.345 260.055 C 251.765 260.635, 245.984 262.589, 239.498 264.398 C 228.078 267.582, 227.644 267.805, 225.780 271.437 C 224.721 273.501, 224.015 275.349, 224.211 275.544 C 224.407 275.740, 228.827 274.807, 234.033 273.470 C 244.418 270.805, 246.404 270.537, 245.549 271.921 C 244.884 272.997, 231.163 277.612, 225.866 278.541 C 222.489 279.134, 221.978 279.723, 218.660 286.840 C 214.147 296.523, 208.821 311.001, 209.775 310.996 C 210.174 310.994, 211.850 310.172, 213.500 309.169 C 215.150 308.166, 218.628 306.536, 221.229 305.545 C 223.829 304.555, 228.554 301.341, 231.729 298.402 L 237.500 293.060 228 297.133 C 213.880 303.188, 214 303.150, 214 301.575 C 214 300.754, 219.540 297.880, 227.750 294.441 C 240.614 289.053, 241.906 288.258, 247.806 282.091 C 251.275 278.466, 257.575 270.601, 261.806 264.613 C 266.038 258.626, 270.873 251.876, 272.552 249.613 L 275.603 245.500 256.716 245.500 C 245.026 245.500, 237.505 245.891, 236.978 246.526 M 243.331 252.481 C 235.603 253.883, 234 254.522, 234 256.197 C 234 257.527, 241.983 256.689, 250.500 254.464 C 262.840 251.241, 257.820 249.852, 243.331 252.481 M 240.500 281.637 C 237.200 282.990, 233.522 284.188, 232.326 284.299 C 229.435 284.566, 222.061 289.175, 222.027 290.735 C 221.999 292.021, 223.166 291.629, 239 285.038 C 246.526 281.904, 251.049 278.902, 247.964 279.088 C 247.159 279.137, 243.800 280.284, 240.500 281.637 M 151 298.237 C 134.756 305.414, 125.955 316.274, 128.973 325.418 C 131.026 331.638, 137.963 335.858, 151.244 338.967 C 161.146 341.285, 177.896 343.012, 180.031 341.936 C 180.873 341.511, 181.674 339.695, 181.811 337.898 C 181.948 336.102, 182.416 334.153, 182.850 333.566 C 183.285 332.980, 183.547 330.142, 183.431 327.259 C 183.316 324.377, 183.608 322.258, 184.081 322.550 C 185.184 323.232, 186.400 318.484, 185.633 316.487 C 185.313 315.653, 183.889 314.528, 182.469 313.988 C 178.809 312.597, 169.268 303.313, 166.309 298.264 C 164.934 295.919, 163.065 294.009, 162.155 294.020 C 161.245 294.031, 156.225 295.928, 151 298.237 M 189.663 321.670 C 189.298 322.035, 189 323.578, 189 325.099 C 189 331.578, 201.664 334.786, 205.914 329.382 C 207.046 327.943, 207.727 326.368, 207.427 325.882 C 206.706 324.715, 204 324.745, 204 325.921 C 204 327.210, 198.472 328.285, 195.953 327.485 C 194.803 327.120, 193.066 325.513, 192.094 323.914 C 191.122 322.315, 190.028 321.306, 189.663 321.670 M 187.548 334.250 C 187.279 335.488, 186.141 342.096, 185.019 348.935 C 183.429 358.629, 183.251 361.537, 184.211 362.130 C 184.888 362.549, 185.622 362.711, 185.843 362.491 C 186.063 362.270, 187.515 355.900, 189.069 348.335 C 191.114 338.383, 191.600 334.223, 190.825 333.290 C 189.242 331.382, 188.100 331.716, 187.548 334.250 M 193.607 336.582 C 193.273 337.452, 193 339.503, 193 341.139 C 193 342.775, 192.503 346.086, 191.897 348.497 C 191.290 350.907, 190.994 353.469, 191.240 354.190 C 191.623 355.313, 196 338.518, 196 335.924 C 196 334.402, 194.260 334.880, 193.607 336.582 M 201 335.480 C 201 335.744, 199.597 342.306, 197.882 350.062 C 195.647 360.169, 195.070 364.470, 195.844 365.244 C 196.619 366.019, 197.219 365.553, 197.963 363.598 C 198.533 362.097, 199 360.285, 199 359.569 C 199 358.854, 200.125 353.285, 201.500 347.194 C 204.451 334.122, 204.379 335, 202.500 335 C 201.675 335, 201 335.216, 201 335.480 M 301.750 349.202 C 301.612 349.588, 296.550 350.171, 290.500 350.498 C 284.450 350.824, 270.050 352.188, 258.500 353.527 C 246.950 354.867, 230.748 356.101, 222.495 356.271 C 214.242 356.440, 206.930 356.925, 206.245 357.349 C 204.561 358.390, 204.726 363.053, 206.532 365.441 C 208.770 368.400, 208.318 372.409, 205.420 375.307 C 200.719 380.009, 199.846 391.674, 203.490 401.121 C 203.909 402.207, 202.277 404.844, 198.539 409.121 C 195.472 412.629, 192.421 416.715, 191.759 418.200 C 191.098 419.685, 190.269 420.435, 189.917 419.866 C 189.540 419.255, 189.010 419.533, 188.621 420.545 C 188.055 422.019, 188.418 422.164, 191.232 421.584 C 193.029 421.214, 199 420.236, 204.500 419.411 C 210 418.586, 216.075 417.512, 218 417.023 C 219.925 416.534, 224.200 415.839, 227.500 415.479 C 235.494 414.607, 258.265 409.954, 281 404.547 C 291.175 402.127, 307.150 398.506, 316.500 396.500 C 349.779 389.360, 364.462 383.967, 373.477 375.572 C 376.928 372.359, 378 370.639, 378 368.316 C 378 360.922, 362.851 352.505, 344.913 349.934 C 335.795 348.627, 302.158 348.057, 301.750 349.202 M 178 365.378 C 178 367.339, 179.790 368.513, 185.500 370.299 C 194.460 373.101, 198.367 373.333, 200.978 371.219 C 203.880 368.869, 202.948 366.422, 199.794 368.111 C 196.877 369.672, 189.130 368.725, 183.833 366.161 C 178.591 363.623, 178 363.544, 178 365.378 M 182.071 376.250 C 179.318 383.296, 176.594 388.927, 174.380 392.146 L 171.872 395.792 174.100 404.146 C 175.326 408.741, 176.650 412.873, 177.043 413.329 C 178.302 414.789, 181.070 405, 179.977 402.956 C 178.463 400.127, 178.811 397.580, 181.039 395.189 C 183.523 392.522, 187.116 392.366, 189.345 394.829 C 191.104 396.772, 191.576 401.965, 190.138 403.550 C 189.664 404.072, 188.798 406.525, 188.213 409 L 187.149 413.500 189.824 410.059 C 191.296 408.166, 193.520 405.505, 194.766 404.146 C 196.404 402.358, 196.819 401.097, 196.266 399.587 C 195.264 396.857, 195.279 382.294, 196.287 378.680 C 197.018 376.059, 196.887 375.883, 194.442 376.180 C 192.311 376.439, 191.372 377.541, 189.507 381.966 C 188.240 384.972, 186.708 387.597, 186.102 387.799 C 184.645 388.285, 184.708 387.347, 186.545 381.159 C 187.395 378.297, 187.819 375.516, 187.486 374.978 C 186.366 373.165, 182.964 373.964, 182.071 376.250" stroke="none" fill="#dddbdd" fill-rule="evenodd"/></svg>