<svg xmlns="http://www.w3.org/2000/svg" width="654" height="381" viewBox="0 0 654 381" version="1.1"><path d="M 132 22.611 C 106.536 25.750, 80.079 43.215, 66.806 65.649 C 62.725 72.547, 60.696 77.355, 55.898 91.500 C 54.227 96.426, 53.634 116.766, 54.921 124.991 C 59.601 154.897, 77.959 179.659, 105.345 193.007 C 124.193 202.193, 145.637 204.082, 167.503 198.484 C 174.564 196.676, 188.105 190.400, 194.628 185.912 C 207.386 177.134, 221.091 160.503, 226.464 147.280 C 234.087 128.520, 235.531 108.337, 230.584 89.704 C 222.388 58.836, 198.664 34.306, 168.500 25.510 C 161.580 23.492, 156.726 22.804, 147.500 22.533 C 140.900 22.339, 133.925 22.374, 132 22.611 M 486.500 24.955 C 475.875 27.349, 473.174 28.395, 462.107 34.402 C 445.686 43.315, 433.692 56.176, 425.008 74.186 C 418.444 87.798, 416.872 94.036, 416.259 108.899 C 415.558 125.932, 417.625 135.953, 425.049 151.500 C 440.136 183.097, 470.249 202.225, 505 202.285 C 520.936 202.313, 530.835 200.098, 544.500 193.446 C 562.636 184.618, 576.590 171.183, 585.385 154.081 C 590.967 143.226, 593.550 134.792, 595.103 122.348 C 596.156 113.908, 596.095 110.856, 594.672 101 C 592.840 88.315, 590.976 82.666, 584.441 70 C 572.602 47.056, 549.729 29.949, 523.700 24.573 C 513.565 22.480, 496.720 22.653, 486.500 24.955 M 309 45.039 C 267.006 54.016, 238.990 95.890, 247.545 136.896 C 251.138 154.121, 258.579 167.844, 270.747 179.685 L 278.130 186.870 274.815 187.803 C 272.992 188.317, 266.100 190.879, 259.500 193.498 C 247.762 198.155, 240.829 201.585, 216.500 214.771 C 183.309 232.761, 176.852 235.713, 164.688 238.461 C 146.212 242.635, 133.437 238.595, 116.892 223.347 C 108.713 215.809, 107.450 215, 103.868 215 C 95.757 215, 91.063 220.191, 92.456 227.618 C 93.291 232.065, 100.460 239.965, 110.500 247.499 C 122.774 256.710, 134.609 261.652, 146.876 262.690 L 154.252 263.315 156.237 267.907 C 157.328 270.433, 159.747 275.803, 161.611 279.839 C 163.475 283.876, 165 287.400, 165 287.670 C 165 287.941, 167.901 292.514, 171.446 297.831 C 186.819 320.891, 202.489 335.110, 223.500 345.067 C 245.374 355.433, 261.195 358.605, 286.500 357.697 C 311.058 356.815, 338.831 349.657, 345.750 342.426 C 350.123 337.855, 350.170 333.402, 345.896 328.535 C 343.175 325.435, 342.217 325, 338.119 325 C 335.548 325, 330.082 326.063, 325.972 327.362 C 304.378 334.189, 295.107 336.006, 282 335.982 C 243.976 335.913, 211.292 318.035, 190.105 285.716 C 182.997 274.874, 176.534 260.267, 178.040 258.451 C 178.555 257.831, 180.894 256.765, 183.238 256.082 C 188.200 254.636, 209.687 243.953, 225.500 235.070 C 242.001 225.800, 267.469 213.553, 276.500 210.545 C 298.565 203.195, 302.800 202.500, 325.500 202.500 C 348.316 202.500, 351.796 203.058, 373.069 210.130 C 385.835 214.373, 414.384 228.375, 435.951 240.971 C 446.928 247.383, 462.880 254.879, 470.151 257.045 C 473.874 258.154, 477.205 259.523, 477.554 260.088 C 478.521 261.651, 473.564 268.495, 466.677 275.108 C 459.240 282.249, 443.207 290.807, 432 293.619 C 421.095 296.354, 397.336 296.192, 382.871 293.284 C 358.352 288.354, 335.997 275.736, 319.450 257.485 C 304.287 240.762, 304.558 241, 300.665 241 C 293.017 241, 288.336 246.012, 289.296 253.172 C 290.344 260.984, 308.067 280.603, 324.500 292.142 C 333.154 298.219, 351.616 307.935, 359.225 310.418 C 369.718 313.841, 380.080 316.169, 390.962 317.548 C 405.251 319.358, 412.753 319.354, 425.592 317.528 C 458.876 312.796, 483.899 296.157, 500.408 267.781 C 502.695 263.851, 503.768 262.959, 506.827 262.449 C 523.600 259.651, 539.245 250.903, 552.383 236.977 C 558.486 230.508, 559 229.618, 559 225.537 C 559 219.155, 555.941 215.893, 549.366 215.261 L 544.349 214.779 536.147 222.140 C 527.281 230.095, 517.729 236.401, 512.059 238.041 C 496.971 242.406, 478.879 238.607, 456.078 226.288 C 451.360 223.739, 442.100 218.739, 435.500 215.176 C 412.937 202.997, 396.998 195.304, 385.499 191.042 C 379.174 188.699, 374 186.493, 374 186.141 C 374.001 185.788, 376.262 183.552, 379.026 181.172 C 398.359 164.523, 408.757 133.516, 403.483 108.239 C 400.536 94.112, 396.714 85.596, 388.033 73.816 C 370.893 50.557, 338.449 38.744, 309 45.039 M 132.500 44.949 C 125.610 46.098, 115.121 50.086, 108.370 54.123 C 95.433 61.859, 82.904 77.769, 78.691 91.810 C 75.919 101.045, 75.744 121.836, 78.365 130.500 C 81.529 140.963, 86.949 149.945, 95.468 158.843 C 102.433 166.119, 104.737 167.804, 113.477 172.014 C 125.372 177.743, 130.831 179, 143.819 179 C 170.132 179, 193.218 164.508, 205.326 140.391 C 213.099 124.908, 212.907 98.536, 204.907 82.803 C 193.266 59.911, 171.730 45.672, 147.051 44.550 C 141.798 44.311, 135.250 44.491, 132.500 44.949 M 496 45.639 C 482.696 48.289, 472.206 53.041, 462.842 60.659 C 452.280 69.253, 446.214 78.223, 440.971 93 C 437.886 101.697, 437.621 120.168, 440.441 130 C 446.081 149.661, 458.619 164.747, 476.110 172.918 C 487.309 178.149, 495.010 180, 505.580 180 C 516.622 180, 525.193 177.949, 535.853 172.756 C 553.210 164.301, 564.692 150.863, 571.166 131.429 C 572.992 125.946, 573.473 122.309, 573.469 114 C 573.463 101.242, 572.109 95.346, 566.369 83.074 C 562.612 75.042, 560.743 72.449, 553.730 65.536 C 540.169 52.168, 526.491 46.105, 508.500 45.485 C 503 45.296, 497.375 45.365, 496 45.639 M 316.077 66.062 C 296.180 68.709, 276.783 86.146, 270.612 106.932 C 266.964 119.220, 269.156 138.026, 275.657 150.218 C 281.853 161.838, 296.511 173.215, 310.924 177.589 C 316.872 179.395, 334.128 179.395, 340.076 177.589 C 358.917 171.870, 374.811 157.066, 379.941 140.455 C 386.149 120.356, 381.645 99.676, 367.751 84.482 C 354.014 69.461, 336.760 63.310, 316.077 66.062" stroke="none" fill="#006400" fill-rule="evenodd"/></svg>