<?xml version="1.0" encoding="UTF-8"?>
<svg version="1.1" xmlns="http://www.w3.org/2000/svg" width="667" height="375">
<path d="M0 0 C6.44055628 0.60759965 6.44055628 0.60759965 8.7121582 2.20092773 C10.50003806 4.69853658 10.34203183 6.4214359 10.29296875 9.47265625 C10.2784668 11.06883789 10.2784668 11.06883789 10.26367188 12.69726562 C10.23853516 13.80779297 10.21339844 14.91832031 10.1875 16.0625 C10.16719727 17.7340918 10.16719727 17.7340918 10.14648438 19.43945312 C10.11013978 22.29336934 10.05701848 25.14644433 10 28 C10 31.05262942 10.27861492 34.0809552 10.5 37.125 C10.5928125 38.40632813 10.685625 39.68765625 10.78125 41.0078125 C10.8534375 41.99523437 10.925625 42.98265625 11 44 C8.65147472 45.17426264 7.26225935 45.11508173 4.6484375 45.09765625 C3.79765625 45.09443359 2.946875 45.09121094 2.0703125 45.08789062 C1.18085938 45.07951172 0.29140625 45.07113281 -0.625 45.0625 C-1.97078125 45.05573242 -1.97078125 45.05573242 -3.34375 45.04882812 C-5.56256648 45.03702591 -7.78125018 45.02056155 -10 45 C-10.495 43.515 -10.495 43.515 -11 42 C-11.99 41.67 -12.98 41.34 -14 41 C-14.33 36.71 -14.66 32.42 -15 28 C-16.32 27.67 -17.64 27.34 -19 27 C-22.4768531 23.65687202 -23.11232993 19.58629538 -24 15 C-23 13 -23 13 -20 12 C-20.495 11.5875 -20.99 11.175 -21.5 10.75 C-23 9 -23 9 -23 5 C-20.4170535 4.72368479 -17.83725557 4.47828726 -15.25 4.25 C-14.52039063 4.16878906 -13.79078125 4.08757812 -13.0390625 4.00390625 C-9.52702342 3.7165576 -7.47962616 3.68224767 -4.5 5.65625 C-2.70887617 8.45488098 -2.57681215 9.95943086 -2.75 13.25 C-2.78609375 14.14203125 -2.8221875 15.0340625 -2.859375 15.953125 C-2.92898437 16.96632813 -2.92898437 16.96632813 -3 18 C-1.68 18.33 -0.36 18.66 1 19 C1.02714735 16.77090129 1.04646254 14.54170633 1.0625 12.3125 C1.07410156 11.07113281 1.08570313 9.82976562 1.09765625 8.55078125 C1.01478673 5.53764546 0.70839449 2.91724661 0 0 Z M-16 12 C-12 13 -12 13 -12 13 Z M-5 26 C-5 26.33 -5 26.66 -5 27 C-2.36 27 0.28 27 3 27 C2.67 26.01 2.34 25.02 2 24 C-0.35287614 24 -2.79373224 25.24893012 -5 26 Z M-6 35 C-6 35.66 -6 36.32 -6 37 C-3.36 37 -0.72 37 2 37 C2 36.01 2 35.02 2 34 C-0.83967231 34 -3.23735711 34.40267181 -6 35 Z " fill="#030303" transform="translate(256,110)"/>
<path d="M0 0 C4.09510843 0.36400964 7.23930535 0.8145831 10 4 C10.25 7.6875 10.25 7.6875 10 11 C10.763125 10.938125 11.52625 10.87625 12.3125 10.8125 C15 11 15 11 16.875 12.1875 C18 14 18 14 17.6875 16.6875 C17.3471875 17.8321875 17.3471875 17.8321875 17 19 C14.69 19.33 12.38 19.66 10 20 C10.04125 21.258125 10.0825 22.51625 10.125 23.8125 C10.2390374 27.29064073 10.05925681 27.91111478 8 31 C8.66 31.99 9.32 32.98 10 34 C10.59684283 37.92211001 10.3096604 39.52518738 8.125 42.875 C4.29899808 45.4766813 1.92017421 45.52443974 -2.59765625 45.46875 C-5.44075864 44.91399831 -6.90301776 43.97590936 -9 42 C-9 41.34 -9 40.68 -9 40 C-9.66 40 -10.32 40 -11 40 C-12.42662219 37.14675563 -12.31033868 35.16545451 -12 32 C-10.6875 29.125 -10.6875 29.125 -8 27 C-4.2972193 26.57910838 -0.70972387 26.7121766 3 27 C2.34 26.34 1.68 25.68 1 25 C-1.45183365 25.24428058 -1.45183365 25.24428058 -4.1875 25.9375 C-8.89553361 26.91008063 -12.32942803 27.03790488 -17 26 C-17 25.34 -17 24.68 -17 24 C-17.66 24 -18.32 24 -19 24 C-19.06058594 23.28714844 -19.12117188 22.57429688 -19.18359375 21.83984375 C-19.64808101 16.53039712 -20.18075251 11.266591 -21 6 C-17.25737773 4.76183925 -13.84162704 5.00368284 -9.9375 5.25 C-8.70902344 5.31703125 -7.48054688 5.3840625 -6.21484375 5.453125 C-3 6 -3 6 -1.00390625 7.296875 C0 9 0 9 -1 13 C-4.63 13.33 -8.26 13.66 -12 14 C-12 15.65 -12 17.3 -12 19 C-7.71 18.01 -3.42 17.02 1 16 C1.04125 14.2675 1.0825 12.535 1.125 10.75 C1.14820313 9.77546875 1.17140625 8.8009375 1.1953125 7.796875 C0.99862781 4.9803502 0.44568916 3.39050964 -1 1 C-0.67 0.67 -0.34 0.34 0 0 Z M-3 34 C-3.33 35.32 -3.66 36.64 -4 38 C-2.35 37.67 -0.7 37.34 1 37 C1.33 36.01 1.66 35.02 2 34 C0.35 34 -1.3 34 -3 34 Z " fill="#0A0A0A" transform="translate(336,110)"/>
<path d="M0 0 C2.40618898 4.04239748 1.87792629 8.03379515 1.5625 12.625 C2.8825 12.955 4.2025 13.285 5.5625 13.625 C5.8925 15.275 6.2225 16.925 6.5625 18.625 C-0.20300966 21.6761122 -5.95387137 23.33772654 -13.4375 22.625 C-17.64573151 19.0812261 -18.49616739 14.84511722 -19.4375 9.625 C-18.4375 7.625 -18.4375 7.625 -15.4375 6.625 C-15.9325 6.2125 -16.4275 5.8 -16.9375 5.375 C-18.4375 3.625 -18.4375 3.625 -18.4375 -0.375 C-3.93043286 -2.21716726 -3.93043286 -2.21716726 0 0 Z M-11.4375 6.625 C-7.4375 7.625 -7.4375 7.625 -7.4375 7.625 Z " fill="#050505" transform="translate(251.4375,115.375)"/>
<path d="M0 0 C0.77279297 -0.02900391 1.54558594 -0.05800781 2.34179688 -0.08789062 C5.87571958 -0.12739277 8.08157264 -0.04040275 11.17578125 1.76171875 C13.42438506 5.55587452 13.43901729 9.09502469 13.5625 13.4375 C13.60890625 14.26121094 13.6553125 15.08492187 13.703125 15.93359375 C13.7935244 18.05797969 13.74988923 20.18710703 13.6875 22.3125 C11.14549705 24.85450295 9.44525617 24.59966913 5.97070312 24.63476562 C5.23787109 24.63154297 4.50503906 24.62832031 3.75 24.625 C3.02103516 24.64111328 2.29207031 24.65722656 1.54101562 24.67382812 C-1.34208848 24.67647075 -3.70644568 24.63902231 -6.27734375 23.25390625 C-7.89936783 20.21184599 -7.80991148 17.35552926 -7.9375 13.9375 C-8.13782728 8.63483705 -8.13782728 8.63483705 -8.8984375 3.3984375 C-9.03507812 2.71007812 -9.17171875 2.02171875 -9.3125 1.3125 C-7.20985027 -0.79014973 -2.88804314 0.03559626 0 0 Z M0.6875 8.3125 C0.6875 11.2825 0.6875 14.2525 0.6875 17.3125 C2.0075 16.9825 3.3275 16.6525 4.6875 16.3125 C4.6875 13.3425 4.6875 10.3725 4.6875 7.3125 C2.6129644 7.1634288 2.6129644 7.1634288 0.6875 8.3125 Z " fill="#060606" transform="translate(282.3125,117.6875)"/>
<path d="M0 0 C3.33954424 0.30359493 5.48394956 0.60927609 8.1875 2.65625 C10.54199684 5.70085799 10.41521061 7.45015603 10.25 11.25 C10.21390625 12.32765625 10.1778125 13.4053125 10.140625 14.515625 C10.07101562 15.74539062 10.07101562 15.74539062 10 17 C11.98 17 13.96 17 16 17 C16 17.66 16 18.32 16 19 C16.66 19 17.32 19 18 19 C18.625 20.875 18.625 20.875 19 23 C17 25 17 25 13.375 25.125 C12.26125 25.08375 11.1475 25.0425 10 25 C10.02320313 26.27617187 10.04640625 27.55234375 10.0703125 28.8671875 C10.08906829 30.5364525 10.10726869 32.2057238 10.125 33.875 C10.14175781 34.71675781 10.15851563 35.55851562 10.17578125 36.42578125 C10.18222656 37.23144531 10.18867188 38.03710938 10.1953125 38.8671875 C10.20578613 39.61081543 10.21625977 40.35444336 10.22705078 41.12060547 C10 43 10 43 8 45 C5 45 5 45 3.34008789 43.49853516 C1.49233902 40.05348834 1.55919195 36.83873084 1.55859375 33.0234375 C1.54538589 32.25697906 1.53217804 31.49052063 1.51856995 30.70083618 C1.47774945 28.25885325 1.45601644 25.81724656 1.4375 23.375 C1.41372763 20.92572575 1.38566153 18.47680658 1.34571838 16.02774048 C1.32132404 14.50538524 1.30649582 12.98284099 1.30210876 11.46029663 C1.37792002 7.27313731 1.37792002 7.27313731 -1 4 C-0.625 1.875 -0.625 1.875 0 0 Z " fill="#000000" transform="translate(296,110)"/>
<path d="M0 0 C0.046875 3.08203125 0.046875 3.08203125 -0.25 6.8125 C-0.33765625 8.03582031 -0.4253125 9.25914062 -0.515625 10.51953125 C-0.96130213 13.7219371 -1.48617034 16.15230645 -3 19 C-5.625 19.8125 -5.625 19.8125 -8 20 C-8 19.34 -8 18.68 -8 18 C-8.66 18 -9.32 18 -10 18 C-9.67 13.71 -9.34 9.42 -9 5 C-14.28 5 -19.56 5 -25 5 C-25 4.34 -25 3.68 -25 3 C-25.66 3 -26.32 3 -27 3 C-27.33 1.35 -27.66 -0.3 -28 -2 C-23.69575219 -2.98358788 -19.39474862 -3.38343529 -15 -3.6875 C-13.95199219 -3.77741211 -13.95199219 -3.77741211 -12.8828125 -3.86914062 C-7.51852604 -4.2385679 -3.86755164 -3.86755164 0 0 Z " fill="#030303" transform="translate(224,120)"/>
<path d="M0 0 C5.03581806 -0.11235291 5.03581806 -0.11235291 7.89868164 1.84277344 C9.33618164 4.09277344 9.33618164 4.09277344 8.92602539 6.23339844 C8.63405273 7.15378906 8.63405273 7.15378906 8.33618164 8.09277344 C3.1408277 8.33480721 -2.05467975 8.54974592 -7.25219727 8.73974609 C-9.01975298 8.80816551 -10.78703952 8.8839555 -12.55395508 8.96728516 C-15.09543443 9.08585895 -17.63670641 9.17780367 -20.17944336 9.26464844 C-20.96812805 9.30716736 -21.75681274 9.34968628 -22.56939697 9.39349365 C-26.13605737 9.49138448 -28.22489173 9.39820945 -31.1940918 7.33203125 C-32.66381836 5.09277344 -32.66381836 5.09277344 -32.66381836 1.09277344 C-28.5379012 0.94859641 -24.41192503 0.80625295 -20.28588867 0.66552734 C-18.88548115 0.61751521 -17.48508999 0.56902273 -16.0847168 0.52001953 C-10.72355331 0.33264649 -5.36113054 0.18671337 0 0 Z " fill="#020202" transform="translate(222.663818359375,140.9072265625)"/>
<path d="M0 0 C0.99 0.66 1.98 1.32 3 2 C2.67 3.32 2.34 4.64 2 6 C-3.2321895 6.21677407 -8.46460187 6.41368737 -13.69824219 6.59204102 C-15.47937098 6.65555993 -17.26031326 6.7245502 -19.04101562 6.79907227 C-21.59736595 6.90511241 -24.15373651 6.99160304 -26.7109375 7.07421875 C-27.50994476 7.11157639 -28.30895203 7.14893402 -29.13217163 7.18742371 C-31.37646484 7.2487793 -31.37646484 7.2487793 -35 7 C-35.66 6.01 -36.32 5.02 -37 4 C-33.2486535 2.82874626 -29.50368388 2.77940135 -25.609375 2.68359375 C-24.55245453 2.6524221 -24.55245453 2.6524221 -23.47418213 2.62062073 C-21.23288319 2.55546163 -18.99147136 2.49639752 -16.75 2.4375 C-15.22655103 2.39428274 -13.70311329 2.35066743 -12.1796875 2.30664062 C-8.45324409 2.19981509 -4.72667506 2.09845361 -1 2 C-0.67 1.34 -0.34 0.68 0 0 Z " fill="#8E8E8E" transform="translate(229,143)"/>
<path d="M0 0 C0.66 0 1.32 0 2 0 C2.625 1.875 2.625 1.875 3 4 C1 6 1 6 -2.625 6.125 C-3.73875 6.08375 -4.8525 6.0425 -6 6 C-5.97679687 7.27617187 -5.95359375 8.55234375 -5.9296875 9.8671875 C-5.91093171 11.5364525 -5.89273131 13.2057238 -5.875 14.875 C-5.85824219 15.71675781 -5.84148437 16.55851562 -5.82421875 17.42578125 C-5.81777344 18.23144531 -5.81132812 19.03710938 -5.8046875 19.8671875 C-5.79421387 20.61081543 -5.78374023 21.35444336 -5.77294922 22.12060547 C-6 24 -6 24 -8 26 C-8.99 26 -9.98 26 -11 26 C-10.84080078 25.42854248 -10.68160156 24.85708496 -10.51757812 24.26831055 C-10.00724016 22.03173034 -9.81414965 19.99586171 -9.71875 17.70703125 C-9.68136719 16.91232422 -9.64398438 16.11761719 -9.60546875 15.29882812 C-9.53466004 13.62957827 -9.46435444 11.960307 -9.39453125 10.29101562 C-9.10197685 4.10197685 -9.10197685 4.10197685 -8 3 C-5.66702567 2.95907063 -3.33294775 2.95758277 -1 3 C-0.67 2.01 -0.34 1.02 0 0 Z " fill="#8A8A8A" transform="translate(312,129)"/>
<path d="M0 0 C0.99 0.33 1.98 0.66 3 1 C3.2210949 3.95789127 3.42740245 6.91552764 3.625 9.875 C3.68945312 10.71675781 3.75390625 11.55851563 3.8203125 12.42578125 C3.89765625 13.63427734 3.89765625 13.63427734 3.9765625 14.8671875 C4.02893066 15.61081543 4.08129883 16.35444336 4.13525391 17.12060547 C4 19 4 19 2 21 C-0.74485593 21.14507695 -3.38480543 21.18652423 -6.125 21.125 C-6.87910156 21.11597656 -7.63320313 21.10695312 -8.41015625 21.09765625 C-10.27357254 21.0740687 -12.13682593 21.03819719 -14 21 C-14.33 20.01 -14.66 19.02 -15 18 C-10.05 17.67 -5.1 17.34 0 17 C0 11.39 0 5.78 0 0 Z " fill="#8F8F8F" transform="translate(292,121)"/>
<path d="M0 0 C0.99 0 1.98 0 3 0 C3.495 6.93 3.495 6.93 4 14 C1.65147472 15.17426264 0.26225935 15.11508173 -2.3515625 15.09765625 C-3.20234375 15.09443359 -4.053125 15.09121094 -4.9296875 15.08789062 C-5.81914062 15.07951172 -6.70859375 15.07113281 -7.625 15.0625 C-8.97078125 15.05573242 -8.97078125 15.05573242 -10.34375 15.04882812 C-12.56256648 15.03702591 -14.78125018 15.02056155 -17 15 C-17.33 14.01 -17.66 13.02 -18 12 C-12.06 11.67 -6.12 11.34 0 11 C0 7.37 0 3.74 0 0 Z " fill="#949494" transform="translate(263,140)"/>
<path d="M0 0 C2.45179712 1.83884784 2.96567755 2.80264589 3.5 5.875 C3 9 3 9 1.125 11.875 C-2.72204217 14.49098868 -5.15148908 14.52399405 -9.6953125 14.46875 C-12.37514733 13.92369885 -13.29920778 13.08986233 -15 11 C-14.24074219 10.96261719 -13.48148437 10.92523438 -12.69921875 10.88671875 C-11.70535156 10.82097656 -10.71148437 10.75523437 -9.6875 10.6875 C-8.70136719 10.62949219 -7.71523438 10.57148438 -6.69921875 10.51171875 C-3.70266295 9.94363075 -2.73702505 9.46840402 -1 7 C-0.26958147 3.38976901 -0.26958147 3.38976901 0 0 Z " fill="#8F8F8F" transform="translate(343,141)"/>
<path d="M0 0 C-0.33 1.65 -0.66 3.3 -1 5 C-7.50422293 7.00865708 -13.1781317 8.38614349 -20 8 C-20.33 7.01 -20.66 6.02 -21 5 C-19.87980469 4.80664062 -18.75960937 4.61328125 -17.60546875 4.4140625 C-16.13274651 4.1514114 -14.66009381 3.88837017 -13.1875 3.625 C-12.44951172 3.49867188 -11.71152344 3.37234375 -10.95117188 3.2421875 C-7.14874671 2.55396575 -3.53404883 0 0 0 Z " fill="#8F8F8F" transform="translate(258,130)"/>
<path d="M0 0 C0.99 0.33 1.98 0.66 3 1 C2.88534579 3.22972273 2.75785234 5.45878753 2.625 7.6875 C2.55539063 8.92886719 2.48578125 10.17023438 2.4140625 11.44921875 C2.03224742 14.72346316 1.55484604 17.10625875 0 20 C-2.625 20.8125 -2.625 20.8125 -5 21 C-4.71125 20.484375 -4.4225 19.96875 -4.125 19.4375 C-1.22770769 13.16003332 -0.52034972 6.80562661 0 0 Z " fill="#949494" transform="translate(221,119)"/>
<path d="M0 0 C0.66 0.33 1.32 0.66 2 1 C1.67 2.65 1.34 4.3 1 6 C-1.31 6.33 -3.62 6.66 -6 7 C-6 9.64 -6 12.28 -6 15 C-7.98 15.99 -7.98 15.99 -10 17 C-10 13 -10 13 -9 12 C-8.76924918 10.65252916 -8.58846937 9.29622435 -8.4375 7.9375 C-8.2209375 5.9884375 -8.2209375 5.9884375 -8 4 C-7.05125 3.896875 -6.1025 3.79375 -5.125 3.6875 C-1.70892499 3.31460705 -1.70892499 3.31460705 0 0 Z " fill="#969696" transform="translate(352,123)"/>
<path d="M0 0 C0.99 0.33 1.98 0.66 3 1 C3 4.3 3 7.6 3 11 C-1.32564205 12.58255197 -5.428721 13.45144652 -10 14 C-10 12.68 -10 11.36 -10 10 C-5.545 9.505 -5.545 9.505 -1 9 C-0.67 6.03 -0.34 3.06 0 0 Z " fill="#939393" transform="translate(250,117)"/>
<path d="M0 0 C0 1.32 0 2.64 0 4 C-5.75566634 6.39819431 -11.81453137 6.87962411 -18 7 C-18.66 6.67 -19.32 6.34 -20 6 C-20 5.34 -20 4.68 -20 4 C-18.55367188 3.81824219 -18.55367188 3.81824219 -17.078125 3.6328125 C-15.18320312 3.38144531 -15.18320312 3.38144531 -13.25 3.125 C-11.99703125 2.96257812 -10.7440625 2.80015625 -9.453125 2.6328125 C-6.15309036 2.02805502 -3.24050482 0 0 0 Z " fill="#929292" transform="translate(339,130)"/>
<path d="M0 0 C0.66 0 1.32 0 2 0 C2 7.92 2 15.84 2 24 C0.68 24.33 -0.64 24.66 -2 25 C-2 22 -2 22 -1 20 C-0.84876169 18.4804236 -0.75118307 16.95527498 -0.68359375 15.4296875 C-0.64169922 14.53378906 -0.59980469 13.63789062 -0.55664062 12.71484375 C-0.51732422 11.77769531 -0.47800781 10.84054688 -0.4375 9.875 C-0.39431641 8.93011719 -0.35113281 7.98523438 -0.30664062 7.01171875 C-0.20040928 4.67462908 -0.09836824 2.3374317 0 0 Z " fill="#949494" transform="translate(264,114)"/>
<path d="M0 0 C-0.33 0.99 -0.66 1.98 -1 3 C-6.66642551 4.22517308 -12.23708518 4.09228867 -18 4 C-18 3.01 -18 2.02 -18 1 C-11.95170514 0.10395632 -6.1105424 -0.11269443 0 0 Z " fill="#888888" transform="translate(217,121)"/>
<path d="M0 0 C0.99 0.66 1.98 1.32 3 2 C2.67 3.32 2.34 4.64 2 6 C-1.63 6.33 -5.26 6.66 -9 7 C-9 8.65 -9 10.3 -9 12 C-9.66 12 -10.32 12 -11 12 C-11 9.36 -11 6.72 -11 4 C-5.555 3.505 -5.555 3.505 0 3 C0 2.01 0 1.02 0 0 Z " fill="#979797" transform="translate(333,117)"/>
<path d="M0 0 C2.31 0 4.62 0 7 0 C7 0.66 7 1.32 7 2 C5.68 2.33 4.36 2.66 3 3 C3 5.97 3 8.94 3 12 C2.01 12 1.02 12 0 12 C0 8.04 0 4.08 0 0 Z " fill="#969696" transform="translate(280,123)"/>
<path d="M0 0 C0.99 0.33 1.98 0.66 3 1 C3 5.95 3 10.9 3 16 C2.34 16.33 1.68 16.66 1 17 C-0.18681726 13.43954823 -0.09689832 10.56191663 -0.0625 6.8125 C-0.05347656 5.54019531 -0.04445313 4.26789063 -0.03515625 2.95703125 C-0.02355469 1.98121094 -0.01195312 1.00539063 0 0 Z " fill="#969696" transform="translate(292,121)"/>
<path d="M0 0 C0.99 0.33 1.98 0.66 3 1 C3 5.29 3 9.58 3 14 C2.01 14.33 1.02 14.66 0 15 C0 10.05 0 5.1 0 0 Z " fill="#808080" transform="translate(303,114)"/>
<path d="M0 0 C3.96 0 7.92 0 12 0 C12 0.66 12 1.32 12 2 C7.545 2.495 7.545 2.495 3 3 C3 3.99 3 4.98 3 6 C2.01 6 1.02 6 0 6 C0 4.02 0 2.04 0 0 Z " fill="#7E7E7E" transform="translate(247,142)"/>
<path d="M0 0 C2.33944736 0.28730055 4.6739143 0.61936779 7 1 C7 1.66 7 2.32 7 3 C5.35 3 3.7 3 2 3 C1.67 4.32 1.34 5.64 1 7 C0.34 7 -0.32 7 -1 7 C-1.04254356 5.00045254 -1.04080783 2.99958364 -1 1 C-0.67 0.67 -0.34 0.34 0 0 Z " fill="#8A8A8A" transform="translate(331,141)"/>
<path d="M0 0 C-0.33 0.99 -0.66 1.98 -1 3 C-3.64 3.33 -6.28 3.66 -9 4 C-9.66 3.01 -10.32 2.02 -11 1 C-7.27569643 0.30710631 -3.78916254 -0.11144596 0 0 Z " fill="#929292" transform="translate(246,119)"/>
<path d="M0 0 C0.99 0 1.98 0 3 0 C3 3.3 3 6.6 3 10 C2.01 9.34 1.02 8.68 0 8 C-0.40843923 5.28796348 -0.13336867 2.7562858 0 0 Z " fill="#868686" transform="translate(263,140)"/>
<path d="M0 0 C2.31 0 4.62 0 7 0 C7 0.66 7 1.32 7 2 C5.35 2 3.7 2 2 2 C2 2.99 2 3.98 2 5 C1.34 5 0.68 5 0 5 C0 3.35 0 1.7 0 0 Z " fill="#969696" transform="translate(248,143)"/>
</svg>
