<svg xmlns="http://www.w3.org/2000/svg" width="377" height="525" viewBox="0 0 377 525" version="1.1"><path d="M 170 5.617 C 166.975 6.455, 164.072 7.559, 163.550 8.070 C 163.028 8.582, 161.903 9.009, 161.050 9.019 C 157.521 9.063, 134.827 20.035, 126 25.966 C 105.378 39.820, 96.469 52.495, 95.333 69.596 C 94.575 80.997, 93.083 83.075, 80.238 90.611 C 59.482 102.790, 43.303 125.062, 38.104 148.614 C 36.386 156.392, 36.103 162.174, 35.834 195 C 35.527 232.294, 35.538 232.530, 37.842 238 C 39.116 241.025, 41.135 245.075, 42.329 247 C 44.575 250.621, 45.934 257.795, 48.152 277.749 C 49.001 285.383, 49.076 289.324, 48.385 290.015 C 47.693 290.707, 45.299 290.360, 40.933 288.938 C 26.887 284.361, 12.930 289.376, 6.918 301.161 C 4.381 306.133, 2.042 319.445, 2.018 329.040 C 1.973 347.540, 8.235 358.004, 28.500 373.294 C 40.652 382.463, 54.991 390.164, 62.291 391.442 C 66.523 392.183, 66.364 391.928, 72.589 408 C 91.188 456.023, 126.652 495.040, 166.500 511.317 C 181.035 517.255, 195.413 520.285, 209.500 520.379 C 221.336 520.458, 221.613 520.407, 229.795 516.671 C 254.467 505.404, 275.916 491.265, 289.172 477.532 C 298.260 468.115, 304.395 458.984, 312.035 443.500 C 322.972 421.336, 328.164 403.109, 329.552 382 C 329.931 376.225, 330.819 370.086, 331.525 368.358 C 332.231 366.629, 337.466 360.554, 343.159 354.858 C 355.607 342.401, 361.794 334.534, 366.353 325.365 C 372.423 313.159, 373.487 308.162, 373.452 292 C 373.423 278.193, 373.291 277.249, 370.696 272.255 C 365.966 263.151, 357.264 259.558, 345.276 261.759 C 342.402 262.286, 339.882 262.548, 339.674 262.341 C 339.467 262.134, 340.803 258.215, 342.643 253.633 C 347.987 240.323, 350.039 230.849, 350.685 216.500 C 351.097 207.345, 351.822 202.084, 353.135 198.713 C 355.263 193.251, 355.653 180.948, 353.903 174.500 C 352.188 168.182, 337.860 140.561, 328.744 126 C 326.505 122.425, 322.850 116.575, 320.620 113 C 310.029 96.022, 291.469 81.720, 270 73.993 C 257.295 69.420, 251.937 63.846, 246.484 49.529 C 243.856 42.629, 242.482 40.666, 234.976 33.097 C 224.169 22.198, 208.669 10.465, 200.681 7.135 C 192.980 3.926, 178.663 3.217, 170 5.617 M 106.500 155.319 C 92.402 166.588, 82.075 180.277, 73.924 198.500 C 71.956 202.900, 69.173 208.206, 67.739 210.291 C 64.385 215.172, 62.311 221.620, 61.080 231 C 60.538 235.125, 59.202 245.256, 58.110 253.514 C 56.277 267.369, 56.230 269.531, 57.500 281.514 C 59.138 296.960, 61.055 311.459, 64.509 334.500 C 69.194 365.762, 69.789 368.631, 76.430 392 C 80.402 405.975, 93.880 433.162, 102.554 444.696 C 122.092 470.674, 137.290 484.257, 159.691 495.760 C 181.516 506.968, 199.169 511.168, 215.217 508.970 C 225.291 507.591, 231.500 505.291, 241.027 499.410 C 245.137 496.873, 252.775 492.547, 258 489.796 C 263.225 487.046, 269.525 483.310, 272 481.495 C 288.193 469.618, 305.049 443.798, 313.879 417.344 C 319.042 401.877, 319.589 398.461, 322.026 366.500 C 323.158 351.650, 324.742 333.425, 325.546 326 C 327.915 304.120, 328.444 273.526, 326.696 259.500 C 324.029 238.107, 319.052 212.248, 315.951 203.678 C 311.839 192.314, 304.979 180.579, 298.710 174.186 C 292.063 167.405, 283.228 163.169, 267 158.983 C 247.222 153.880, 248.023 153.838, 240.986 160.353 C 234.917 165.971, 228.344 169.590, 208.500 178.237 C 198.428 182.626, 193.364 184.258, 178.276 187.974 C 164.654 191.330, 163.387 191.058, 149.638 181.833 C 137.686 173.814, 129.802 167.199, 124.666 160.881 C 122.375 158.063, 119.150 154.220, 117.500 152.340 L 114.500 148.924 106.500 155.319 M 245.155 210.590 C 237.805 212.198, 228.081 215.161, 222.870 217.381 C 216.889 219.928, 209.965 229.814, 210.032 235.710 C 210.075 239.518, 211.903 241.627, 217.183 243.963 C 224.204 247.069, 231.279 247.440, 245.606 245.455 C 259.414 243.543, 259.684 243.528, 265 244.397 C 268.719 245.006, 284.452 241.303, 290.655 238.359 C 292.543 237.463, 294.755 235.441, 295.570 233.865 C 296.880 231.332, 296.878 230.666, 295.559 228.115 C 293.464 224.063, 285.689 217.471, 279.624 214.604 C 268.099 209.156, 257.400 207.909, 245.155 210.590 M 106.500 213.982 C 97.263 214.534, 94.280 215.155, 87.888 217.856 C 79.685 221.322, 72 227.119, 72 229.843 C 72 232.016, 75.596 238.821, 78.355 241.870 C 85.151 249.378, 92.859 251.356, 109.690 249.912 C 131.496 248.041, 150 239.738, 150 231.824 C 150 228.884, 147.359 223.780, 143.513 219.287 C 138.078 212.937, 133.930 212.342, 106.500 213.982 M 249.798 264.931 C 241.862 267.468, 235.884 271.189, 231.208 276.501 C 223.102 285.710, 219.083 299.394, 223.531 302.646 C 224.549 303.391, 225.859 304, 226.441 303.999 C 227.024 303.999, 230.132 299.026, 233.349 292.949 C 239.062 282.156, 241.188 280.177, 241.805 285.078 C 243.530 298.789, 252.051 305.544, 262.560 301.530 C 270.344 298.557, 274.504 290.274, 273.834 279.081 L 273.500 273.500 276.915 273.776 C 282.748 274.248, 288.583 277.563, 294.934 284.014 C 300.745 289.916, 301.149 290.145, 303.271 288.745 C 306.884 286.359, 306.628 282.701, 302.530 278.165 C 298.498 273.702, 286.383 267.051, 277.846 264.614 C 270.251 262.446, 257.105 262.594, 249.798 264.931 M 220.500 266.403 C 216.917 267.984, 214.510 270.528, 213.108 274.216 C 211.606 278.166, 213.316 278.591, 218.496 275.555 C 222.425 273.253, 228 267.446, 228 265.656 C 228 264.565, 223.691 264.994, 220.500 266.403 M 343.907 271.304 C 337.999 274.394, 335.692 278.821, 336.511 285.500 C 336.848 288.250, 337.433 290.799, 337.812 291.164 C 338.190 291.529, 341.425 290.047, 345 287.871 C 353.633 282.616, 355.862 282.111, 358.119 284.898 C 360.545 287.894, 359.702 289.404, 353.660 292.878 C 347.177 296.606, 340.825 302.492, 338.570 306.860 C 336.193 311.463, 332.025 346.016, 333.410 349.626 C 333.960 351.059, 335.523 349.945, 342.100 343.437 C 355.396 330.279, 362.505 316.775, 364.968 300 C 366.060 292.563, 366.006 290.694, 364.532 285.060 C 362.454 277.117, 359.610 271.397, 357.062 270.033 C 353.897 268.339, 348.599 268.851, 343.907 271.304 M 142.705 271.647 C 141.217 272.426, 140 273.428, 140 273.873 C 140 274.800, 150.900 277.433, 151.647 276.686 C 152.479 275.854, 149.727 272.197, 147.509 271.186 C 146.035 270.514, 144.604 270.651, 142.705 271.647 M 106.500 277.916 C 98.248 279.117, 93.636 280.788, 87.414 284.831 C 79.186 290.177, 73 297.119, 73 301.009 C 73 305.551, 75.181 305.589, 81.046 301.150 C 86.924 296.701, 98.880 290.547, 99.820 291.486 C 100.155 291.821, 100.525 294.743, 100.642 297.979 C 100.760 301.215, 101.367 304.817, 101.992 305.985 C 103.966 309.674, 108.993 311.992, 115.027 311.996 C 123.292 312.002, 127.313 308.682, 131.069 298.750 C 132.265 295.587, 133.616 293, 134.072 293 C 134.527 293, 136.945 294.380, 139.444 296.067 C 147.787 301.698, 153.047 298.231, 147.317 290.879 C 143.359 285.801, 137.279 281.499, 131.500 279.685 C 125.437 277.783, 113.312 276.925, 106.500 277.916 M 25.500 299.206 C 18.655 301.598, 15.111 307.485, 13.008 319.955 C 10.008 337.738, 16.931 353.503, 32.140 363.523 C 40.741 369.189, 61.463 380.204, 62.178 379.489 C 62.661 379.006, 61.715 371.795, 58.688 352.870 C 57.799 347.314, 56.518 343.132, 55.091 341.128 C 52.883 338.027, 43.894 333.111, 32.111 328.560 C 27.380 326.732, 26.449 325.960, 26.178 323.636 C 25.409 317.056, 31.305 316.333, 43.942 321.457 C 48.585 323.340, 52.748 324.656, 53.192 324.381 C 54.622 323.497, 54.064 312.435, 52.423 309.146 C 48.357 300.995, 34.753 295.973, 25.500 299.206 M 185.172 318.317 C 180.286 323.518, 174.488 343.454, 173.197 359.492 C 171.347 382.481, 176.310 401.389, 187.743 414.906 C 190.064 417.651, 191.108 418.190, 193.121 417.684 C 197.505 416.584, 202.425 412.557, 205 407.961 C 207.435 403.615, 207.498 402.996, 207.442 384 C 207.341 350.286, 202.628 329.533, 192.735 319.250 C 189.015 315.384, 188.040 315.264, 185.172 318.317 M 231.500 432.537 C 216.591 440.714, 210.140 442.428, 197.089 441.681 C 183.553 440.907, 173.071 438.691, 165.836 435.076 C 162.690 433.504, 159.865 432.469, 159.558 432.775 C 158.493 433.840, 159.008 439.114, 160.449 441.901 C 161.246 443.442, 162.933 445.380, 164.199 446.208 C 167.525 448.383, 178.192 450.769, 188 451.532 C 203.594 452.746, 223.945 447.485, 239.096 438.324 C 244.997 434.756, 245.500 434.179, 245.500 430.976 C 245.500 425.888, 243.146 426.150, 231.500 432.537" stroke="none" fill="#0a0a0a" fill-rule="evenodd"/><path d="M -0 262.503 L -0 525.005 188.750 524.753 L 377.500 524.500 377.752 262.250 L 378.004 0 189.002 0 L 0 0 -0 262.503 M 0.493 263 C 0.493 407.375, 0.608 466.438, 0.750 394.250 C 0.892 322.063, 0.892 203.938, 0.750 131.750 C 0.608 59.563, 0.493 118.625, 0.493 263 M 170 5.617 C 166.975 6.455, 164.072 7.559, 163.550 8.070 C 163.028 8.582, 161.903 9.009, 161.050 9.019 C 157.521 9.063, 134.827 20.035, 126 25.966 C 105.378 39.820, 96.469 52.495, 95.333 69.596 C 94.575 80.997, 93.083 83.075, 80.238 90.611 C 59.482 102.790, 43.303 125.062, 38.104 148.614 C 36.386 156.392, 36.103 162.174, 35.834 195 C 35.527 232.294, 35.538 232.530, 37.842 238 C 39.116 241.025, 41.135 245.075, 42.329 247 C 44.575 250.621, 45.934 257.795, 48.152 277.749 C 49.001 285.383, 49.076 289.324, 48.385 290.015 C 47.693 290.707, 45.299 290.360, 40.933 288.938 C 26.887 284.361, 12.930 289.376, 6.918 301.161 C 4.381 306.133, 2.042 319.445, 2.018 329.040 C 1.973 347.540, 8.235 358.004, 28.500 373.294 C 40.652 382.463, 54.991 390.164, 62.291 391.442 C 66.523 392.183, 66.364 391.928, 72.589 408 C 91.188 456.023, 126.652 495.040, 166.500 511.317 C 181.035 517.255, 195.413 520.285, 209.500 520.379 C 221.336 520.458, 221.613 520.407, 229.795 516.671 C 254.467 505.404, 275.916 491.265, 289.172 477.532 C 298.260 468.115, 304.395 458.984, 312.035 443.500 C 322.972 421.336, 328.164 403.109, 329.552 382 C 329.931 376.225, 330.819 370.086, 331.525 368.358 C 332.231 366.629, 337.466 360.554, 343.159 354.858 C 355.607 342.401, 361.794 334.534, 366.353 325.365 C 372.423 313.159, 373.487 308.162, 373.452 292 C 373.423 278.193, 373.291 277.249, 370.696 272.255 C 365.966 263.151, 357.264 259.558, 345.276 261.759 C 342.402 262.286, 339.882 262.548, 339.674 262.341 C 339.467 262.134, 340.803 258.215, 342.643 253.633 C 347.987 240.323, 350.039 230.849, 350.685 216.500 C 351.097 207.345, 351.822 202.084, 353.135 198.713 C 355.263 193.251, 355.653 180.948, 353.903 174.500 C 352.188 168.182, 337.860 140.561, 328.744 126 C 326.505 122.425, 322.850 116.575, 320.620 113 C 310.029 96.022, 291.469 81.720, 270 73.993 C 257.295 69.420, 251.937 63.846, 246.484 49.529 C 243.856 42.629, 242.482 40.666, 234.976 33.097 C 224.169 22.198, 208.669 10.465, 200.681 7.135 C 192.980 3.926, 178.663 3.217, 170 5.617 M 106.500 155.319 C 92.402 166.588, 82.075 180.277, 73.924 198.500 C 71.956 202.900, 69.173 208.206, 67.739 210.291 C 64.385 215.172, 62.311 221.620, 61.080 231 C 60.538 235.125, 59.202 245.256, 58.110 253.514 C 56.277 267.369, 56.230 269.531, 57.500 281.514 C 59.138 296.960, 61.055 311.459, 64.509 334.500 C 69.194 365.762, 69.789 368.631, 76.430 392 C 80.402 405.975, 93.880 433.162, 102.554 444.696 C 122.092 470.674, 137.290 484.257, 159.691 495.760 C 181.516 506.968, 199.169 511.168, 215.217 508.970 C 225.291 507.591, 231.500 505.291, 241.027 499.410 C 245.137 496.873, 252.775 492.547, 258 489.796 C 263.225 487.046, 269.525 483.310, 272 481.495 C 288.193 469.618, 305.049 443.798, 313.879 417.344 C 319.042 401.877, 319.589 398.461, 322.026 366.500 C 323.158 351.650, 324.742 333.425, 325.546 326 C 327.915 304.120, 328.444 273.526, 326.696 259.500 C 324.029 238.107, 319.052 212.248, 315.951 203.678 C 311.839 192.314, 304.979 180.579, 298.710 174.186 C 292.063 167.405, 283.228 163.169, 267 158.983 C 247.222 153.880, 248.023 153.838, 240.986 160.353 C 234.917 165.971, 228.344 169.590, 208.500 178.237 C 198.428 182.626, 193.364 184.258, 178.276 187.974 C 164.654 191.330, 163.387 191.058, 149.638 181.833 C 137.686 173.814, 129.802 167.199, 124.666 160.881 C 122.375 158.063, 119.150 154.220, 117.500 152.340 L 114.500 148.924 106.500 155.319 M 245.155 210.590 C 237.805 212.198, 228.081 215.161, 222.870 217.381 C 216.889 219.928, 209.965 229.814, 210.032 235.710 C 210.075 239.518, 211.903 241.627, 217.183 243.963 C 224.204 247.069, 231.279 247.440, 245.606 245.455 C 259.414 243.543, 259.684 243.528, 265 244.397 C 268.719 245.006, 284.452 241.303, 290.655 238.359 C 292.543 237.463, 294.755 235.441, 295.570 233.865 C 296.880 231.332, 296.878 230.666, 295.559 228.115 C 293.464 224.063, 285.689 217.471, 279.624 214.604 C 268.099 209.156, 257.400 207.909, 245.155 210.590 M 106.500 213.982 C 97.263 214.534, 94.280 215.155, 87.888 217.856 C 79.685 221.322, 72 227.119, 72 229.843 C 72 232.016, 75.596 238.821, 78.355 241.870 C 85.151 249.378, 92.859 251.356, 109.690 249.912 C 131.496 248.041, 150 239.738, 150 231.824 C 150 228.884, 147.359 223.780, 143.513 219.287 C 138.078 212.937, 133.930 212.342, 106.500 213.982 M 249.798 264.931 C 241.862 267.468, 235.884 271.189, 231.208 276.501 C 223.102 285.710, 219.083 299.394, 223.531 302.646 C 224.549 303.391, 225.859 304, 226.441 303.999 C 227.024 303.999, 230.132 299.026, 233.349 292.949 C 239.062 282.156, 241.188 280.177, 241.805 285.078 C 243.530 298.789, 252.051 305.544, 262.560 301.530 C 270.344 298.557, 274.504 290.274, 273.834 279.081 L 273.500 273.500 276.915 273.776 C 282.748 274.248, 288.583 277.563, 294.934 284.014 C 300.745 289.916, 301.149 290.145, 303.271 288.745 C 306.884 286.359, 306.628 282.701, 302.530 278.165 C 298.498 273.702, 286.383 267.051, 277.846 264.614 C 270.251 262.446, 257.105 262.594, 249.798 264.931 M 220.500 266.403 C 216.917 267.984, 214.510 270.528, 213.108 274.216 C 211.606 278.166, 213.316 278.591, 218.496 275.555 C 222.425 273.253, 228 267.446, 228 265.656 C 228 264.565, 223.691 264.994, 220.500 266.403 M 343.907 271.304 C 337.999 274.394, 335.692 278.821, 336.511 285.500 C 336.848 288.250, 337.433 290.799, 337.812 291.164 C 338.190 291.529, 341.425 290.047, 345 287.871 C 353.633 282.616, 355.862 282.111, 358.119 284.898 C 360.545 287.894, 359.702 289.404, 353.660 292.878 C 347.177 296.606, 340.825 302.492, 338.570 306.860 C 336.193 311.463, 332.025 346.016, 333.410 349.626 C 333.960 351.059, 335.523 349.945, 342.100 343.437 C 355.396 330.279, 362.505 316.775, 364.968 300 C 366.060 292.563, 366.006 290.694, 364.532 285.060 C 362.454 277.117, 359.610 271.397, 357.062 270.033 C 353.897 268.339, 348.599 268.851, 343.907 271.304 M 142.705 271.647 C 141.217 272.426, 140 273.428, 140 273.873 C 140 274.800, 150.900 277.433, 151.647 276.686 C 152.479 275.854, 149.727 272.197, 147.509 271.186 C 146.035 270.514, 144.604 270.651, 142.705 271.647 M 106.500 277.916 C 98.248 279.117, 93.636 280.788, 87.414 284.831 C 79.186 290.177, 73 297.119, 73 301.009 C 73 305.551, 75.181 305.589, 81.046 301.150 C 86.924 296.701, 98.880 290.547, 99.820 291.486 C 100.155 291.821, 100.525 294.743, 100.642 297.979 C 100.760 301.215, 101.367 304.817, 101.992 305.985 C 103.966 309.674, 108.993 311.992, 115.027 311.996 C 123.292 312.002, 127.313 308.682, 131.069 298.750 C 132.265 295.587, 133.616 293, 134.072 293 C 134.527 293, 136.945 294.380, 139.444 296.067 C 147.787 301.698, 153.047 298.231, 147.317 290.879 C 143.359 285.801, 137.279 281.499, 131.500 279.685 C 125.437 277.783, 113.312 276.925, 106.500 277.916 M 25.500 299.206 C 18.655 301.598, 15.111 307.485, 13.008 319.955 C 10.008 337.738, 16.931 353.503, 32.140 363.523 C 40.741 369.189, 61.463 380.204, 62.178 379.489 C 62.661 379.006, 61.715 371.795, 58.688 352.870 C 57.799 347.314, 56.518 343.132, 55.091 341.128 C 52.883 338.027, 43.894 333.111, 32.111 328.560 C 27.380 326.732, 26.449 325.960, 26.178 323.636 C 25.409 317.056, 31.305 316.333, 43.942 321.457 C 48.585 323.340, 52.748 324.656, 53.192 324.381 C 54.622 323.497, 54.064 312.435, 52.423 309.146 C 48.357 300.995, 34.753 295.973, 25.500 299.206 M 185.172 318.317 C 180.286 323.518, 174.488 343.454, 173.197 359.492 C 171.347 382.481, 176.310 401.389, 187.743 414.906 C 190.064 417.651, 191.108 418.190, 193.121 417.684 C 197.505 416.584, 202.425 412.557, 205 407.961 C 207.435 403.615, 207.498 402.996, 207.442 384 C 207.341 350.286, 202.628 329.533, 192.735 319.250 C 189.015 315.384, 188.040 315.264, 185.172 318.317 M 231.500 432.537 C 216.591 440.714, 210.140 442.428, 197.089 441.681 C 183.553 440.907, 173.071 438.691, 165.836 435.076 C 162.690 433.504, 159.865 432.469, 159.558 432.775 C 158.493 433.840, 159.008 439.114, 160.449 441.901 C 161.246 443.442, 162.933 445.380, 164.199 446.208 C 167.525 448.383, 178.192 450.769, 188 451.532 C 203.594 452.746, 223.945 447.485, 239.096 438.324 C 244.997 434.756, 245.500 434.179, 245.500 430.976 C 245.500 425.888, 243.146 426.150, 231.500 432.537" stroke="none" fill="#f9f9f9" fill-rule="evenodd"/></svg>