<svg xmlns="http://www.w3.org/2000/svg" width="334" height="285" viewBox="0 0 334 285" version="1.1"><path d="M 186.002 4.773 L 177.505 7.297 162.573 5.515 C 143.857 3.281, 134.114 3.890, 121.594 8.077 C 110.238 11.874, 105.079 14.858, 97.645 21.930 C 91.080 28.175, 89.230 31.343, 86.154 41.618 C 83.762 49.608, 83.033 50.463, 77.820 51.402 C 67.363 53.285, 53.959 63.280, 49.089 72.826 C 46.320 78.253, 44.039 88.169, 43.989 95 C 43.928 103.088, 41.550 107.439, 34.500 112.358 C 26.655 117.831, 25.004 121.182, 25.002 131.631 C 25 139.626, 24.945 139.805, 21.750 142.258 C 12.905 149.049, 6.753 156.788, 2.432 166.557 C 0.347 171.273, -0 173.593, -0 182.832 C -0 192.314, 0.298 194.201, 2.485 198.554 C 3.851 201.274, 6.547 205.208, 8.475 207.295 L 11.980 211.090 8.616 217.795 C 2.953 229.081, 1.607 239.896, 4.596 250.068 C 6.782 257.505, 10.096 261.515, 16.895 264.947 C 29.579 271.350, 41.744 272.418, 51.720 268.006 C 54.214 266.903, 57.062 266, 58.050 266 C 59.037 266, 61.938 268.450, 64.496 271.444 C 70.350 278.296, 75.793 280.387, 86.326 279.834 C 98.151 279.212, 110.329 271.703, 116.104 261.470 C 117.802 258.462, 119.431 256, 119.724 256 C 120.017 256, 122.571 257.324, 125.399 258.942 C 133.175 263.391, 147.706 267.882, 157.653 268.912 C 171.988 270.395, 190.257 267.481, 201.007 261.997 L 204.538 260.195 209.019 264.148 C 220.722 274.471, 223.057 276, 227.122 276 C 230.899 276, 235.732 274.337, 239.067 271.890 C 240.331 270.964, 241.628 271.455, 245.758 274.421 C 252.408 279.199, 262.305 283.120, 268.076 283.263 C 274.113 283.413, 279.707 280.444, 283.495 275.081 C 286.330 271.068, 286.510 270.224, 286.856 259.325 C 287.277 246.077, 286.092 246.861, 298.756 251.446 C 307.148 254.485, 310.293 254.102, 318.207 249.084 C 322.407 246.420, 323.103 245.424, 325.041 239.309 C 327.663 231.039, 327.958 218.807, 325.717 211.355 C 324.866 208.525, 322.580 203.214, 320.637 199.552 C 318.576 195.668, 317.356 192.187, 317.709 191.197 C 318.042 190.264, 320.081 186.487, 322.239 182.805 C 327.952 173.056, 329.312 167.838, 327.915 161.017 C 326.173 152.508, 322.454 145.652, 315.427 137.995 C 311.892 134.143, 308.921 130.431, 308.824 129.746 C 308.727 129.061, 308.605 124.450, 308.554 119.500 C 308.405 105.074, 303.657 97.893, 290.248 91.813 C 283.323 88.673, 283.031 88.242, 280.573 77.500 C 277.640 64.678, 271.613 55.202, 263.293 50.326 C 259.708 48.225, 257.050 47.556, 250.860 47.198 L 242.986 46.742 240.488 38.555 C 234.766 19.794, 223.356 7.577, 207.650 3.395 C 200.607 1.520, 195.958 1.815, 186.002 4.773 M 195.058 12.016 C 187.618 14.640, 185.598 14.946, 178.058 14.592 C 173.351 14.371, 165.696 13.414, 161.046 12.463 C 143.793 8.938, 126.431 11.673, 112.415 20.123 C 100.074 27.563, 95.383 33.473, 92.428 45.307 C 91.493 49.051, 90.002 52.995, 89.114 54.071 C 88.226 55.147, 83.769 57.339, 79.209 58.943 C 57.803 66.470, 51.370 75.147, 50.129 98.171 C 49.412 111.478, 48.911 112.420, 39.206 118.695 C 31.874 123.435, 30.212 127.121, 31.843 135.016 C 33.391 142.513, 32.965 143.347, 23.897 150.582 C 12.259 159.868, 5.651 172.498, 5.758 185.250 C 5.825 193.139, 7.807 197.337, 13.054 200.705 C 19.598 204.906, 20.250 205.585, 20.250 208.208 C 20.250 209.656, 18.231 214.814, 15.763 219.670 C 13.295 224.527, 10.946 229.850, 10.544 231.500 C 9.177 237.101, 9.869 246.826, 11.914 250.767 C 15.843 258.338, 30.343 264.875, 40.282 263.557 C 43.234 263.165, 48.288 261.247, 52.594 258.884 C 61.091 254.220, 62.310 254.440, 66.372 261.372 C 70.015 267.589, 74.151 270.749, 79.755 271.598 C 85.993 272.544, 95.637 270.034, 101.641 265.903 C 106.536 262.535, 112 254.930, 112 251.485 C 112 249.295, 107.928 243.394, 99.885 233.930 C 93.366 226.259, 90.376 221.145, 85.966 210.126 C 83.486 203.929, 81.648 200.627, 80.807 200.856 C 80.088 201.052, 73.839 201.451, 66.920 201.743 C 51.425 202.397, 45.888 200.941, 39.474 194.526 C 31.416 186.468, 29.924 174.017, 35.503 161.394 C 41.445 147.951, 51.294 143.415, 68.250 146.311 L 73 147.123 73 141.192 C 73 137.931, 72.271 131.266, 71.379 126.381 C 68.436 110.255, 68.802 109.341, 80.610 103.346 C 92.599 97.259, 101.353 88.443, 108.449 75.308 C 109.992 72.453, 111.815 69.901, 112.500 69.638 C 113.185 69.375, 116.294 70.695, 119.409 72.572 C 127.363 77.363, 134.097 79.399, 139.276 78.578 C 144.983 77.673, 150.585 73.596, 153.714 68.070 C 155.138 65.557, 157.658 61.321, 159.314 58.658 L 162.326 53.816 167.386 59.010 C 172.100 63.849, 172.707 64.169, 176.284 63.689 C 181.754 62.955, 186.169 59.539, 190.406 52.760 C 192.908 48.758, 194.629 46.975, 195.777 47.196 C 196.707 47.375, 200.624 52.101, 204.484 57.698 C 212.987 70.033, 215.442 72.691, 224.671 79.560 C 228.987 82.772, 234.326 88.102, 238.083 92.949 C 241.515 97.377, 244.646 101, 245.039 101 C 245.433 101, 246.315 100.325, 247 99.500 C 250.002 95.883, 250.302 98.018, 249.599 118 C 249.212 129, 249.153 138, 249.469 138 C 249.785 138, 251.860 136.797, 254.082 135.327 C 258.812 132.197, 266.891 131.149, 272.364 132.955 C 277.244 134.566, 283.473 141.850, 284.935 147.655 C 287.300 157.048, 287.358 164.090, 285.121 170 C 282.119 177.926, 275.323 185.224, 267.231 189.207 C 261.464 192.046, 259.574 192.484, 253.521 192.385 C 249.659 192.321, 245.680 192.096, 244.677 191.885 C 243.124 191.557, 242.438 193.127, 240.037 202.500 C 234.784 223.009, 228.250 235.602, 215.250 250.271 C 212.912 252.909, 211 255.470, 211 255.964 C 211 256.457, 213.137 259.185, 215.750 262.025 C 219.837 266.469, 221.137 267.262, 225.065 267.704 C 229.550 268.209, 229.706 268.128, 233.909 263.109 C 236.261 260.299, 239.027 258, 240.054 258 C 241.178 258, 243.161 259.891, 245.035 262.750 C 248.424 267.919, 253.564 272.032, 258.899 273.845 C 263.719 275.483, 271.155 275.280, 273.783 273.439 C 278.164 270.371, 279 267.022, 279 252.550 L 279 239 281.773 239 C 283.298 239, 288.120 240.377, 292.490 242.059 C 306.651 247.512, 313.666 245.854, 317.880 236.058 C 322.555 225.191, 321.788 219.434, 313.425 202.588 C 310.991 197.686, 309 192.937, 309 192.034 C 309 191.131, 310.418 188.166, 312.150 185.446 C 318.124 176.066, 319.980 170.982, 319.980 164 C 319.980 153.304, 314.953 145.103, 305.139 139.791 C 300.848 137.469, 300.138 134.982, 300.742 124.389 C 301.731 107.041, 296.491 99.635, 281.753 97.550 C 278.820 97.135, 276.672 96.232, 276.134 95.189 C 275.654 94.260, 275.030 89.599, 274.747 84.831 C 273.850 69.752, 265.665 56.153, 256.444 54.424 C 254.423 54.044, 249.725 54.017, 246.004 54.363 C 240.673 54.858, 238.977 54.677, 238.006 53.507 C 237.328 52.690, 235.702 47.490, 234.393 41.950 C 231.665 30.406, 228.788 24.903, 222.407 19.021 C 218.359 15.290, 207.047 8.972, 204.500 9.021 C 203.950 9.031, 199.701 10.379, 195.058 12.016 M 192.661 61.378 C 191.244 63.235, 187.964 66.160, 185.371 67.878 C 179.636 71.677, 173.118 72.070, 166.764 69 C 164.487 67.900, 162.503 67, 162.354 67 C 162.206 67, 160.920 68.986, 159.498 71.414 C 155.817 77.694, 148.926 83.736, 144.494 84.567 C 137.631 85.855, 128.593 84.456, 121.522 81.011 C 117.873 79.233, 114.759 77.941, 114.601 78.139 C 114.444 78.338, 112.228 81.763, 109.677 85.752 C 101.787 98.086, 96.337 103.096, 81.865 111.317 C 75.922 114.693, 75.454 116.679, 77.615 129.384 C 79.527 140.627, 80.180 142, 83.622 142 C 86.637 142, 86.629 140.940, 83.594 138.088 C 80.635 135.308, 79.583 132, 81.658 132 C 82.467 132, 85.351 132.956, 88.066 134.124 C 92.055 135.840, 94.106 136.122, 98.751 135.595 C 113.806 133.886, 116.271 133.816, 120.421 134.978 C 122.823 135.650, 126.412 137.540, 128.398 139.177 C 132.551 142.600, 138 150.121, 138 152.430 C 138 155.168, 133.803 154.188, 130.964 150.787 L 128.282 147.575 126.277 152.037 C 123.442 158.346, 119.758 161.455, 115.115 161.455 C 109.622 161.455, 106.205 158.795, 104.761 153.396 C 103.648 149.236, 103.334 148.906, 101.023 149.481 C 93.380 151.382, 91.095 151.527, 86.175 150.423 C 81.664 149.410, 80.764 149.451, 80.291 150.684 C 79.383 153.050, 82.720 176.711, 85.433 187.151 C 89.923 204.424, 96.762 219.472, 105.202 230.651 C 115.394 244.150, 135.441 257.363, 150.500 260.505 C 166.099 263.760, 185.980 261.545, 196.754 255.352 C 199.364 253.851, 205.576 248.546, 210.559 243.562 C 222.910 231.207, 227.634 221.827, 232.502 200 C 239.154 170.172, 241.193 157.817, 241.741 144.016 L 242.277 130.532 237.673 134.304 L 233.070 138.076 229.075 136.038 C 226.878 134.917, 224.644 134, 224.112 134 C 223.579 134, 222.830 136.516, 222.445 139.591 C 221.591 146.431, 218.920 149.841, 213.777 150.660 C 210.473 151.186, 209.656 150.856, 206.527 147.727 C 204.342 145.542, 203 143.233, 203 141.659 C 203 140.261, 202.530 138.828, 201.956 138.473 C 200.305 137.452, 198.074 139.910, 194.843 146.311 C 193.196 149.573, 190.720 153.371, 189.340 154.751 C 187.142 156.949, 186.650 157.079, 185.373 155.802 C 184.096 154.525, 184.589 152.855, 189.350 142.332 C 192.863 134.567, 194.619 129.458, 194.318 127.882 C 194.011 126.276, 194.532 124.828, 195.846 123.639 C 197.780 121.889, 197.878 121.905, 199.056 124.167 C 199.724 125.450, 200.400 126.652, 200.557 126.838 C 200.714 127.024, 202.265 126.124, 204.003 124.838 C 206.680 122.858, 208.471 122.475, 215.710 122.340 L 224.256 122.179 229.483 117.016 C 234.334 112.226, 234.829 111.972, 236.355 113.498 C 238.704 115.847, 238.414 117.459, 234.926 121.431 C 232.936 123.698, 231.977 125.737, 232.208 127.216 C 232.537 129.330, 232.951 129.121, 237.782 124.393 C 243.520 118.777, 244.185 116.248, 241.384 110.700 C 237.919 103.836, 228.722 92.879, 219.820 85.011 C 208.622 75.113, 207.100 73.443, 201.360 64.750 C 198.909 61.038, 196.528 58, 196.070 58 C 195.612 58, 194.078 59.520, 192.661 61.378 M 194.796 88.993 C 185.555 91.423, 179.448 95.202, 176.998 100.003 C 174.495 104.911, 174.346 110.535, 176.696 111.437 C 179.987 112.700, 213.273 110.864, 216.841 109.223 C 224.114 105.877, 224.761 97.108, 217.980 93.805 C 203.711 86.854, 203.275 86.763, 194.796 88.993 M 190.840 97.022 C 187.232 98.928, 182.526 103.860, 183.442 104.776 C 183.701 105.034, 190.434 104.920, 198.404 104.522 C 213.746 103.755, 217.605 102.639, 215.150 99.681 C 211.459 95.233, 197.182 93.672, 190.840 97.022 M 102.913 102.875 C 97.920 103.929, 93.311 107.470, 90.977 112.044 C 88.438 117.022, 88.489 118.294, 91.357 121.628 C 93.634 124.276, 94.230 124.408, 109.107 125.553 C 126.304 126.877, 129.344 126.273, 133.397 120.728 C 135.289 118.140, 135.326 117.676, 133.962 113.728 C 132.671 109.994, 131.741 109.126, 126 106.296 C 119.015 102.852, 109.617 101.460, 102.913 102.875 M 104.001 110.123 C 100.806 111.397, 97 114.959, 97 116.674 C 97 117.643, 98.797 118, 103.668 118 C 107.336 118, 113.192 118.497, 116.683 119.105 C 122.131 120.054, 123.384 119.978, 125.532 118.571 C 129.386 116.046, 127.290 113.479, 119.378 111.035 C 112.227 108.826, 107.897 108.570, 104.001 110.123 M 182.733 133.750 C 180.188 136.573, 179.486 140.865, 181.445 141.617 C 183.871 142.548, 188 138.270, 188 134.826 C 188 131.500, 185.264 130.941, 182.733 133.750 M 135.750 138.762 C 134.238 138.966, 133 139.560, 133 140.081 C 133 141.505, 139.184 144.992, 141.718 144.996 C 143.580 144.999, 143.806 144.649, 143.126 142.811 C 142.052 139.908, 139.132 138.305, 135.750 138.762 M 260.775 140.559 C 258.144 141.986, 256 144.813, 256 146.854 C 256 147.406, 257.735 147.158, 259.942 146.290 C 264.185 144.624, 267 145.060, 267 147.385 C 267 148.181, 264.241 151.329, 260.869 154.380 C 253.019 161.484, 252.403 162.414, 247.387 174.722 L 243.198 185 251.349 184.990 C 257.790 184.983, 260.558 184.488, 264.541 182.633 C 273.634 178.399, 279.251 169.183, 279.185 158.604 C 279.127 149.285, 276.289 143.781, 269.800 140.405 C 266.414 138.644, 264.236 138.681, 260.775 140.559 M 54.460 153.012 C 47.171 155.258, 39.440 165.300, 38.267 174.045 C 37.522 179.599, 41.688 187.819, 47.175 191.621 C 51.082 194.329, 51.929 194.500, 61.415 194.497 C 66.962 194.496, 73.251 194.126, 75.391 193.676 L 79.281 192.857 78.674 185.674 C 77.946 177.058, 76.425 172.298, 73.984 170.992 C 72.991 170.460, 68.201 169.741, 63.339 169.394 C 54.114 168.735, 52 167.666, 52 163.660 C 52 161.827, 52.521 161.741, 60.250 162.305 C 64.787 162.637, 69.995 163.216, 71.822 163.593 L 75.143 164.279 73.528 160.389 C 71.014 154.338, 68.844 152.715, 62.809 152.375 C 59.889 152.210, 56.132 152.496, 54.460 153.012 M 215 156.636 C 210.239 158.361, 206.627 158.952, 201.500 158.846 C 195.138 158.714, 194.529 158.874, 194.819 160.601 C 195.210 162.927, 197.752 165, 200.213 165 C 201.221 165, 204.020 166.821, 206.435 169.046 C 211.117 173.362, 211.373 173.324, 212.483 168.152 L 213.202 164.804 216.535 168.034 C 221.370 172.720, 224.979 170.566, 221.907 164.827 C 220.286 161.798, 222.217 160.338, 225.138 162.384 C 231.067 166.537, 233.260 162.028, 227.750 157.015 C 223.948 153.556, 223.533 153.544, 215 156.636 M 163.615 158.045 C 159.461 162.983, 156.398 178.389, 157.562 188.494 C 158.155 193.638, 158.786 195.021, 162.009 198.244 C 170.403 206.638, 177.016 200.450, 176.985 184.230 C 176.957 169.462, 171.773 155, 166.507 155 C 166.326 155, 165.025 156.370, 163.615 158.045 M 92.797 163.536 C 92.502 163.831, 92.823 165.709, 93.511 167.709 C 94.303 170.013, 94.458 172.403, 93.934 174.230 C 91.977 181.053, 97.275 182.027, 100.845 175.500 C 101.935 173.507, 101.939 173.507, 101.970 175.527 C 102.003 177.771, 104.623 182, 105.979 182 C 106.455 182, 107.365 180.425, 108 178.500 C 108.885 175.818, 109.705 175, 111.510 175 C 113.083 175, 114.093 175.748, 114.551 177.250 C 115.299 179.704, 117.874 183, 119.044 183 C 119.447 183, 120.071 181.434, 120.430 179.519 C 120.869 177.179, 122.217 175.173, 124.542 173.400 C 130.612 168.770, 128.310 164.719, 121.278 167.657 C 116.155 169.798, 107.799 168.945, 101.221 165.612 C 96.150 163.042, 93.856 162.477, 92.797 163.536 M 191.924 208.608 C 188.382 212.420, 178.032 219.531, 174.101 220.855 C 166.562 223.394, 161.313 222.152, 149.750 215.092 L 146 212.802 146 215.824 C 146 217.628, 147.059 220.105, 148.626 221.967 C 155.484 230.117, 167.366 231.825, 179.079 226.344 C 189.619 221.411, 196 214.702, 196 208.550 C 196 205.315, 194.972 205.329, 191.924 208.608" stroke="none" fill="#101010" fill-rule="evenodd"/><path d="M 0.058 85.750 L 0.115 171.500 2.486 166.285 C 6.863 156.655, 13.051 148.937, 21.750 142.258 C 24.945 139.805, 25 139.626, 25.002 131.631 C 25.004 121.182, 26.655 117.831, 34.500 112.358 C 41.550 107.439, 43.928 103.088, 43.989 95 C 44.039 88.169, 46.320 78.253, 49.089 72.826 C 53.959 63.280, 67.363 53.285, 77.820 51.402 C 83.033 50.463, 83.762 49.608, 86.154 41.618 C 89.230 31.343, 91.080 28.175, 97.645 21.930 C 105.079 14.858, 110.238 11.874, 121.594 8.077 C 134.123 3.887, 143.855 3.281, 162.614 5.520 L 177.588 7.307 186.839 4.654 C 197.334 1.643, 200.378 1.459, 207.650 3.395 C 223.356 7.577, 234.766 19.794, 240.488 38.555 L 242.986 46.742 250.860 47.198 C 257.050 47.556, 259.708 48.225, 263.293 50.326 C 271.613 55.202, 277.640 64.678, 280.573 77.500 C 283.031 88.242, 283.323 88.673, 290.248 91.813 C 303.657 97.893, 308.405 105.074, 308.554 119.500 C 308.605 124.450, 308.727 129.061, 308.824 129.746 C 308.921 130.431, 311.892 134.143, 315.427 137.995 C 322.454 145.652, 326.173 152.508, 327.915 161.017 C 329.312 167.838, 327.952 173.056, 322.239 182.805 C 320.081 186.487, 318.042 190.264, 317.709 191.197 C 317.356 192.187, 318.576 195.668, 320.637 199.552 C 322.580 203.214, 324.866 208.525, 325.717 211.355 C 327.958 218.807, 327.663 231.039, 325.041 239.309 C 323.103 245.424, 322.407 246.420, 318.207 249.084 C 310.293 254.102, 307.148 254.485, 298.756 251.446 C 286.092 246.861, 287.277 246.077, 286.856 259.325 C 286.510 270.224, 286.330 271.068, 283.495 275.081 C 279.707 280.444, 274.113 283.413, 268.076 283.263 C 262.305 283.120, 252.408 279.199, 245.758 274.421 C 241.628 271.455, 240.331 270.964, 239.067 271.890 C 235.732 274.337, 230.899 276, 227.122 276 C 223.057 276, 220.722 274.471, 209.019 264.148 L 204.538 260.195 201.007 261.997 C 190.257 267.481, 171.988 270.395, 157.653 268.912 C 147.706 267.882, 133.175 263.391, 125.399 258.942 C 122.571 257.324, 120.017 256, 119.724 256 C 119.431 256, 117.802 258.462, 116.104 261.470 C 110.329 271.703, 98.151 279.212, 86.326 279.834 C 75.793 280.387, 70.350 278.296, 64.496 271.444 C 61.938 268.450, 59.037 266, 58.050 266 C 57.062 266, 54.214 266.903, 51.720 268.006 C 41.744 272.418, 29.579 271.350, 16.895 264.947 C 10.096 261.515, 6.782 257.505, 4.596 250.068 C 1.607 239.896, 2.953 229.081, 8.616 217.795 L 11.980 211.090 8.475 207.295 C 6.547 205.208, 3.851 201.274, 2.485 198.554 L 0 193.607 0 239.307 L 0 285.006 167.250 284.753 L 334.500 284.500 334.746 142.250 L 334.991 0 167.496 0 L 0 0 0.058 85.750 M 0.478 86 C 0.478 133.025, 0.600 152.263, 0.750 128.750 C 0.899 105.238, 0.899 66.763, 0.750 43.250 C 0.600 19.738, 0.478 38.975, 0.478 86 M 195.058 12.016 C 187.618 14.640, 185.598 14.946, 178.058 14.592 C 173.351 14.371, 165.696 13.414, 161.046 12.463 C 143.793 8.938, 126.431 11.673, 112.415 20.123 C 100.074 27.563, 95.383 33.473, 92.428 45.307 C 91.493 49.051, 90.002 52.995, 89.114 54.071 C 88.226 55.147, 83.769 57.339, 79.209 58.943 C 57.803 66.470, 51.370 75.147, 50.129 98.171 C 49.412 111.478, 48.911 112.420, 39.206 118.695 C 31.874 123.435, 30.212 127.121, 31.843 135.016 C 33.391 142.513, 32.965 143.347, 23.897 150.582 C 12.259 159.868, 5.651 172.498, 5.758 185.250 C 5.825 193.139, 7.807 197.337, 13.054 200.705 C 19.598 204.906, 20.250 205.585, 20.250 208.208 C 20.250 209.656, 18.231 214.814, 15.763 219.670 C 13.295 224.527, 10.946 229.850, 10.544 231.500 C 9.177 237.101, 9.869 246.826, 11.914 250.767 C 15.843 258.338, 30.343 264.875, 40.282 263.557 C 43.234 263.165, 48.288 261.247, 52.594 258.884 C 61.091 254.220, 62.310 254.440, 66.372 261.372 C 70.015 267.589, 74.151 270.749, 79.755 271.598 C 85.993 272.544, 95.637 270.034, 101.641 265.903 C 106.536 262.535, 112 254.930, 112 251.485 C 112 249.295, 107.928 243.394, 99.885 233.930 C 93.366 226.259, 90.376 221.145, 85.966 210.126 C 83.486 203.929, 81.648 200.627, 80.807 200.856 C 80.088 201.052, 73.839 201.451, 66.920 201.743 C 51.425 202.397, 45.888 200.941, 39.474 194.526 C 31.416 186.468, 29.924 174.017, 35.503 161.394 C 41.445 147.951, 51.294 143.415, 68.250 146.311 L 73 147.123 73 141.192 C 73 137.931, 72.271 131.266, 71.379 126.381 C 68.436 110.255, 68.802 109.341, 80.610 103.346 C 92.599 97.259, 101.353 88.443, 108.449 75.308 C 109.992 72.453, 111.815 69.901, 112.500 69.638 C 113.185 69.375, 116.294 70.695, 119.409 72.572 C 127.363 77.363, 134.097 79.399, 139.276 78.578 C 144.983 77.673, 150.585 73.596, 153.714 68.070 C 155.138 65.557, 157.658 61.321, 159.314 58.658 L 162.326 53.816 167.386 59.010 C 172.100 63.849, 172.707 64.169, 176.284 63.689 C 181.754 62.955, 186.169 59.539, 190.406 52.760 C 192.908 48.758, 194.629 46.975, 195.777 47.196 C 196.707 47.375, 200.624 52.101, 204.484 57.698 C 212.987 70.033, 215.442 72.691, 224.671 79.560 C 228.987 82.772, 234.326 88.102, 238.083 92.949 C 241.515 97.377, 244.646 101, 245.039 101 C 245.433 101, 246.315 100.325, 247 99.500 C 250.002 95.883, 250.302 98.018, 249.599 118 C 249.212 129, 249.153 138, 249.469 138 C 249.785 138, 251.860 136.797, 254.082 135.327 C 258.812 132.197, 266.891 131.149, 272.364 132.955 C 277.244 134.566, 283.473 141.850, 284.935 147.655 C 287.300 157.048, 287.358 164.090, 285.121 170 C 282.119 177.926, 275.323 185.224, 267.231 189.207 C 261.464 192.046, 259.574 192.484, 253.521 192.385 C 249.659 192.321, 245.680 192.096, 244.677 191.885 C 243.124 191.557, 242.438 193.127, 240.037 202.500 C 234.784 223.009, 228.250 235.602, 215.250 250.271 C 212.912 252.909, 211 255.470, 211 255.964 C 211 256.457, 213.137 259.185, 215.750 262.025 C 219.837 266.469, 221.137 267.262, 225.065 267.704 C 229.550 268.209, 229.706 268.128, 233.909 263.109 C 236.261 260.299, 239.027 258, 240.054 258 C 241.178 258, 243.161 259.891, 245.035 262.750 C 248.424 267.919, 253.564 272.032, 258.899 273.845 C 263.719 275.483, 271.155 275.280, 273.783 273.439 C 278.164 270.371, 279 267.022, 279 252.550 L 279 239 281.773 239 C 283.298 239, 288.120 240.377, 292.490 242.059 C 306.651 247.512, 313.666 245.854, 317.880 236.058 C 322.555 225.191, 321.788 219.434, 313.425 202.588 C 310.991 197.686, 309 192.937, 309 192.034 C 309 191.131, 310.418 188.166, 312.150 185.446 C 318.124 176.066, 319.980 170.982, 319.980 164 C 319.980 153.304, 314.953 145.103, 305.139 139.791 C 300.848 137.469, 300.138 134.982, 300.742 124.389 C 301.731 107.041, 296.491 99.635, 281.753 97.550 C 278.820 97.135, 276.672 96.232, 276.134 95.189 C 275.654 94.260, 275.030 89.599, 274.747 84.831 C 273.850 69.752, 265.665 56.153, 256.444 54.424 C 254.423 54.044, 249.725 54.017, 246.004 54.363 C 240.673 54.858, 238.977 54.677, 238.006 53.507 C 237.328 52.690, 235.702 47.490, 234.393 41.950 C 231.665 30.406, 228.788 24.903, 222.407 19.021 C 218.359 15.290, 207.047 8.972, 204.500 9.021 C 203.950 9.031, 199.701 10.379, 195.058 12.016 M 192.661 61.378 C 191.244 63.235, 187.964 66.160, 185.371 67.878 C 179.636 71.677, 173.118 72.070, 166.764 69 C 164.487 67.900, 162.503 67, 162.354 67 C 162.206 67, 160.920 68.986, 159.498 71.414 C 155.817 77.694, 148.926 83.736, 144.494 84.567 C 137.631 85.855, 128.593 84.456, 121.522 81.011 C 117.873 79.233, 114.759 77.941, 114.601 78.139 C 114.444 78.338, 112.228 81.763, 109.677 85.752 C 101.787 98.086, 96.337 103.096, 81.865 111.317 C 75.922 114.693, 75.454 116.679, 77.615 129.384 C 79.527 140.627, 80.180 142, 83.622 142 C 86.637 142, 86.629 140.940, 83.594 138.088 C 80.635 135.308, 79.583 132, 81.658 132 C 82.467 132, 85.351 132.956, 88.066 134.124 C 92.055 135.840, 94.106 136.122, 98.751 135.595 C 113.806 133.886, 116.271 133.816, 120.421 134.978 C 122.823 135.650, 126.412 137.540, 128.398 139.177 C 132.551 142.600, 138 150.121, 138 152.430 C 138 155.168, 133.803 154.188, 130.964 150.787 L 128.282 147.575 126.277 152.037 C 123.442 158.346, 119.758 161.455, 115.115 161.455 C 109.622 161.455, 106.205 158.795, 104.761 153.396 C 103.648 149.236, 103.334 148.906, 101.023 149.481 C 93.380 151.382, 91.095 151.527, 86.175 150.423 C 81.664 149.410, 80.764 149.451, 80.291 150.684 C 79.383 153.050, 82.720 176.711, 85.433 187.151 C 89.923 204.424, 96.762 219.472, 105.202 230.651 C 115.394 244.150, 135.441 257.363, 150.500 260.505 C 166.099 263.760, 185.980 261.545, 196.754 255.352 C 199.364 253.851, 205.576 248.546, 210.559 243.562 C 222.910 231.207, 227.634 221.827, 232.502 200 C 239.154 170.172, 241.193 157.817, 241.741 144.016 L 242.277 130.532 237.673 134.304 L 233.070 138.076 229.075 136.038 C 226.878 134.917, 224.644 134, 224.112 134 C 223.579 134, 222.830 136.516, 222.445 139.591 C 221.591 146.431, 218.920 149.841, 213.777 150.660 C 210.473 151.186, 209.656 150.856, 206.527 147.727 C 204.342 145.542, 203 143.233, 203 141.659 C 203 140.261, 202.530 138.828, 201.956 138.473 C 200.305 137.452, 198.074 139.910, 194.843 146.311 C 193.196 149.573, 190.720 153.371, 189.340 154.751 C 187.142 156.949, 186.650 157.079, 185.373 155.802 C 184.096 154.525, 184.589 152.855, 189.350 142.332 C 192.863 134.567, 194.619 129.458, 194.318 127.882 C 194.011 126.276, 194.532 124.828, 195.846 123.639 C 197.780 121.889, 197.878 121.905, 199.056 124.167 C 199.724 125.450, 200.400 126.652, 200.557 126.838 C 200.714 127.024, 202.265 126.124, 204.003 124.838 C 206.680 122.858, 208.471 122.475, 215.710 122.340 L 224.256 122.179 229.483 117.016 C 234.334 112.226, 234.829 111.972, 236.355 113.498 C 238.704 115.847, 238.414 117.459, 234.926 121.431 C 232.936 123.698, 231.977 125.737, 232.208 127.216 C 232.537 129.330, 232.951 129.121, 237.782 124.393 C 243.520 118.777, 244.185 116.248, 241.384 110.700 C 237.919 103.836, 228.722 92.879, 219.820 85.011 C 208.622 75.113, 207.100 73.443, 201.360 64.750 C 198.909 61.038, 196.528 58, 196.070 58 C 195.612 58, 194.078 59.520, 192.661 61.378 M 194.796 88.993 C 185.555 91.423, 179.448 95.202, 176.998 100.003 C 174.495 104.911, 174.346 110.535, 176.696 111.437 C 179.987 112.700, 213.273 110.864, 216.841 109.223 C 224.114 105.877, 224.761 97.108, 217.980 93.805 C 203.711 86.854, 203.275 86.763, 194.796 88.993 M 190.840 97.022 C 187.232 98.928, 182.526 103.860, 183.442 104.776 C 183.701 105.034, 190.434 104.920, 198.404 104.522 C 213.746 103.755, 217.605 102.639, 215.150 99.681 C 211.459 95.233, 197.182 93.672, 190.840 97.022 M 102.913 102.875 C 97.920 103.929, 93.311 107.470, 90.977 112.044 C 88.438 117.022, 88.489 118.294, 91.357 121.628 C 93.634 124.276, 94.230 124.408, 109.107 125.553 C 126.304 126.877, 129.344 126.273, 133.397 120.728 C 135.289 118.140, 135.326 117.676, 133.962 113.728 C 132.671 109.994, 131.741 109.126, 126 106.296 C 119.015 102.852, 109.617 101.460, 102.913 102.875 M 104.001 110.123 C 100.806 111.397, 97 114.959, 97 116.674 C 97 117.643, 98.797 118, 103.668 118 C 107.336 118, 113.192 118.497, 116.683 119.105 C 122.131 120.054, 123.384 119.978, 125.532 118.571 C 129.386 116.046, 127.290 113.479, 119.378 111.035 C 112.227 108.826, 107.897 108.570, 104.001 110.123 M 182.733 133.750 C 180.188 136.573, 179.486 140.865, 181.445 141.617 C 183.871 142.548, 188 138.270, 188 134.826 C 188 131.500, 185.264 130.941, 182.733 133.750 M 135.750 138.762 C 134.238 138.966, 133 139.560, 133 140.081 C 133 141.505, 139.184 144.992, 141.718 144.996 C 143.580 144.999, 143.806 144.649, 143.126 142.811 C 142.052 139.908, 139.132 138.305, 135.750 138.762 M 260.775 140.559 C 258.144 141.986, 256 144.813, 256 146.854 C 256 147.406, 257.735 147.158, 259.942 146.290 C 264.185 144.624, 267 145.060, 267 147.385 C 267 148.181, 264.241 151.329, 260.869 154.380 C 253.019 161.484, 252.403 162.414, 247.387 174.722 L 243.198 185 251.349 184.990 C 257.790 184.983, 260.558 184.488, 264.541 182.633 C 273.634 178.399, 279.251 169.183, 279.185 158.604 C 279.127 149.285, 276.289 143.781, 269.800 140.405 C 266.414 138.644, 264.236 138.681, 260.775 140.559 M 54.460 153.012 C 47.171 155.258, 39.440 165.300, 38.267 174.045 C 37.522 179.599, 41.688 187.819, 47.175 191.621 C 51.082 194.329, 51.929 194.500, 61.415 194.497 C 66.962 194.496, 73.251 194.126, 75.391 193.676 L 79.281 192.857 78.674 185.674 C 77.946 177.058, 76.425 172.298, 73.984 170.992 C 72.991 170.460, 68.201 169.741, 63.339 169.394 C 54.114 168.735, 52 167.666, 52 163.660 C 52 161.827, 52.521 161.741, 60.250 162.305 C 64.787 162.637, 69.995 163.216, 71.822 163.593 L 75.143 164.279 73.528 160.389 C 71.014 154.338, 68.844 152.715, 62.809 152.375 C 59.889 152.210, 56.132 152.496, 54.460 153.012 M 215 156.636 C 210.239 158.361, 206.627 158.952, 201.500 158.846 C 195.138 158.714, 194.529 158.874, 194.819 160.601 C 195.210 162.927, 197.752 165, 200.213 165 C 201.221 165, 204.020 166.821, 206.435 169.046 C 211.117 173.362, 211.373 173.324, 212.483 168.152 L 213.202 164.804 216.535 168.034 C 221.370 172.720, 224.979 170.566, 221.907 164.827 C 220.286 161.798, 222.217 160.338, 225.138 162.384 C 231.067 166.537, 233.260 162.028, 227.750 157.015 C 223.948 153.556, 223.533 153.544, 215 156.636 M 163.615 158.045 C 159.461 162.983, 156.398 178.389, 157.562 188.494 C 158.155 193.638, 158.786 195.021, 162.009 198.244 C 170.403 206.638, 177.016 200.450, 176.985 184.230 C 176.957 169.462, 171.773 155, 166.507 155 C 166.326 155, 165.025 156.370, 163.615 158.045 M 92.797 163.536 C 92.502 163.831, 92.823 165.709, 93.511 167.709 C 94.303 170.013, 94.458 172.403, 93.934 174.230 C 91.977 181.053, 97.275 182.027, 100.845 175.500 C 101.935 173.507, 101.939 173.507, 101.970 175.527 C 102.003 177.771, 104.623 182, 105.979 182 C 106.455 182, 107.365 180.425, 108 178.500 C 108.885 175.818, 109.705 175, 111.510 175 C 113.083 175, 114.093 175.748, 114.551 177.250 C 115.299 179.704, 117.874 183, 119.044 183 C 119.447 183, 120.071 181.434, 120.430 179.519 C 120.869 177.179, 122.217 175.173, 124.542 173.400 C 130.612 168.770, 128.310 164.719, 121.278 167.657 C 116.155 169.798, 107.799 168.945, 101.221 165.612 C 96.150 163.042, 93.856 162.477, 92.797 163.536 M 0.461 239.500 C 0.461 264.800, 0.591 275.007, 0.749 262.181 C 0.908 249.356, 0.907 228.656, 0.749 216.181 C 0.590 203.707, 0.461 214.200, 0.461 239.500 M 191.924 208.608 C 188.382 212.420, 178.032 219.531, 174.101 220.855 C 166.562 223.394, 161.313 222.152, 149.750 215.092 L 146 212.802 146 215.824 C 146 217.628, 147.059 220.105, 148.626 221.967 C 155.484 230.117, 167.366 231.825, 179.079 226.344 C 189.619 221.411, 196 214.702, 196 208.550 C 196 205.315, 194.972 205.329, 191.924 208.608" stroke="none" fill="#f9f9f9" fill-rule="evenodd"/></svg>